<?xml version="1.0" standalone="no"?>
<!DOCTYPE svg PUBLIC "-//W3C//DTD SVG 1.1//EN" "http://www.w3.org/Graphics/SVG/1.1/DTD/svg11.dtd" >
<svg xmlns="http://www.w3.org/2000/svg">
<metadata></metadata>
<defs>
<font id="quincho_script_personal_useRg" horiz-adv-x="937" >
<font-face units-per-em="2048" ascent="1536" descent="-512" />
<missing-glyph horiz-adv-x="538" />
<glyph unicode="&#xfb01;" horiz-adv-x="1038" d="M-122 -78q1 47 10.5 92t22.5 84t21 60l177 528q43 133 99 265t124.5 234.5t150.5 162t174 47.5q74 -10 107 -48t31 -96.5t-33 -130t-83 -146.5t-118.5 -148.5t-140.5 -133.5l24 -53q39 -10 82 -6t83 18.5t72 38t48 53.5q27 53 66 70.5t98 17.5h108q-49 -139 -90 -260 q-18 -51 -35.5 -103t-34 -98t-28.5 -82t-18 -55q-27 -74 -20 -105.5t36 -31.5q16 0 43 13.5t58.5 44t64 80.5t61.5 124q6 16 16.5 21.5t19.5 2.5t13.5 -14.5t-2.5 -27.5q-57 -154 -155.5 -246t-210.5 -92q-111 0 -154 84t23 266l96 266q-63 -35 -124.5 -44t-100.5 -1 q12 -80 8 -171t-22.5 -183t-52.5 -176t-83 -149.5t-112.5 -104.5t-143.5 -39q-68 0 -105.5 24.5t-54 62.5t-15.5 85zM53.5 -173.5q2.5 -23.5 18.5 -23.5q27 0 56.5 37t60 99.5t59 143.5t52.5 168t40 174t20 163l-61 39l-176 -527q-20 -61 -36.5 -114.5t-26 -94.5t-7 -64.5z M348 786l31 -28q76 80 138.5 179t100 187t46 150.5t-26.5 71.5q-31 6 -63.5 -32t-67.5 -113t-75 -180.5t-83 -234.5zM839.5 1020q2.5 55 41.5 98q41 43 92 47t86 -30q35 -37 33 -92.5t-41 -98.5q-41 -43 -92.5 -47t-86.5 31q-35 37 -32.5 92z" />
<glyph unicode="&#xfb02;" horiz-adv-x="1042" d="M-122 -78q1 47 10.5 92t22.5 84t21 60l177 528q43 133 99 265t124.5 234.5t150.5 162t174 47.5q86 -10 116 -59.5t17.5 -120t-59.5 -156.5t-116.5 -171t-153.5 -161t-170 -127q68 -57 102 -160q43 0 89 15.5t87 41t73 58.5t44 70q25 68 49.5 138.5t48 141t46 137 t42.5 121.5q35 104 94.5 148.5t170.5 44.5h49q-104 -303 -187 -545q-35 -102 -69.5 -202.5t-62 -181.5t-46 -133t-20.5 -61q-27 -74 -20 -105.5t34 -31.5q16 0 44 13.5t58.5 44t63.5 81t61 123.5q6 16 16.5 21.5t19.5 2.5t13.5 -14.5t-1.5 -27.5q-57 -154 -155.5 -246 t-211.5 -92q-55 0 -94 20.5t-57.5 63.5t-14.5 109.5t35 156.5l39 113q-47 -37 -105.5 -58.5t-113.5 -25.5q25 -100 15.5 -211t-52.5 -204t-123 -154.5t-199 -61.5q-68 0 -105.5 24.5t-54 62.5t-15.5 85zM53.5 -173.5q2.5 -23.5 18.5 -23.5q39 0 78.5 56.5t73.5 143.5 t55.5 190.5t25.5 197.5q-43 12 -67 47l-115 -338q-20 -61 -36.5 -114.5t-26 -94.5t-7 -64.5zM322 700q57 51 109 117t96 135.5t76 138t48.5 123t13.5 90t-28 42.5q-31 6 -64.5 -35t-70.5 -121t-79 -193.5t-87 -251.5z" />
<glyph horiz-adv-x="0" />
<glyph unicode="&#xd;" horiz-adv-x="538" />
<glyph horiz-adv-x="0" />
<glyph horiz-adv-x="0" />
<glyph unicode=" "  horiz-adv-x="538" />
<glyph unicode="&#x09;" horiz-adv-x="538" />
<glyph unicode="&#xa0;" horiz-adv-x="538" />
<glyph unicode="!" horiz-adv-x="512" d="M4 125q2 55 41 98t91 47.5t87 -30.5q35 -37 33 -92.5t-41 -98.5q-41 -43 -92 -47t-86 31q-35 37 -33 92zM160 416l135 469l70 166q49 119 149 173t215 31l-473 -839h-96z" />
<glyph unicode="&#x22;" horiz-adv-x="495" d="M63 883q53 12 84 27.5t44.5 30.5t12.5 30.5t-11 27.5q-29 35 -24 86.5t40 90.5t82 43t78 -29q45 -47 36.5 -105.5t-50.5 -111.5t-108.5 -94t-137.5 -52zM336 883q53 12 84 27.5t44 30.5t12 30.5t-9 27.5q-29 35 -25 86.5t39 90.5t82 43t80 -29q45 -47 36 -105.5 t-51 -111.5t-108.5 -94t-136.5 -52z" />
<glyph unicode="#" horiz-adv-x="780" d="M2 319l33 82h115l167 301h-124l32 84h140l77 140h93l-78 -140h168l77 140h93l-78 -140h102l-33 -84h-116l-168 -301h127l-33 -82h-141l-66 -118h-92l65 118h-167l-66 -118h-92l65 118h-100zM242 401h168l168 301h-168z" />
<glyph unicode="$" horiz-adv-x="1906" d="M35 813q70 37 137.5 67.5t144.5 53.5q4 0 8.5 20.5t8.5 45t8 48t8 31.5q23 35 68 53.5t78 34.5q88 35 179 61.5t183 51.5q94 23 188.5 39t190.5 24q33 4 80 8.5t95 3.5t92 -12.5t71 -37.5q2 -4 -2 -29t-6 -33l-6 -98q0 -4 4 -4q78 -23 152.5 -58.5t123.5 -103.5v-2 q-16 4 -36.5 -3t-41 -20.5t-38 -28t-27.5 -26.5q31 -16 50 -47t27.5 -66.5t6.5 -72.5t-13 -68q-16 43 -49.5 66.5t-74.5 35t-85 14.5t-83 5q-45 4 -94.5 2t-92.5 14q-16 6 -22 25.5t-7 43t2 46.5t5 37q-184 -14 -363.5 -56t-351.5 -102q-8 -2 -8 -6q2 -10 8 -33.5t10 -50.5 t6 -49.5t-6 -28.5q-23 -18 -58.5 -21t-64.5 -7q-39 -6 -78.5 -12.5t-78.5 -12.5q-35 -8 -67 -17.5t-62 -21.5q-14 -8 -28.5 -13t-29.5 -16q-8 -8 -18 -20t-17 -16q10 35 24.5 67.5t27.5 63.5q2 6 13 25.5t21.5 41t18.5 39t6 21.5q-25 35 -58.5 67.5t-78.5 36.5zM86 -133h47 q4 -41 7 -83t12 -83q4 41 10 83t14 83h37l25 -166q4 41 9 83t9 83h43l-43 -223h-43q-6 37 -11 73.5t-9 73.5q-4 -37 -11.5 -73.5t-13.5 -73.5h-43zM90 819q68 -37 109 -108q2 -2 -4.5 -15.5t-14.5 -29t-15 -28.5t-9 -20q-25 -45 -41 -94q51 27 104 39t108.5 20.5t110 15.5 t107.5 24q-18 18 -47 25t-62 8t-65.5 -2t-55.5 -5v131t4 131q-59 -16 -116.5 -39.5t-112.5 -52.5zM305 -133h45q4 -41 8 -83t11 -83q4 41 10 83t14 83h39l23 -166q4 41 9 83t9 83h43l-43 -223h-41q-8 37 -13 73.5t-9 73.5q-4 -37 -10.5 -73.5t-12.5 -73.5h-45zM342 709 q8 0 22.5 6t29 15t27.5 18.5t23 13.5q37 16 75 29.5t77 27.5q78 23 155.5 43.5t159.5 38.5q78 16 155 31.5t157 21.5q72 8 154.5 11.5t152.5 -29.5q6 55 6 112.5t4 110.5q0 29 2 57.5t6 57.5q2 14 -6 22.5t-20.5 13.5t-26.5 7t-27 4q-119 18 -245.5 1t-245.5 -42 q-129 -27 -255 -60.5t-249 -86.5q-23 -12 -46.5 -24.5t-43.5 -29.5q-20 -16 -24.5 -49t-8.5 -55q-8 -66 -8 -132.5v-133.5zM367 825q0 23 15 38.5t36 19.5q6 2 15 -2t5 -15q-12 -8 -22 -8q-12 -4 -16.5 -16.5t1.5 -22.5q4 -4 8.5 -5t8.5 -3q20 -2 33.5 11.5t22.5 34t13.5 41 t8.5 34.5q-27 -27 -62 -35q-27 -4 -43 12q-16 8 -16 37q0 27 12 51q27 61 86 99q12 6 25.5 12t27.5 10q10 4 21.5 12.5t21.5 10.5q12 -1 6 -13q12 0 21 -2q16 -2 27.5 -15t13.5 -32q6 -43 -23.5 -83t-66.5 -62q-18 -12 -27.5 -31.5t-18.5 -39t-20.5 -38t-34.5 -28.5 q-23 -16 -53 -11q-12 4 -20 14.5t-6 24.5zM405.5 937q2.5 -15 22.5 -15q31 0 49.5 19.5t30.5 47t18.5 58.5t10.5 51q-29 -6 -52.5 -23.5t-44.5 -38.5q-6 -6 -15 -25.5t-15.5 -39t-4 -34.5zM522 -133h45q4 -41 9.5 -83t9.5 -83q4 41 10 83t14 83h39l25 -166q2 41 7 83t11 83 h41l-41 -223h-43q-8 37 -12 73.5t-10 73.5q-4 -37 -10.5 -73.5t-12.5 -73.5h-43zM530 950q14 4 29.5 19.5t26 35t14.5 40t0 34.5q-6 23 -33 23q-14 -37 -20.5 -75t-16.5 -77zM582 138q2 34 2 61q0 20 -1 38.5t1 38.5q0 49 26.5 67.5t73.5 18.5q37 0 54.5 -20t23.5 -50 t4 -63.5t-2 -60.5v-80q0 -47 -26.5 -66.5t-71.5 -17.5q-39 0 -56.5 20.5t-23.5 50t-4 63.5zM628 952.5q-5 20.5 6 46t31.5 46t43.5 22.5q12 0 16 -10q8 -12 2 -29q-6 -23 -27.5 -40t-44.5 -21q2 -12 10.5 -13.5t17.5 3t17.5 10.5t12.5 10q25 20 36 46t21 52q2 2 -1 9.5 t-8 15.5t-8 17t-1 16q10 27 34 22q12 0 17 -12q4 -10 2 -22.5t-2 -24.5q20 2 28.5 -1t-4.5 -28q-8 -16 -17 -33.5t-11 -36.5q0 -10 6 -10q20 0 34.5 20.5t26 46t22.5 51t25 34.5q8 2 17 -2q2 -4 2 -13q-4 -12 -10.5 -21t-1.5 -24q6 -12 13 -25.5t5 -27.5h2q20 25 32.5 60.5 t45.5 52.5q37 14 49 -21q10 -14 6 -25.5t-2 -27.5q8 2 14 10q16 12 18.5 35t8.5 41q4 4 11 5t12 -1q10 -2 8 -12v-2q10 10 24 16q10 6 17.5 2t11.5 -14q4 -12 1 -22.5t-8 -21.5t-10 -22.5t-3 -23.5q14 12 24 26.5t18.5 29.5t17.5 28.5t26 23.5q20 10 51 0q4 6 17 8.5 t9 -14.5q-4 -18 -14 -38.5t-10 -41.5q0 -14 8 -2q20 20 30.5 48t19.5 55.5t23.5 53t43.5 42.5q14 8 24 -8q12 -23 4 -48.5t-24 -41.5q-14 -18 -43 -44t-25 -53q4 -16 23 -12q14 6 21 19.5t16 25.5q4 2 12 2t8 -10l-4 -12q-16 -39 -53 -54q-25 -14 -43 15q-4 4 -4 10 q-10 -8 -16.5 -15.5t-18.5 -11.5q-10 -4 -16.5 0t-12.5 8q-4 -4 -12 -8t-16 -6q-31 -6 -43 21v2q-8 -10 -17.5 -17.5t-23.5 -11.5q-14 -8 -25 12q-6 12 -3 23.5t8 22t9 21.5t2 23q-18 -8 -25 -19t-11.5 -25.5t-6.5 -29t-8 -28.5q-6 -16 -24 -8q-8 2 -9 10q0 4 1 9t1 7 q-14 -4 -19 -4t-15 -10t-24.5 -18.5t-31.5 -8.5q-10 2 -16 8.5t-10 14.5q-16 -16 -40 -32.5t-50 -12.5q-16 2 -25 18q-25 -29 -51 -36q-29 -12 -33 20q-4 27 8.5 44t22.5 38q2 4 -3 5t-7 -3q-8 -20 -18.5 -44t-26 -45.5t-36 -34.5t-46.5 -11q-31 2 -36 22.5zM638 163 q-1 -38 1 -75q0 -16 9 -26.5t21.5 -14.5t24 1t15.5 24q2 12 2 27.5v29.5v147q0 16 -10.5 27.5t-22.5 16t-23.5 -2t-15.5 -22.5q-2 -14 -1 -29.5t1 -27.5q0 -37 -1 -75zM653 416q12 14 15.5 36.5t2.5 48t-4 49t-3 42.5v125q0 16 1 30.5t-12 28.5h76q-14 -12 -12 -32.5 t2 -36.5v-142q0 -16 -2 -49t10 -47q14 -23 37.5 -8.5t28.5 33.5q8 27 2.5 54t-9.5 54q-4 14 -10 38t-8 48.5t2 46t21 33.5q10 10 31.5 10t29.5 -16q6 -16 -2 -21.5t-18.5 -4.5t-17.5 8.5t1 15.5q-16 -8 -17 -28.5t6 -44t17 -46.5t15 -35q12 -37 17 -87t-22 -85 q-10 -14 -33.5 -19t-50 -5t-53 3t-41.5 3zM655 987q12 -2 28.5 15.5t18.5 27.5q4 8 -2 12.5t-12 -2.5q-10 -10 -18.5 -24.5t-14.5 -28.5zM715 -328q0 14 9 22.5t21.5 8.5t21.5 -8t9 -23q0 -16 -9 -23t-21.5 -7t-21.5 7t-9 23zM776 1124q-2 -8 4 -20h4q0 8 1 13t-1 13 q-6 0 -8 -6zM780 4q10 14 13.5 34.5t2.5 44t-4.5 46.5t-3.5 39v172q0 10 -8 22h58q29 -12 51 -50t35 -66q0 25 2 59.5t-13 56.5h74q-12 -10 -11 -24t1 -29v-246q0 -14 -1 -31.5t11 -27.5h-207zM797 -356l59 223h64l59 -223h-51l-15 51h-53l-10 -51h-53zM844 47 q0 -14 11 -23.5t25.5 -11.5t28 3.5t15.5 19.5q-4 63 -21.5 127.5t-58.5 116.5v-232zM865 506.5q-3 19.5 7 32.5q10 12 33 13t27 -22q0 -10 -7 -15t-15.5 -5t-14.5 4t-6 14q-12 -4 -12 -14t7 -20.5t17 -19.5t17 -11q14 -4 34.5 -4t30.5 10q20 20 16 40.5t-19 38t-35.5 32 t-31.5 24.5q-18 16 -30.5 42t-12.5 52.5t13.5 48t44.5 27.5q27 6 54.5 4t51.5 -2l-6 -10q0 -14 7 -29.5t13.5 -31t5.5 -29.5t-16 -27q-14 -10 -33.5 -9t-21.5 22q0 12 7 17t15.5 5t14.5 -5t4 -13q14 2 14 12t-8 21.5t-18.5 20.5t-18.5 11q-14 4 -32.5 1t-24.5 -19 q-12 -25 -4 -43.5t24.5 -32.5t37 -27.5t32.5 -27.5q14 -20 22.5 -47t4.5 -52.5t-20.5 -44t-47.5 -22.5q-27 -2 -53.5 -1t-54.5 1q8 4 5 19.5t-8.5 33.5t-8.5 37.5zM866 -266h41q-4 23 -9 46t-11 46zM874 1014q4 -12 16.5 -10t14.5 14q2 18 -10 43q-6 -8 -14.5 -22.5 t-6.5 -24.5zM991 1059l4 -15q10 -14 25 -6q16 4 23.5 21.5t3.5 34.5q-2 10 -9.5 16t-21.5 -4q-20 -14 -25 -47zM997 4q12 14 15.5 36.5t2.5 47.5t-4 48.5t-3 39.5v127q0 16 1 29.5t-12 29.5h76q-10 -10 -13 -30.5t-2 -42t3 -43t2 -35.5v-166h104q23 0 55.5 -3t55.5 13 q-4 -8 -7 -29.5t-14 -21.5h-260zM1006 -135q29 4 64.5 6t62.5 -14q31 -23 22.5 -58t-37.5 -49q14 -6 21.5 -19.5t10.5 -28.5t5 -30.5t8 -27.5h-51q-6 12 -8 27.5t-6 28.5t-12.5 22.5t-26.5 7.5v-86h-53v221zM1057 -196.5q2 -24.5 2 -34.5h12q18 0 26.5 10t6.5 22.5 t-11.5 21.5t-27.5 7q-10 -2 -8 -26.5zM1065 416q10 12 11 25.5t1 27.5v248q0 14 -1 30.5t-11 28.5h127q25 -25 25.5 -59.5t-9.5 -67.5q-4 -8 -15 -29.5t-20.5 -45t-11.5 -45t10 -27.5q-6 12 4.5 13t21.5 -4t14 -14.5t-17 -17.5q-25 -10 -35 9.5t-8 35.5q0 16 6 32.5t8 31 t-4 22.5t-28 6v-155q16 0 41.5 -3t44.5 11q-6 -14 -8.5 -26.5t-6.5 -26.5h-139zM1098 362h78q-12 -29 2 -65.5t26 -60.5q12 29 22.5 62.5t0.5 63.5h80q-23 -12 -27 -38.5t-10 -47.5q-6 -20 -23.5 -47.5t-17.5 -48.5q0 -23 -3 -56.5t13 -51.5h-76q18 18 14.5 53.5t-3.5 58.5 q-12 23 -21.5 46.5t-17.5 45.5q-10 23 -14.5 46.5t-22.5 39.5zM1133 662q20 0 45.5 2t27.5 32q0 16 -7 23.5t-18.5 10.5t-24.5 3h-23v-71zM1192 -133h53v-223h-53v223zM1245 1092q-4 -10 1 -27.5t22 -3.5q12 12 21 33t11 39q-2 8 -4 13t-12 1q-16 -8 -25.5 -23.5 t-13.5 -31.5zM1274 -328q0 14 9 22.5t21.5 8.5t21.5 -8t9 -23q0 -16 -9 -23t-21.5 -7t-21.5 7t-9 23zM1294 813q-8 -6 4 -8q27 -10 57.5 -13.5t62.5 -3.5h62.5t59.5 -2t57.5 -5t57.5 -13q29 -8 51.5 -23.5t48.5 -27.5q0 61 -21.5 106t-80.5 68q35 31 69.5 58.5t75.5 43.5 q-49 47 -110.5 77t-126.5 46q-2 -57 -3.5 -112.5t-5.5 -112.5l-2 2v-6q-27 -2 -64.5 -4t-74.5 -9.5t-68.5 -21.5t-48.5 -39zM1364 -133h57l68 -152q-4 39 -4 77v75h47v-223h-51q-20 39 -37 78.5t-35 76.5q2 -39 2 -77.5v-77.5h-47v223zM1393 1157q16 20 31.5 40t19.5 46h-2 q-37 -37 -49 -86zM1562.5 -268q-8.5 37 14.5 80q12 29 40 43t62 14h10.5t17.5 -2t16.5 -4t7.5 -4l-9 -41q-27 12 -48 8t-36.5 -18.5t-20.5 -37t3 -46.5q16 -47 61 -41q10 2 8.5 21.5t-1.5 27.5h-27v41h76v-121q-41 -16 -79 -9t-62.5 29.5t-33 59.5z" />
<glyph unicode="%" horiz-adv-x="1871" d="M35 813q70 37 137.5 67.5t144.5 53.5q4 0 8.5 20.5t8.5 45t8 48t8 31.5q23 35 68 53.5t78 34.5q88 35 179 61.5t183 51.5q94 23 188.5 39t190.5 24q33 4 80 8.5t95 3.5t92 -12.5t71 -37.5q2 -4 -2 -29t-6 -33l-6 -98q0 -4 4 -4q78 -23 152.5 -58.5t123.5 -103.5v-2 q-16 4 -36.5 -3t-41 -20.5t-38 -28t-27.5 -26.5q31 -16 50 -47t27.5 -66.5t6.5 -72.5t-13 -68q-16 43 -49.5 66.5t-74.5 35t-85 14.5t-83 5q-45 4 -94.5 2t-92.5 14q-16 6 -22 25.5t-7 43t2 46.5t5 37q-184 -14 -363.5 -56t-351.5 -102q-8 -2 -8 -6q2 -10 8 -33.5t10 -50.5 t6 -49.5t-6 -28.5q-23 -18 -58.5 -21t-64.5 -7q-39 -6 -78.5 -12.5t-78.5 -12.5q-35 -8 -67 -17.5t-62 -21.5q-14 -8 -28.5 -13t-29.5 -16q-8 -8 -18 -20t-17 -16q10 35 24.5 67.5t27.5 63.5q2 6 13 25.5t21.5 41t18.5 39t6 21.5q-25 35 -58.5 67.5t-78.5 36.5zM86 -133h47 q4 -41 7 -83t12 -83q4 41 10 83t14 83h37l25 -166q4 41 9 83t9 83h43l-43 -223h-43q-6 37 -11 73.5t-9 73.5q-4 -37 -11.5 -73.5t-13.5 -73.5h-43zM90 819q68 -37 109 -108q2 -2 -4.5 -15.5t-14.5 -29t-15 -28.5t-9 -20q-25 -45 -41 -94q51 27 104 39t108.5 20.5t110 15.5 t107.5 24q-18 18 -47 25t-62 8t-65.5 -2t-55.5 -5v131t4 131q-59 -16 -116.5 -39.5t-112.5 -52.5zM305 -133h45q4 -41 8 -83t11 -83q4 41 10 83t14 83h39l23 -166q4 41 9 83t9 83h43l-43 -223h-41q-8 37 -13 73.5t-9 73.5q-4 -37 -10.5 -73.5t-12.5 -73.5h-45zM342 709 q8 0 22.5 6t29 15t27.5 18.5t23 13.5q37 16 75 29.5t77 27.5q78 23 155.5 43.5t159.5 38.5q78 16 155 31.5t157 21.5q72 8 154.5 11.5t152.5 -29.5q6 55 6 112.5t4 110.5q0 29 2 57.5t6 57.5q2 14 -6 22.5t-20.5 13.5t-26.5 7t-27 4q-119 18 -245.5 1t-245.5 -42 q-129 -27 -255 -60.5t-249 -86.5q-23 -12 -46.5 -24.5t-43.5 -29.5q-20 -16 -24.5 -49t-8.5 -55q-8 -66 -8 -132.5v-133.5zM367 825q0 23 15 38.5t36 19.5q6 2 15 -2t5 -15q-12 -8 -22 -8q-12 -4 -16.5 -16.5t1.5 -22.5q4 -4 8.5 -5t8.5 -3q20 -2 33.5 11.5t22.5 34t13.5 41 t8.5 34.5q-27 -27 -62 -35q-27 -4 -43 12q-16 8 -16 37q0 27 12 51q27 61 86 99q12 6 25.5 12t27.5 10q10 4 21.5 12.5t21.5 10.5q12 -1 6 -13q12 0 21 -2q16 -2 27.5 -15t13.5 -32q6 -43 -23.5 -83t-66.5 -62q-18 -12 -27.5 -31.5t-18.5 -39t-20.5 -38t-34.5 -28.5 q-23 -16 -53 -11q-12 4 -20 14.5t-6 24.5zM405.5 937q2.5 -15 22.5 -15q31 0 49.5 19.5t30.5 47t18.5 58.5t10.5 51q-29 -6 -52.5 -23.5t-44.5 -38.5q-6 -6 -15 -25.5t-15.5 -39t-4 -34.5zM522 -133h45q4 -41 9.5 -83t9.5 -83q4 41 10 83t14 83h39l25 -166q2 41 7 83t11 83 h41l-41 -223h-43q-8 37 -12 73.5t-10 73.5q-4 -37 -10.5 -73.5t-12.5 -73.5h-43zM530 950q14 4 29.5 19.5t26 35t14.5 40t0 34.5q-6 23 -33 23q-14 -37 -20.5 -75t-16.5 -77zM582 138q2 34 2 61q0 20 -1 38.5t1 38.5q0 49 26.5 67.5t73.5 18.5q37 0 54.5 -20t23.5 -50 t4 -63.5t-2 -60.5v-80q0 -47 -26.5 -66.5t-71.5 -17.5q-39 0 -56.5 20.5t-23.5 50t-4 63.5zM628 952.5q-5 20.5 6 46t31.5 46t43.5 22.5q12 0 16 -10q8 -12 2 -29q-6 -23 -27.5 -40t-44.5 -21q2 -12 10.5 -13.5t17.5 3t17.5 10.5t12.5 10q25 20 36 46t21 52q2 2 -1 9.5 t-8 15.5t-8 17t-1 16q10 27 34 22q12 0 17 -12q4 -10 2 -22.5t-2 -24.5q20 2 28.5 -1t-4.5 -28q-8 -16 -17 -33.5t-11 -36.5q0 -10 6 -10q20 0 34.5 20.5t26 46t22.5 51t25 34.5q8 2 17 -2q2 -4 2 -13q-4 -12 -10.5 -21t-1.5 -24q6 -12 13 -25.5t5 -27.5h2q20 25 32.5 60.5 t45.5 52.5q37 14 49 -21q10 -14 6 -25.5t-2 -27.5q8 2 14 10q16 12 18.5 35t8.5 41q4 4 11 5t12 -1q10 -2 8 -12v-2q10 10 24 16q10 6 17.5 2t11.5 -14q4 -12 1 -22.5t-8 -21.5t-10 -22.5t-3 -23.5q14 12 24 26.5t18.5 29.5t17.5 28.5t26 23.5q20 10 51 0q4 6 17 8.5 t9 -14.5q-4 -18 -14 -38.5t-10 -41.5q0 -14 8 -2q20 20 30.5 48t19.5 55.5t23.5 53t43.5 42.5q14 8 24 -8q12 -23 4 -48.5t-24 -41.5q-14 -18 -43 -44t-25 -53q4 -16 23 -12q14 6 21 19.5t16 25.5q4 2 12 2t8 -10l-4 -12q-16 -39 -53 -54q-25 -14 -43 15q-4 4 -4 10 q-10 -8 -16.5 -15.5t-18.5 -11.5q-10 -4 -16.5 0t-12.5 8q-4 -4 -12 -8t-16 -6q-31 -6 -43 21v2q-8 -10 -17.5 -17.5t-23.5 -11.5q-14 -8 -25 12q-6 12 -3 23.5t8 22t9 21.5t2 23q-18 -8 -25 -19t-11.5 -25.5t-6.5 -29t-8 -28.5q-6 -16 -24 -8q-8 2 -9 10q0 4 1 9t1 7 q-14 -4 -19 -4t-15 -10t-24.5 -18.5t-31.5 -8.5q-10 2 -16 8.5t-10 14.5q-16 -16 -40 -32.5t-50 -12.5q-16 2 -25 18q-25 -29 -51 -36q-29 -12 -33 20q-4 27 8.5 44t22.5 38q2 4 -3 5t-7 -3q-8 -20 -18.5 -44t-26 -45.5t-36 -34.5t-46.5 -11q-31 2 -36 22.5zM638 163 q-1 -38 1 -75q0 -16 9 -26.5t21.5 -14.5t24 1t15.5 24q2 12 2 27.5v29.5v147q0 16 -10.5 27.5t-22.5 16t-23.5 -2t-15.5 -22.5q-2 -14 -1 -29.5t1 -27.5q0 -37 -1 -75zM653 416q12 14 15.5 36.5t2.5 48t-4 49t-3 42.5v125q0 16 1 30.5t-12 28.5h76q-14 -12 -12 -32.5 t2 -36.5v-142q0 -16 -2 -49t10 -47q14 -23 37.5 -8.5t28.5 33.5q8 27 2.5 54t-9.5 54q-4 14 -10 38t-8 48.5t2 46t21 33.5q10 10 31.5 10t29.5 -16q6 -16 -2 -21.5t-18.5 -4.5t-17.5 8.5t1 15.5q-16 -8 -17 -28.5t6 -44t17 -46.5t15 -35q12 -37 17 -87t-22 -85 q-10 -14 -33.5 -19t-50 -5t-53 3t-41.5 3zM655 987q12 -2 28.5 15.5t18.5 27.5q4 8 -2 12.5t-12 -2.5q-10 -10 -18.5 -24.5t-14.5 -28.5zM715 -328q0 14 9 22.5t21.5 8.5t21.5 -8t9 -23q0 -16 -9 -23t-21.5 -7t-21.5 7t-9 23zM776 1124q-2 -8 4 -20h4q0 8 1 13t-1 13 q-6 0 -8 -6zM780 4q10 14 13.5 34.5t2.5 44t-4.5 46.5t-3.5 39v172q0 10 -8 22h58q29 -12 51 -50t35 -66q0 25 2 59.5t-13 56.5h74q-12 -10 -11 -24t1 -29v-246q0 -14 -1 -31.5t11 -27.5h-207zM797 -356l59 223h64l59 -223h-51l-15 51h-53l-10 -51h-53zM844 47 q0 -14 11 -23.5t25.5 -11.5t28 3.5t15.5 19.5q-4 63 -21.5 127.5t-58.5 116.5v-232zM865 506.5q-3 19.5 7 32.5q10 12 33 13t27 -22q0 -10 -7 -15t-15.5 -5t-14.5 4t-6 14q-12 -4 -12 -14t7 -20.5t17 -19.5t17 -11q14 -4 34.5 -4t30.5 10q20 20 16 40.5t-19 38t-35.5 32 t-31.5 24.5q-18 16 -30.5 42t-12.5 52.5t13.5 48t44.5 27.5q27 6 54.5 4t51.5 -2l-6 -10q0 -14 7 -29.5t13.5 -31t5.5 -29.5t-16 -27q-14 -10 -33.5 -9t-21.5 22q0 12 7 17t15.5 5t14.5 -5t4 -13q14 2 14 12t-8 21.5t-18.5 20.5t-18.5 11q-14 4 -32.5 1t-24.5 -19 q-12 -25 -4 -43.5t24.5 -32.5t37 -27.5t32.5 -27.5q14 -20 22.5 -47t4.5 -52.5t-20.5 -44t-47.5 -22.5q-27 -2 -53.5 -1t-54.5 1q8 4 5 19.5t-8.5 33.5t-8.5 37.5zM866 -266h41q-4 23 -9 46t-11 46zM874 1014q4 -12 16.5 -10t14.5 14q2 18 -10 43q-6 -8 -14.5 -22.5 t-6.5 -24.5zM991 1059l4 -15q10 -14 25 -6q16 4 23.5 21.5t3.5 34.5q-2 10 -9.5 16t-21.5 -4q-20 -14 -25 -47zM997 4q12 14 15.5 36.5t2.5 47.5t-4 48.5t-3 39.5v127q0 16 1 29.5t-12 29.5h76q-10 -10 -13 -30.5t-2 -42t3 -43t2 -35.5v-166h104q23 0 55.5 -3t55.5 13 q-4 -8 -7 -29.5t-14 -21.5h-260zM1006 -135q29 4 64.5 6t62.5 -14q31 -23 22.5 -58t-37.5 -49q14 -6 21.5 -19.5t10.5 -28.5t5 -30.5t8 -27.5h-51q-6 12 -8 27.5t-6 28.5t-12.5 22.5t-26.5 7.5v-86h-53v221zM1057 -196.5q2 -24.5 2 -34.5h12q18 0 26.5 10t6.5 22.5 t-11.5 21.5t-27.5 7q-10 -2 -8 -26.5zM1065 416q10 12 11 25.5t1 27.5v248q0 14 -1 30.5t-11 28.5h127q25 -25 25.5 -59.5t-9.5 -67.5q-4 -8 -15 -29.5t-20.5 -45t-11.5 -45t10 -27.5q-6 12 4.5 13t21.5 -4t14 -14.5t-17 -17.5q-25 -10 -35 9.5t-8 35.5q0 16 6 32.5t8 31 t-4 22.5t-28 6v-155q16 0 41.5 -3t44.5 11q-6 -14 -8.5 -26.5t-6.5 -26.5h-139zM1098 362h78q-12 -29 2 -65.5t26 -60.5q12 29 22.5 62.5t0.5 63.5h80q-23 -12 -27 -38.5t-10 -47.5q-6 -20 -23.5 -47.5t-17.5 -48.5q0 -23 -3 -56.5t13 -51.5h-76q18 18 14.5 53.5t-3.5 58.5 q-12 23 -21.5 46.5t-17.5 45.5q-10 23 -14.5 46.5t-22.5 39.5zM1133 662q20 0 45.5 2t27.5 32q0 16 -7 23.5t-18.5 10.5t-24.5 3h-23v-71zM1192 -133h53v-223h-53v223zM1245 1092q-4 -10 1 -27.5t22 -3.5q12 12 21 33t11 39q-2 8 -4 13t-12 1q-16 -8 -25.5 -23.5 t-13.5 -31.5zM1274 -328q0 14 9 22.5t21.5 8.5t21.5 -8t9 -23q0 -16 -9 -23t-21.5 -7t-21.5 7t-9 23zM1294 813q-8 -6 4 -8q27 -10 57.5 -13.5t62.5 -3.5h62.5t59.5 -2t57.5 -5t57.5 -13q29 -8 51.5 -23.5t48.5 -27.5q0 61 -21.5 106t-80.5 68q35 31 69.5 58.5t75.5 43.5 q-49 47 -110.5 77t-126.5 46q-2 -57 -3.5 -112.5t-5.5 -112.5l-2 2v-6q-27 -2 -64.5 -4t-74.5 -9.5t-68.5 -21.5t-48.5 -39zM1364 -133h57l68 -152q-4 39 -4 77v75h47v-223h-51q-20 39 -37 78.5t-35 76.5q2 -39 2 -77.5v-77.5h-47v223zM1393 1157q16 20 31.5 40t19.5 46h-2 q-37 -37 -49 -86zM1562.5 -268q-8.5 37 14.5 80q12 29 40 43t62 14h10.5t17.5 -2t16.5 -4t7.5 -4l-9 -41q-27 12 -48 8t-36.5 -18.5t-20.5 -37t3 -46.5q16 -47 61 -41q10 2 8.5 21.5t-1.5 27.5h-27v41h76v-121q-41 -16 -79 -9t-62.5 29.5t-33 59.5z" />
<glyph unicode="&#x26;" horiz-adv-x="1095" d="M4 306q-6 75 11.5 149.5t60.5 140.5q47 72 126 118t165 52q47 4 94 -6t104 -27q-14 16 -24.5 40t-20.5 65q-53 47 -82.5 109.5t-21.5 127.5q10 72 69 107q2 2 16.5 6t30 7t26.5 3t9 -8q-18 -76 -10 -146q57 74 143 105t167 19.5t140.5 -61.5t65.5 -138 q2 -53 -23.5 -100.5t-70.5 -80t-102.5 -48t-116.5 -5.5q-45 6 -94 23v-2q4 -16 15 -30.5t26 -25.5q12 -10 20 -22t-2 -31q-10 -14 -23.5 -14t-27.5 2q-55 10 -111.5 6t-111.5 -25q-66 -23 -119 -66.5t-88 -103.5q-31 -51 -48.5 -120.5t-13.5 -137t35 -124t96 -82.5 q90 -35 176 -21t154 84q45 45 76 113.5t34 138.5t-28 127t-111 80q-14 -16 -34.5 -10t-24.5 26q-4 18 6 28.5t25 16.5q57 29 119.5 29t125 -7t126 -11.5t122.5 18.5q6 2 9.5 -2t4.5 -11.5t0 -14.5t-1 -9q-6 -41 -33 -67.5t-62.5 -40t-76.5 -10.5t-76 22q35 -53 43 -113 q14 -78 -7.5 -152.5t-66.5 -136t-110.5 -105.5t-141.5 -60q-59 -12 -119.5 -9.5t-118 20t-109.5 50.5t-91 78q-51 57 -82 127.5t-37 145.5zM678 844q72 -51 160 -45q45 4 86 31.5t63.5 62.5t19.5 67.5t-46 45.5q-53 16 -106.5 -5.5t-92.5 -54.5q-23 -20 -45.5 -46t-38.5 -56 z" />
<glyph unicode="'" horiz-adv-x="217" d="M63 883q53 12 84 27.5t44.5 30.5t12.5 30.5t-11 27.5q-29 35 -24 86.5t40 90.5t82 43t78 -29q45 -47 36.5 -105.5t-50.5 -111.5t-108.5 -94t-137.5 -52z" />
<glyph unicode="(" horiz-adv-x="722" d="M88 120q-8 95 12 189q18 82 56.5 168t94.5 170t130 164t164 150q102 78 224 139t251 80l2 -45q-78 -35 -149.5 -85.5t-135 -111.5t-117 -131t-96.5 -139q-82 -139 -127 -283.5t-39 -278.5q4 -74 20.5 -134t65.5 -85v-49q-39 -8 -82 -6t-83.5 16.5t-75.5 40t-60 62.5 q-47 74 -55 169z" />
<glyph unicode=")" horiz-adv-x="706" d="M-272 -139q78 33 149.5 84t135 112.5t116.5 130t96 140.5q82 139 127 283.5t39 277.5q-4 74 -20.5 134t-65.5 85v49q39 8 82 6t84 -16t76 -40t59 -63q47 -74 55.5 -169t-12.5 -189q-18 -82 -56 -168t-94.5 -170t-131 -164t-162.5 -149q-102 -78 -224 -139.5t-251 -79.5z " />
<glyph unicode="*" horiz-adv-x="894" d="M166 731l295 74l-201 104l143 103l117 -148l29 172h186l-121 -192l250 133l17 -170l-260 -47l202 -129l-125 -103l-139 183l-37 -230h-215l176 250l-286 -160z" />
<glyph unicode="+" horiz-adv-x="731" d="M119 559l33 82h213l88 201h90l-88 -201h225l-33 -82h-227l-88 -201h-90l88 201h-211z" />
<glyph unicode="," horiz-adv-x="456" d="M-80 -63q53 12 84 26t44 30.5t12 31t-9 26.5q-29 35 -23.5 87t40.5 91t80.5 43.5t78.5 -28.5q45 -47 36 -105.5t-51 -112t-108.5 -94.5t-136.5 -51z" />
<glyph unicode="-" horiz-adv-x="583" d="M84 401l33 82h332l-33 -82h-332z" />
<glyph unicode="." horiz-adv-x="452" d="M22.5 125q2.5 55 43.5 98q39 43 91 47.5t87 -30.5q35 -37 32.5 -92.5t-43.5 -98.5q-39 -43 -91 -47t-87 31q-35 37 -32.5 92z" />
<glyph unicode="/" horiz-adv-x="724" d="M-397 -438l1292 1661h111l-1291 -1661h-112z" />
<glyph unicode="0" horiz-adv-x="1871" d="M35 813q70 37 137.5 67.5t144.5 53.5q4 0 8.5 20.5t8.5 45t8 48t8 31.5q23 35 68 53.5t78 34.5q88 35 179 61.5t183 51.5q94 23 188.5 39t190.5 24q33 4 80 8.5t95 3.5t92 -12.5t71 -37.5q2 -4 -2 -29t-6 -33l-6 -98q0 -4 4 -4q78 -23 152.5 -58.5t123.5 -103.5v-2 q-16 4 -36.5 -3t-41 -20.5t-38 -28t-27.5 -26.5q31 -16 50 -47t27.5 -66.5t6.5 -72.5t-13 -68q-16 43 -49.5 66.5t-74.5 35t-85 14.5t-83 5q-45 4 -94.5 2t-92.5 14q-16 6 -22 25.5t-7 43t2 46.5t5 37q-184 -14 -363.5 -56t-351.5 -102q-8 -2 -8 -6q2 -10 8 -33.5t10 -50.5 t6 -49.5t-6 -28.5q-23 -18 -58.5 -21t-64.5 -7q-39 -6 -78.5 -12.5t-78.5 -12.5q-35 -8 -67 -17.5t-62 -21.5q-14 -8 -28.5 -13t-29.5 -16q-8 -8 -18 -20t-17 -16q10 35 24.5 67.5t27.5 63.5q2 6 13 25.5t21.5 41t18.5 39t6 21.5q-25 35 -58.5 67.5t-78.5 36.5zM86 -133h47 q4 -41 7 -83t12 -83q4 41 10 83t14 83h37l25 -166q4 41 9 83t9 83h43l-43 -223h-43q-6 37 -11 73.5t-9 73.5q-4 -37 -11.5 -73.5t-13.5 -73.5h-43zM90 819q68 -37 109 -108q2 -2 -4.5 -15.5t-14.5 -29t-15 -28.5t-9 -20q-25 -45 -41 -94q51 27 104 39t108.5 20.5t110 15.5 t107.5 24q-18 18 -47 25t-62 8t-65.5 -2t-55.5 -5v131t4 131q-59 -16 -116.5 -39.5t-112.5 -52.5zM305 -133h45q4 -41 8 -83t11 -83q4 41 10 83t14 83h39l23 -166q4 41 9 83t9 83h43l-43 -223h-41q-8 37 -13 73.5t-9 73.5q-4 -37 -10.5 -73.5t-12.5 -73.5h-45zM342 709 q8 0 22.5 6t29 15t27.5 18.5t23 13.5q37 16 75 29.5t77 27.5q78 23 155.5 43.5t159.5 38.5q78 16 155 31.5t157 21.5q72 8 154.5 11.5t152.5 -29.5q6 55 6 112.5t4 110.5q0 29 2 57.5t6 57.5q2 14 -6 22.5t-20.5 13.5t-26.5 7t-27 4q-119 18 -245.5 1t-245.5 -42 q-129 -27 -255 -60.5t-249 -86.5q-23 -12 -46.5 -24.5t-43.5 -29.5q-20 -16 -24.5 -49t-8.5 -55q-8 -66 -8 -132.5v-133.5zM367 825q0 23 15 38.5t36 19.5q6 2 15 -2t5 -15q-12 -8 -22 -8q-12 -4 -16.5 -16.5t1.5 -22.5q4 -4 8.5 -5t8.5 -3q20 -2 33.5 11.5t22.5 34t13.5 41 t8.5 34.5q-27 -27 -62 -35q-27 -4 -43 12q-16 8 -16 37q0 27 12 51q27 61 86 99q12 6 25.5 12t27.5 10q10 4 21.5 12.5t21.5 10.5q12 -1 6 -13q12 0 21 -2q16 -2 27.5 -15t13.5 -32q6 -43 -23.5 -83t-66.5 -62q-18 -12 -27.5 -31.5t-18.5 -39t-20.5 -38t-34.5 -28.5 q-23 -16 -53 -11q-12 4 -20 14.5t-6 24.5zM405.5 937q2.5 -15 22.5 -15q31 0 49.5 19.5t30.5 47t18.5 58.5t10.5 51q-29 -6 -52.5 -23.5t-44.5 -38.5q-6 -6 -15 -25.5t-15.5 -39t-4 -34.5zM522 -133h45q4 -41 9.5 -83t9.5 -83q4 41 10 83t14 83h39l25 -166q2 41 7 83t11 83 h41l-41 -223h-43q-8 37 -12 73.5t-10 73.5q-4 -37 -10.5 -73.5t-12.5 -73.5h-43zM530 950q14 4 29.5 19.5t26 35t14.5 40t0 34.5q-6 23 -33 23q-14 -37 -20.5 -75t-16.5 -77zM582 138q2 34 2 61q0 20 -1 38.5t1 38.5q0 49 26.5 67.5t73.5 18.5q37 0 54.5 -20t23.5 -50 t4 -63.5t-2 -60.5v-80q0 -47 -26.5 -66.5t-71.5 -17.5q-39 0 -56.5 20.5t-23.5 50t-4 63.5zM628 952.5q-5 20.5 6 46t31.5 46t43.5 22.5q12 0 16 -10q8 -12 2 -29q-6 -23 -27.5 -40t-44.5 -21q2 -12 10.5 -13.5t17.5 3t17.5 10.5t12.5 10q25 20 36 46t21 52q2 2 -1 9.5 t-8 15.5t-8 17t-1 16q10 27 34 22q12 0 17 -12q4 -10 2 -22.5t-2 -24.5q20 2 28.5 -1t-4.5 -28q-8 -16 -17 -33.5t-11 -36.5q0 -10 6 -10q20 0 34.5 20.5t26 46t22.5 51t25 34.5q8 2 17 -2q2 -4 2 -13q-4 -12 -10.5 -21t-1.5 -24q6 -12 13 -25.5t5 -27.5h2q20 25 32.5 60.5 t45.5 52.5q37 14 49 -21q10 -14 6 -25.5t-2 -27.5q8 2 14 10q16 12 18.5 35t8.5 41q4 4 11 5t12 -1q10 -2 8 -12v-2q10 10 24 16q10 6 17.5 2t11.5 -14q4 -12 1 -22.5t-8 -21.5t-10 -22.5t-3 -23.5q14 12 24 26.5t18.5 29.5t17.5 28.5t26 23.5q20 10 51 0q4 6 17 8.5 t9 -14.5q-4 -18 -14 -38.5t-10 -41.5q0 -14 8 -2q20 20 30.5 48t19.5 55.5t23.5 53t43.5 42.5q14 8 24 -8q12 -23 4 -48.5t-24 -41.5q-14 -18 -43 -44t-25 -53q4 -16 23 -12q14 6 21 19.5t16 25.5q4 2 12 2t8 -10l-4 -12q-16 -39 -53 -54q-25 -14 -43 15q-4 4 -4 10 q-10 -8 -16.5 -15.5t-18.5 -11.5q-10 -4 -16.5 0t-12.5 8q-4 -4 -12 -8t-16 -6q-31 -6 -43 21v2q-8 -10 -17.5 -17.5t-23.5 -11.5q-14 -8 -25 12q-6 12 -3 23.5t8 22t9 21.5t2 23q-18 -8 -25 -19t-11.5 -25.5t-6.5 -29t-8 -28.5q-6 -16 -24 -8q-8 2 -9 10q0 4 1 9t1 7 q-14 -4 -19 -4t-15 -10t-24.5 -18.5t-31.5 -8.5q-10 2 -16 8.5t-10 14.5q-16 -16 -40 -32.5t-50 -12.5q-16 2 -25 18q-25 -29 -51 -36q-29 -12 -33 20q-4 27 8.5 44t22.5 38q2 4 -3 5t-7 -3q-8 -20 -18.5 -44t-26 -45.5t-36 -34.5t-46.5 -11q-31 2 -36 22.5zM638 163 q-1 -38 1 -75q0 -16 9 -26.5t21.5 -14.5t24 1t15.5 24q2 12 2 27.5v29.5v147q0 16 -10.5 27.5t-22.5 16t-23.5 -2t-15.5 -22.5q-2 -14 -1 -29.5t1 -27.5q0 -37 -1 -75zM653 416q12 14 15.5 36.5t2.5 48t-4 49t-3 42.5v125q0 16 1 30.5t-12 28.5h76q-14 -12 -12 -32.5 t2 -36.5v-142q0 -16 -2 -49t10 -47q14 -23 37.5 -8.5t28.5 33.5q8 27 2.5 54t-9.5 54q-4 14 -10 38t-8 48.5t2 46t21 33.5q10 10 31.5 10t29.5 -16q6 -16 -2 -21.5t-18.5 -4.5t-17.5 8.5t1 15.5q-16 -8 -17 -28.5t6 -44t17 -46.5t15 -35q12 -37 17 -87t-22 -85 q-10 -14 -33.5 -19t-50 -5t-53 3t-41.5 3zM655 987q12 -2 28.5 15.5t18.5 27.5q4 8 -2 12.5t-12 -2.5q-10 -10 -18.5 -24.5t-14.5 -28.5zM715 -328q0 14 9 22.5t21.5 8.5t21.5 -8t9 -23q0 -16 -9 -23t-21.5 -7t-21.5 7t-9 23zM776 1124q-2 -8 4 -20h4q0 8 1 13t-1 13 q-6 0 -8 -6zM780 4q10 14 13.5 34.5t2.5 44t-4.5 46.5t-3.5 39v172q0 10 -8 22h58q29 -12 51 -50t35 -66q0 25 2 59.5t-13 56.5h74q-12 -10 -11 -24t1 -29v-246q0 -14 -1 -31.5t11 -27.5h-207zM797 -356l59 223h64l59 -223h-51l-15 51h-53l-10 -51h-53zM844 47 q0 -14 11 -23.5t25.5 -11.5t28 3.5t15.5 19.5q-4 63 -21.5 127.5t-58.5 116.5v-232zM865 506.5q-3 19.5 7 32.5q10 12 33 13t27 -22q0 -10 -7 -15t-15.5 -5t-14.5 4t-6 14q-12 -4 -12 -14t7 -20.5t17 -19.5t17 -11q14 -4 34.5 -4t30.5 10q20 20 16 40.5t-19 38t-35.5 32 t-31.5 24.5q-18 16 -30.5 42t-12.5 52.5t13.5 48t44.5 27.5q27 6 54.5 4t51.5 -2l-6 -10q0 -14 7 -29.5t13.5 -31t5.5 -29.5t-16 -27q-14 -10 -33.5 -9t-21.5 22q0 12 7 17t15.5 5t14.5 -5t4 -13q14 2 14 12t-8 21.5t-18.5 20.5t-18.5 11q-14 4 -32.5 1t-24.5 -19 q-12 -25 -4 -43.5t24.5 -32.5t37 -27.5t32.5 -27.5q14 -20 22.5 -47t4.5 -52.5t-20.5 -44t-47.5 -22.5q-27 -2 -53.5 -1t-54.5 1q8 4 5 19.5t-8.5 33.5t-8.5 37.5zM866 -266h41q-4 23 -9 46t-11 46zM874 1014q4 -12 16.5 -10t14.5 14q2 18 -10 43q-6 -8 -14.5 -22.5 t-6.5 -24.5zM991 1059l4 -15q10 -14 25 -6q16 4 23.5 21.5t3.5 34.5q-2 10 -9.5 16t-21.5 -4q-20 -14 -25 -47zM997 4q12 14 15.5 36.5t2.5 47.5t-4 48.5t-3 39.5v127q0 16 1 29.5t-12 29.5h76q-10 -10 -13 -30.5t-2 -42t3 -43t2 -35.5v-166h104q23 0 55.5 -3t55.5 13 q-4 -8 -7 -29.5t-14 -21.5h-260zM1006 -135q29 4 64.5 6t62.5 -14q31 -23 22.5 -58t-37.5 -49q14 -6 21.5 -19.5t10.5 -28.5t5 -30.5t8 -27.5h-51q-6 12 -8 27.5t-6 28.5t-12.5 22.5t-26.5 7.5v-86h-53v221zM1057 -196.5q2 -24.5 2 -34.5h12q18 0 26.5 10t6.5 22.5 t-11.5 21.5t-27.5 7q-10 -2 -8 -26.5zM1065 416q10 12 11 25.5t1 27.5v248q0 14 -1 30.5t-11 28.5h127q25 -25 25.5 -59.5t-9.5 -67.5q-4 -8 -15 -29.5t-20.5 -45t-11.5 -45t10 -27.5q-6 12 4.5 13t21.5 -4t14 -14.5t-17 -17.5q-25 -10 -35 9.5t-8 35.5q0 16 6 32.5t8 31 t-4 22.5t-28 6v-155q16 0 41.5 -3t44.5 11q-6 -14 -8.5 -26.5t-6.5 -26.5h-139zM1098 362h78q-12 -29 2 -65.5t26 -60.5q12 29 22.5 62.5t0.5 63.5h80q-23 -12 -27 -38.5t-10 -47.5q-6 -20 -23.5 -47.5t-17.5 -48.5q0 -23 -3 -56.5t13 -51.5h-76q18 18 14.5 53.5t-3.5 58.5 q-12 23 -21.5 46.5t-17.5 45.5q-10 23 -14.5 46.5t-22.5 39.5zM1133 662q20 0 45.5 2t27.5 32q0 16 -7 23.5t-18.5 10.5t-24.5 3h-23v-71zM1192 -133h53v-223h-53v223zM1245 1092q-4 -10 1 -27.5t22 -3.5q12 12 21 33t11 39q-2 8 -4 13t-12 1q-16 -8 -25.5 -23.5 t-13.5 -31.5zM1274 -328q0 14 9 22.5t21.5 8.5t21.5 -8t9 -23q0 -16 -9 -23t-21.5 -7t-21.5 7t-9 23zM1294 813q-8 -6 4 -8q27 -10 57.5 -13.5t62.5 -3.5h62.5t59.5 -2t57.5 -5t57.5 -13q29 -8 51.5 -23.5t48.5 -27.5q0 61 -21.5 106t-80.5 68q35 31 69.5 58.5t75.5 43.5 q-49 47 -110.5 77t-126.5 46q-2 -57 -3.5 -112.5t-5.5 -112.5l-2 2v-6q-27 -2 -64.5 -4t-74.5 -9.5t-68.5 -21.5t-48.5 -39zM1364 -133h57l68 -152q-4 39 -4 77v75h47v-223h-51q-20 39 -37 78.5t-35 76.5q2 -39 2 -77.5v-77.5h-47v223zM1393 1157q16 20 31.5 40t19.5 46h-2 q-37 -37 -49 -86zM1562.5 -268q-8.5 37 14.5 80q12 29 40 43t62 14h10.5t17.5 -2t16.5 -4t7.5 -4l-9 -41q-27 12 -48 8t-36.5 -18.5t-20.5 -37t3 -46.5q16 -47 61 -41q10 2 8.5 21.5t-1.5 27.5h-27v41h76v-121q-41 -16 -79 -9t-62.5 29.5t-33 59.5z" />
<glyph unicode="1" horiz-adv-x="1871" d="M35 813q70 37 137.5 67.5t144.5 53.5q4 0 8.5 20.5t8.5 45t8 48t8 31.5q23 35 68 53.5t78 34.5q88 35 179 61.5t183 51.5q94 23 188.5 39t190.5 24q33 4 80 8.5t95 3.5t92 -12.5t71 -37.5q2 -4 -2 -29t-6 -33l-6 -98q0 -4 4 -4q78 -23 152.5 -58.5t123.5 -103.5v-2 q-16 4 -36.5 -3t-41 -20.5t-38 -28t-27.5 -26.5q31 -16 50 -47t27.5 -66.5t6.5 -72.5t-13 -68q-16 43 -49.5 66.5t-74.5 35t-85 14.5t-83 5q-45 4 -94.5 2t-92.5 14q-16 6 -22 25.5t-7 43t2 46.5t5 37q-184 -14 -363.5 -56t-351.5 -102q-8 -2 -8 -6q2 -10 8 -33.5t10 -50.5 t6 -49.5t-6 -28.5q-23 -18 -58.5 -21t-64.5 -7q-39 -6 -78.5 -12.5t-78.5 -12.5q-35 -8 -67 -17.5t-62 -21.5q-14 -8 -28.5 -13t-29.5 -16q-8 -8 -18 -20t-17 -16q10 35 24.5 67.5t27.5 63.5q2 6 13 25.5t21.5 41t18.5 39t6 21.5q-25 35 -58.5 67.5t-78.5 36.5zM86 -133h47 q4 -41 7 -83t12 -83q4 41 10 83t14 83h37l25 -166q4 41 9 83t9 83h43l-43 -223h-43q-6 37 -11 73.5t-9 73.5q-4 -37 -11.5 -73.5t-13.5 -73.5h-43zM90 819q68 -37 109 -108q2 -2 -4.5 -15.5t-14.5 -29t-15 -28.5t-9 -20q-25 -45 -41 -94q51 27 104 39t108.5 20.5t110 15.5 t107.5 24q-18 18 -47 25t-62 8t-65.5 -2t-55.5 -5v131t4 131q-59 -16 -116.5 -39.5t-112.5 -52.5zM305 -133h45q4 -41 8 -83t11 -83q4 41 10 83t14 83h39l23 -166q4 41 9 83t9 83h43l-43 -223h-41q-8 37 -13 73.5t-9 73.5q-4 -37 -10.5 -73.5t-12.5 -73.5h-45zM342 709 q8 0 22.5 6t29 15t27.5 18.5t23 13.5q37 16 75 29.5t77 27.5q78 23 155.5 43.5t159.5 38.5q78 16 155 31.5t157 21.5q72 8 154.5 11.5t152.5 -29.5q6 55 6 112.5t4 110.5q0 29 2 57.5t6 57.5q2 14 -6 22.5t-20.5 13.5t-26.5 7t-27 4q-119 18 -245.5 1t-245.5 -42 q-129 -27 -255 -60.5t-249 -86.5q-23 -12 -46.5 -24.5t-43.5 -29.5q-20 -16 -24.5 -49t-8.5 -55q-8 -66 -8 -132.5v-133.5zM367 825q0 23 15 38.5t36 19.5q6 2 15 -2t5 -15q-12 -8 -22 -8q-12 -4 -16.5 -16.5t1.5 -22.5q4 -4 8.5 -5t8.5 -3q20 -2 33.5 11.5t22.5 34t13.5 41 t8.5 34.5q-27 -27 -62 -35q-27 -4 -43 12q-16 8 -16 37q0 27 12 51q27 61 86 99q12 6 25.5 12t27.5 10q10 4 21.5 12.5t21.5 10.5q12 -1 6 -13q12 0 21 -2q16 -2 27.5 -15t13.5 -32q6 -43 -23.5 -83t-66.5 -62q-18 -12 -27.5 -31.5t-18.5 -39t-20.5 -38t-34.5 -28.5 q-23 -16 -53 -11q-12 4 -20 14.5t-6 24.5zM405.5 937q2.5 -15 22.5 -15q31 0 49.5 19.5t30.5 47t18.5 58.5t10.5 51q-29 -6 -52.5 -23.5t-44.5 -38.5q-6 -6 -15 -25.5t-15.5 -39t-4 -34.5zM522 -133h45q4 -41 9.5 -83t9.5 -83q4 41 10 83t14 83h39l25 -166q2 41 7 83t11 83 h41l-41 -223h-43q-8 37 -12 73.5t-10 73.5q-4 -37 -10.5 -73.5t-12.5 -73.5h-43zM530 950q14 4 29.5 19.5t26 35t14.5 40t0 34.5q-6 23 -33 23q-14 -37 -20.5 -75t-16.5 -77zM582 138q2 34 2 61q0 20 -1 38.5t1 38.5q0 49 26.5 67.5t73.5 18.5q37 0 54.5 -20t23.5 -50 t4 -63.5t-2 -60.5v-80q0 -47 -26.5 -66.5t-71.5 -17.5q-39 0 -56.5 20.5t-23.5 50t-4 63.5zM628 952.5q-5 20.5 6 46t31.5 46t43.5 22.5q12 0 16 -10q8 -12 2 -29q-6 -23 -27.5 -40t-44.5 -21q2 -12 10.5 -13.5t17.5 3t17.5 10.5t12.5 10q25 20 36 46t21 52q2 2 -1 9.5 t-8 15.5t-8 17t-1 16q10 27 34 22q12 0 17 -12q4 -10 2 -22.5t-2 -24.5q20 2 28.5 -1t-4.5 -28q-8 -16 -17 -33.5t-11 -36.5q0 -10 6 -10q20 0 34.5 20.5t26 46t22.5 51t25 34.5q8 2 17 -2q2 -4 2 -13q-4 -12 -10.5 -21t-1.5 -24q6 -12 13 -25.5t5 -27.5h2q20 25 32.5 60.5 t45.5 52.5q37 14 49 -21q10 -14 6 -25.5t-2 -27.5q8 2 14 10q16 12 18.5 35t8.5 41q4 4 11 5t12 -1q10 -2 8 -12v-2q10 10 24 16q10 6 17.5 2t11.5 -14q4 -12 1 -22.5t-8 -21.5t-10 -22.5t-3 -23.5q14 12 24 26.5t18.5 29.5t17.5 28.5t26 23.5q20 10 51 0q4 6 17 8.5 t9 -14.5q-4 -18 -14 -38.5t-10 -41.5q0 -14 8 -2q20 20 30.5 48t19.5 55.5t23.5 53t43.5 42.5q14 8 24 -8q12 -23 4 -48.5t-24 -41.5q-14 -18 -43 -44t-25 -53q4 -16 23 -12q14 6 21 19.5t16 25.5q4 2 12 2t8 -10l-4 -12q-16 -39 -53 -54q-25 -14 -43 15q-4 4 -4 10 q-10 -8 -16.5 -15.5t-18.5 -11.5q-10 -4 -16.5 0t-12.5 8q-4 -4 -12 -8t-16 -6q-31 -6 -43 21v2q-8 -10 -17.5 -17.5t-23.5 -11.5q-14 -8 -25 12q-6 12 -3 23.5t8 22t9 21.5t2 23q-18 -8 -25 -19t-11.5 -25.5t-6.5 -29t-8 -28.5q-6 -16 -24 -8q-8 2 -9 10q0 4 1 9t1 7 q-14 -4 -19 -4t-15 -10t-24.5 -18.5t-31.5 -8.5q-10 2 -16 8.5t-10 14.5q-16 -16 -40 -32.5t-50 -12.5q-16 2 -25 18q-25 -29 -51 -36q-29 -12 -33 20q-4 27 8.5 44t22.5 38q2 4 -3 5t-7 -3q-8 -20 -18.5 -44t-26 -45.5t-36 -34.5t-46.5 -11q-31 2 -36 22.5zM638 163 q-1 -38 1 -75q0 -16 9 -26.5t21.5 -14.5t24 1t15.5 24q2 12 2 27.5v29.5v147q0 16 -10.5 27.5t-22.5 16t-23.5 -2t-15.5 -22.5q-2 -14 -1 -29.5t1 -27.5q0 -37 -1 -75zM653 416q12 14 15.5 36.5t2.5 48t-4 49t-3 42.5v125q0 16 1 30.5t-12 28.5h76q-14 -12 -12 -32.5 t2 -36.5v-142q0 -16 -2 -49t10 -47q14 -23 37.5 -8.5t28.5 33.5q8 27 2.5 54t-9.5 54q-4 14 -10 38t-8 48.5t2 46t21 33.5q10 10 31.5 10t29.5 -16q6 -16 -2 -21.5t-18.5 -4.5t-17.5 8.5t1 15.5q-16 -8 -17 -28.5t6 -44t17 -46.5t15 -35q12 -37 17 -87t-22 -85 q-10 -14 -33.5 -19t-50 -5t-53 3t-41.5 3zM655 987q12 -2 28.5 15.5t18.5 27.5q4 8 -2 12.5t-12 -2.5q-10 -10 -18.5 -24.5t-14.5 -28.5zM715 -328q0 14 9 22.5t21.5 8.5t21.5 -8t9 -23q0 -16 -9 -23t-21.5 -7t-21.5 7t-9 23zM776 1124q-2 -8 4 -20h4q0 8 1 13t-1 13 q-6 0 -8 -6zM780 4q10 14 13.5 34.5t2.5 44t-4.5 46.5t-3.5 39v172q0 10 -8 22h58q29 -12 51 -50t35 -66q0 25 2 59.5t-13 56.5h74q-12 -10 -11 -24t1 -29v-246q0 -14 -1 -31.5t11 -27.5h-207zM797 -356l59 223h64l59 -223h-51l-15 51h-53l-10 -51h-53zM844 47 q0 -14 11 -23.5t25.5 -11.5t28 3.5t15.5 19.5q-4 63 -21.5 127.5t-58.5 116.5v-232zM865 506.5q-3 19.5 7 32.5q10 12 33 13t27 -22q0 -10 -7 -15t-15.5 -5t-14.5 4t-6 14q-12 -4 -12 -14t7 -20.5t17 -19.5t17 -11q14 -4 34.5 -4t30.5 10q20 20 16 40.5t-19 38t-35.5 32 t-31.5 24.5q-18 16 -30.5 42t-12.5 52.5t13.5 48t44.5 27.5q27 6 54.5 4t51.5 -2l-6 -10q0 -14 7 -29.5t13.5 -31t5.5 -29.5t-16 -27q-14 -10 -33.5 -9t-21.5 22q0 12 7 17t15.5 5t14.5 -5t4 -13q14 2 14 12t-8 21.5t-18.5 20.5t-18.5 11q-14 4 -32.5 1t-24.5 -19 q-12 -25 -4 -43.5t24.5 -32.5t37 -27.5t32.5 -27.5q14 -20 22.5 -47t4.5 -52.5t-20.5 -44t-47.5 -22.5q-27 -2 -53.5 -1t-54.5 1q8 4 5 19.5t-8.5 33.5t-8.5 37.5zM866 -266h41q-4 23 -9 46t-11 46zM874 1014q4 -12 16.5 -10t14.5 14q2 18 -10 43q-6 -8 -14.5 -22.5 t-6.5 -24.5zM991 1059l4 -15q10 -14 25 -6q16 4 23.5 21.5t3.5 34.5q-2 10 -9.5 16t-21.5 -4q-20 -14 -25 -47zM997 4q12 14 15.5 36.5t2.5 47.5t-4 48.5t-3 39.5v127q0 16 1 29.5t-12 29.5h76q-10 -10 -13 -30.5t-2 -42t3 -43t2 -35.5v-166h104q23 0 55.5 -3t55.5 13 q-4 -8 -7 -29.5t-14 -21.5h-260zM1006 -135q29 4 64.5 6t62.5 -14q31 -23 22.5 -58t-37.5 -49q14 -6 21.5 -19.5t10.5 -28.5t5 -30.5t8 -27.5h-51q-6 12 -8 27.5t-6 28.5t-12.5 22.5t-26.5 7.5v-86h-53v221zM1057 -196.5q2 -24.5 2 -34.5h12q18 0 26.5 10t6.5 22.5 t-11.5 21.5t-27.5 7q-10 -2 -8 -26.5zM1065 416q10 12 11 25.5t1 27.5v248q0 14 -1 30.5t-11 28.5h127q25 -25 25.5 -59.5t-9.5 -67.5q-4 -8 -15 -29.5t-20.5 -45t-11.5 -45t10 -27.5q-6 12 4.5 13t21.5 -4t14 -14.5t-17 -17.5q-25 -10 -35 9.5t-8 35.5q0 16 6 32.5t8 31 t-4 22.5t-28 6v-155q16 0 41.5 -3t44.5 11q-6 -14 -8.5 -26.5t-6.5 -26.5h-139zM1098 362h78q-12 -29 2 -65.5t26 -60.5q12 29 22.5 62.5t0.5 63.5h80q-23 -12 -27 -38.5t-10 -47.5q-6 -20 -23.5 -47.5t-17.5 -48.5q0 -23 -3 -56.5t13 -51.5h-76q18 18 14.5 53.5t-3.5 58.5 q-12 23 -21.5 46.5t-17.5 45.5q-10 23 -14.5 46.5t-22.5 39.5zM1133 662q20 0 45.5 2t27.5 32q0 16 -7 23.5t-18.5 10.5t-24.5 3h-23v-71zM1192 -133h53v-223h-53v223zM1245 1092q-4 -10 1 -27.5t22 -3.5q12 12 21 33t11 39q-2 8 -4 13t-12 1q-16 -8 -25.5 -23.5 t-13.5 -31.5zM1274 -328q0 14 9 22.5t21.5 8.5t21.5 -8t9 -23q0 -16 -9 -23t-21.5 -7t-21.5 7t-9 23zM1294 813q-8 -6 4 -8q27 -10 57.5 -13.5t62.5 -3.5h62.5t59.5 -2t57.5 -5t57.5 -13q29 -8 51.5 -23.5t48.5 -27.5q0 61 -21.5 106t-80.5 68q35 31 69.5 58.5t75.5 43.5 q-49 47 -110.5 77t-126.5 46q-2 -57 -3.5 -112.5t-5.5 -112.5l-2 2v-6q-27 -2 -64.5 -4t-74.5 -9.5t-68.5 -21.5t-48.5 -39zM1364 -133h57l68 -152q-4 39 -4 77v75h47v-223h-51q-20 39 -37 78.5t-35 76.5q2 -39 2 -77.5v-77.5h-47v223zM1393 1157q16 20 31.5 40t19.5 46h-2 q-37 -37 -49 -86zM1562.5 -268q-8.5 37 14.5 80q12 29 40 43t62 14h10.5t17.5 -2t16.5 -4t7.5 -4l-9 -41q-27 12 -48 8t-36.5 -18.5t-20.5 -37t3 -46.5q16 -47 61 -41q10 2 8.5 21.5t-1.5 27.5h-27v41h76v-121q-41 -16 -79 -9t-62.5 29.5t-33 59.5z" />
<glyph unicode="2" horiz-adv-x="1871" d="M35 813q70 37 137.5 67.5t144.5 53.5q4 0 8.5 20.5t8.5 45t8 48t8 31.5q23 35 68 53.5t78 34.5q88 35 179 61.5t183 51.5q94 23 188.5 39t190.5 24q33 4 80 8.5t95 3.5t92 -12.5t71 -37.5q2 -4 -2 -29t-6 -33l-6 -98q0 -4 4 -4q78 -23 152.5 -58.5t123.5 -103.5v-2 q-16 4 -36.5 -3t-41 -20.5t-38 -28t-27.5 -26.5q31 -16 50 -47t27.5 -66.5t6.5 -72.5t-13 -68q-16 43 -49.5 66.5t-74.5 35t-85 14.5t-83 5q-45 4 -94.5 2t-92.5 14q-16 6 -22 25.5t-7 43t2 46.5t5 37q-184 -14 -363.5 -56t-351.5 -102q-8 -2 -8 -6q2 -10 8 -33.5t10 -50.5 t6 -49.5t-6 -28.5q-23 -18 -58.5 -21t-64.5 -7q-39 -6 -78.5 -12.5t-78.5 -12.5q-35 -8 -67 -17.5t-62 -21.5q-14 -8 -28.5 -13t-29.5 -16q-8 -8 -18 -20t-17 -16q10 35 24.5 67.5t27.5 63.5q2 6 13 25.5t21.5 41t18.5 39t6 21.5q-25 35 -58.5 67.5t-78.5 36.5zM86 -133h47 q4 -41 7 -83t12 -83q4 41 10 83t14 83h37l25 -166q4 41 9 83t9 83h43l-43 -223h-43q-6 37 -11 73.5t-9 73.5q-4 -37 -11.5 -73.5t-13.5 -73.5h-43zM90 819q68 -37 109 -108q2 -2 -4.5 -15.5t-14.5 -29t-15 -28.5t-9 -20q-25 -45 -41 -94q51 27 104 39t108.5 20.5t110 15.5 t107.5 24q-18 18 -47 25t-62 8t-65.5 -2t-55.5 -5v131t4 131q-59 -16 -116.5 -39.5t-112.5 -52.5zM305 -133h45q4 -41 8 -83t11 -83q4 41 10 83t14 83h39l23 -166q4 41 9 83t9 83h43l-43 -223h-41q-8 37 -13 73.5t-9 73.5q-4 -37 -10.5 -73.5t-12.5 -73.5h-45zM342 709 q8 0 22.5 6t29 15t27.5 18.5t23 13.5q37 16 75 29.5t77 27.5q78 23 155.5 43.5t159.5 38.5q78 16 155 31.5t157 21.5q72 8 154.5 11.5t152.5 -29.5q6 55 6 112.5t4 110.5q0 29 2 57.5t6 57.5q2 14 -6 22.5t-20.5 13.5t-26.5 7t-27 4q-119 18 -245.5 1t-245.5 -42 q-129 -27 -255 -60.5t-249 -86.5q-23 -12 -46.5 -24.5t-43.5 -29.5q-20 -16 -24.5 -49t-8.5 -55q-8 -66 -8 -132.5v-133.5zM367 825q0 23 15 38.5t36 19.5q6 2 15 -2t5 -15q-12 -8 -22 -8q-12 -4 -16.5 -16.5t1.5 -22.5q4 -4 8.5 -5t8.5 -3q20 -2 33.5 11.5t22.5 34t13.5 41 t8.5 34.5q-27 -27 -62 -35q-27 -4 -43 12q-16 8 -16 37q0 27 12 51q27 61 86 99q12 6 25.5 12t27.5 10q10 4 21.5 12.5t21.5 10.5q12 -1 6 -13q12 0 21 -2q16 -2 27.5 -15t13.5 -32q6 -43 -23.5 -83t-66.5 -62q-18 -12 -27.5 -31.5t-18.5 -39t-20.5 -38t-34.5 -28.5 q-23 -16 -53 -11q-12 4 -20 14.5t-6 24.5zM405.5 937q2.5 -15 22.5 -15q31 0 49.5 19.5t30.5 47t18.5 58.5t10.5 51q-29 -6 -52.5 -23.5t-44.5 -38.5q-6 -6 -15 -25.5t-15.5 -39t-4 -34.5zM522 -133h45q4 -41 9.5 -83t9.5 -83q4 41 10 83t14 83h39l25 -166q2 41 7 83t11 83 h41l-41 -223h-43q-8 37 -12 73.5t-10 73.5q-4 -37 -10.5 -73.5t-12.5 -73.5h-43zM530 950q14 4 29.5 19.5t26 35t14.5 40t0 34.5q-6 23 -33 23q-14 -37 -20.5 -75t-16.5 -77zM582 138q2 34 2 61q0 20 -1 38.5t1 38.5q0 49 26.5 67.5t73.5 18.5q37 0 54.5 -20t23.5 -50 t4 -63.5t-2 -60.5v-80q0 -47 -26.5 -66.5t-71.5 -17.5q-39 0 -56.5 20.5t-23.5 50t-4 63.5zM628 952.5q-5 20.5 6 46t31.5 46t43.5 22.5q12 0 16 -10q8 -12 2 -29q-6 -23 -27.5 -40t-44.5 -21q2 -12 10.5 -13.5t17.5 3t17.5 10.5t12.5 10q25 20 36 46t21 52q2 2 -1 9.5 t-8 15.5t-8 17t-1 16q10 27 34 22q12 0 17 -12q4 -10 2 -22.5t-2 -24.5q20 2 28.5 -1t-4.5 -28q-8 -16 -17 -33.5t-11 -36.5q0 -10 6 -10q20 0 34.5 20.5t26 46t22.5 51t25 34.5q8 2 17 -2q2 -4 2 -13q-4 -12 -10.5 -21t-1.5 -24q6 -12 13 -25.5t5 -27.5h2q20 25 32.5 60.5 t45.5 52.5q37 14 49 -21q10 -14 6 -25.5t-2 -27.5q8 2 14 10q16 12 18.5 35t8.5 41q4 4 11 5t12 -1q10 -2 8 -12v-2q10 10 24 16q10 6 17.5 2t11.5 -14q4 -12 1 -22.5t-8 -21.5t-10 -22.5t-3 -23.5q14 12 24 26.5t18.5 29.5t17.5 28.5t26 23.5q20 10 51 0q4 6 17 8.5 t9 -14.5q-4 -18 -14 -38.5t-10 -41.5q0 -14 8 -2q20 20 30.5 48t19.5 55.5t23.5 53t43.5 42.5q14 8 24 -8q12 -23 4 -48.5t-24 -41.5q-14 -18 -43 -44t-25 -53q4 -16 23 -12q14 6 21 19.5t16 25.5q4 2 12 2t8 -10l-4 -12q-16 -39 -53 -54q-25 -14 -43 15q-4 4 -4 10 q-10 -8 -16.5 -15.5t-18.5 -11.5q-10 -4 -16.5 0t-12.5 8q-4 -4 -12 -8t-16 -6q-31 -6 -43 21v2q-8 -10 -17.5 -17.5t-23.5 -11.5q-14 -8 -25 12q-6 12 -3 23.5t8 22t9 21.5t2 23q-18 -8 -25 -19t-11.5 -25.5t-6.5 -29t-8 -28.5q-6 -16 -24 -8q-8 2 -9 10q0 4 1 9t1 7 q-14 -4 -19 -4t-15 -10t-24.5 -18.5t-31.5 -8.5q-10 2 -16 8.5t-10 14.5q-16 -16 -40 -32.5t-50 -12.5q-16 2 -25 18q-25 -29 -51 -36q-29 -12 -33 20q-4 27 8.5 44t22.5 38q2 4 -3 5t-7 -3q-8 -20 -18.5 -44t-26 -45.5t-36 -34.5t-46.5 -11q-31 2 -36 22.5zM638 163 q-1 -38 1 -75q0 -16 9 -26.5t21.5 -14.5t24 1t15.5 24q2 12 2 27.5v29.5v147q0 16 -10.5 27.5t-22.5 16t-23.5 -2t-15.5 -22.5q-2 -14 -1 -29.5t1 -27.5q0 -37 -1 -75zM653 416q12 14 15.5 36.5t2.5 48t-4 49t-3 42.5v125q0 16 1 30.5t-12 28.5h76q-14 -12 -12 -32.5 t2 -36.5v-142q0 -16 -2 -49t10 -47q14 -23 37.5 -8.5t28.5 33.5q8 27 2.5 54t-9.5 54q-4 14 -10 38t-8 48.5t2 46t21 33.5q10 10 31.5 10t29.5 -16q6 -16 -2 -21.5t-18.5 -4.5t-17.5 8.5t1 15.5q-16 -8 -17 -28.5t6 -44t17 -46.5t15 -35q12 -37 17 -87t-22 -85 q-10 -14 -33.5 -19t-50 -5t-53 3t-41.5 3zM655 987q12 -2 28.5 15.5t18.5 27.5q4 8 -2 12.5t-12 -2.5q-10 -10 -18.5 -24.5t-14.5 -28.5zM715 -328q0 14 9 22.5t21.5 8.5t21.5 -8t9 -23q0 -16 -9 -23t-21.5 -7t-21.5 7t-9 23zM776 1124q-2 -8 4 -20h4q0 8 1 13t-1 13 q-6 0 -8 -6zM780 4q10 14 13.5 34.5t2.5 44t-4.5 46.5t-3.5 39v172q0 10 -8 22h58q29 -12 51 -50t35 -66q0 25 2 59.5t-13 56.5h74q-12 -10 -11 -24t1 -29v-246q0 -14 -1 -31.5t11 -27.5h-207zM797 -356l59 223h64l59 -223h-51l-15 51h-53l-10 -51h-53zM844 47 q0 -14 11 -23.5t25.5 -11.5t28 3.5t15.5 19.5q-4 63 -21.5 127.5t-58.5 116.5v-232zM865 506.5q-3 19.5 7 32.5q10 12 33 13t27 -22q0 -10 -7 -15t-15.5 -5t-14.5 4t-6 14q-12 -4 -12 -14t7 -20.5t17 -19.5t17 -11q14 -4 34.5 -4t30.5 10q20 20 16 40.5t-19 38t-35.5 32 t-31.5 24.5q-18 16 -30.5 42t-12.5 52.5t13.5 48t44.5 27.5q27 6 54.5 4t51.5 -2l-6 -10q0 -14 7 -29.5t13.5 -31t5.5 -29.5t-16 -27q-14 -10 -33.5 -9t-21.5 22q0 12 7 17t15.5 5t14.5 -5t4 -13q14 2 14 12t-8 21.5t-18.5 20.5t-18.5 11q-14 4 -32.5 1t-24.5 -19 q-12 -25 -4 -43.5t24.5 -32.5t37 -27.5t32.5 -27.5q14 -20 22.5 -47t4.5 -52.5t-20.5 -44t-47.5 -22.5q-27 -2 -53.5 -1t-54.5 1q8 4 5 19.5t-8.5 33.5t-8.5 37.5zM866 -266h41q-4 23 -9 46t-11 46zM874 1014q4 -12 16.5 -10t14.5 14q2 18 -10 43q-6 -8 -14.5 -22.5 t-6.5 -24.5zM991 1059l4 -15q10 -14 25 -6q16 4 23.5 21.5t3.5 34.5q-2 10 -9.5 16t-21.5 -4q-20 -14 -25 -47zM997 4q12 14 15.5 36.5t2.5 47.5t-4 48.5t-3 39.5v127q0 16 1 29.5t-12 29.5h76q-10 -10 -13 -30.5t-2 -42t3 -43t2 -35.5v-166h104q23 0 55.5 -3t55.5 13 q-4 -8 -7 -29.5t-14 -21.5h-260zM1006 -135q29 4 64.5 6t62.5 -14q31 -23 22.5 -58t-37.5 -49q14 -6 21.5 -19.5t10.5 -28.5t5 -30.5t8 -27.5h-51q-6 12 -8 27.5t-6 28.5t-12.5 22.5t-26.5 7.5v-86h-53v221zM1057 -196.5q2 -24.5 2 -34.5h12q18 0 26.5 10t6.5 22.5 t-11.5 21.5t-27.5 7q-10 -2 -8 -26.5zM1065 416q10 12 11 25.5t1 27.5v248q0 14 -1 30.5t-11 28.5h127q25 -25 25.5 -59.5t-9.5 -67.5q-4 -8 -15 -29.5t-20.5 -45t-11.5 -45t10 -27.5q-6 12 4.5 13t21.5 -4t14 -14.5t-17 -17.5q-25 -10 -35 9.5t-8 35.5q0 16 6 32.5t8 31 t-4 22.5t-28 6v-155q16 0 41.5 -3t44.5 11q-6 -14 -8.5 -26.5t-6.5 -26.5h-139zM1098 362h78q-12 -29 2 -65.5t26 -60.5q12 29 22.5 62.5t0.5 63.5h80q-23 -12 -27 -38.5t-10 -47.5q-6 -20 -23.5 -47.5t-17.5 -48.5q0 -23 -3 -56.5t13 -51.5h-76q18 18 14.5 53.5t-3.5 58.5 q-12 23 -21.5 46.5t-17.5 45.5q-10 23 -14.5 46.5t-22.5 39.5zM1133 662q20 0 45.5 2t27.5 32q0 16 -7 23.5t-18.5 10.5t-24.5 3h-23v-71zM1192 -133h53v-223h-53v223zM1245 1092q-4 -10 1 -27.5t22 -3.5q12 12 21 33t11 39q-2 8 -4 13t-12 1q-16 -8 -25.5 -23.5 t-13.5 -31.5zM1274 -328q0 14 9 22.5t21.5 8.5t21.5 -8t9 -23q0 -16 -9 -23t-21.5 -7t-21.5 7t-9 23zM1294 813q-8 -6 4 -8q27 -10 57.5 -13.5t62.5 -3.5h62.5t59.5 -2t57.5 -5t57.5 -13q29 -8 51.5 -23.5t48.5 -27.5q0 61 -21.5 106t-80.5 68q35 31 69.5 58.5t75.5 43.5 q-49 47 -110.5 77t-126.5 46q-2 -57 -3.5 -112.5t-5.5 -112.5l-2 2v-6q-27 -2 -64.5 -4t-74.5 -9.5t-68.5 -21.5t-48.5 -39zM1364 -133h57l68 -152q-4 39 -4 77v75h47v-223h-51q-20 39 -37 78.5t-35 76.5q2 -39 2 -77.5v-77.5h-47v223zM1393 1157q16 20 31.5 40t19.5 46h-2 q-37 -37 -49 -86zM1562.5 -268q-8.5 37 14.5 80q12 29 40 43t62 14h10.5t17.5 -2t16.5 -4t7.5 -4l-9 -41q-27 12 -48 8t-36.5 -18.5t-20.5 -37t3 -46.5q16 -47 61 -41q10 2 8.5 21.5t-1.5 27.5h-27v41h76v-121q-41 -16 -79 -9t-62.5 29.5t-33 59.5z" />
<glyph unicode="3" horiz-adv-x="1871" d="M35 813q70 37 137.5 67.5t144.5 53.5q4 0 8.5 20.5t8.5 45t8 48t8 31.5q23 35 68 53.5t78 34.5q88 35 179 61.5t183 51.5q94 23 188.5 39t190.5 24q33 4 80 8.5t95 3.5t92 -12.5t71 -37.5q2 -4 -2 -29t-6 -33l-6 -98q0 -4 4 -4q78 -23 152.5 -58.5t123.5 -103.5v-2 q-16 4 -36.5 -3t-41 -20.5t-38 -28t-27.5 -26.5q31 -16 50 -47t27.5 -66.5t6.5 -72.5t-13 -68q-16 43 -49.5 66.5t-74.5 35t-85 14.5t-83 5q-45 4 -94.5 2t-92.5 14q-16 6 -22 25.5t-7 43t2 46.5t5 37q-184 -14 -363.5 -56t-351.5 -102q-8 -2 -8 -6q2 -10 8 -33.5t10 -50.5 t6 -49.5t-6 -28.5q-23 -18 -58.5 -21t-64.5 -7q-39 -6 -78.5 -12.5t-78.5 -12.5q-35 -8 -67 -17.5t-62 -21.5q-14 -8 -28.5 -13t-29.5 -16q-8 -8 -18 -20t-17 -16q10 35 24.5 67.5t27.5 63.5q2 6 13 25.5t21.5 41t18.5 39t6 21.5q-25 35 -58.5 67.5t-78.5 36.5zM86 -133h47 q4 -41 7 -83t12 -83q4 41 10 83t14 83h37l25 -166q4 41 9 83t9 83h43l-43 -223h-43q-6 37 -11 73.5t-9 73.5q-4 -37 -11.5 -73.5t-13.5 -73.5h-43zM90 819q68 -37 109 -108q2 -2 -4.5 -15.5t-14.5 -29t-15 -28.5t-9 -20q-25 -45 -41 -94q51 27 104 39t108.5 20.5t110 15.5 t107.5 24q-18 18 -47 25t-62 8t-65.5 -2t-55.5 -5v131t4 131q-59 -16 -116.5 -39.5t-112.5 -52.5zM305 -133h45q4 -41 8 -83t11 -83q4 41 10 83t14 83h39l23 -166q4 41 9 83t9 83h43l-43 -223h-41q-8 37 -13 73.5t-9 73.5q-4 -37 -10.5 -73.5t-12.5 -73.5h-45zM342 709 q8 0 22.5 6t29 15t27.5 18.5t23 13.5q37 16 75 29.5t77 27.5q78 23 155.5 43.5t159.5 38.5q78 16 155 31.5t157 21.5q72 8 154.5 11.5t152.5 -29.5q6 55 6 112.5t4 110.5q0 29 2 57.5t6 57.5q2 14 -6 22.5t-20.5 13.5t-26.5 7t-27 4q-119 18 -245.5 1t-245.5 -42 q-129 -27 -255 -60.5t-249 -86.5q-23 -12 -46.5 -24.5t-43.5 -29.5q-20 -16 -24.5 -49t-8.5 -55q-8 -66 -8 -132.5v-133.5zM367 825q0 23 15 38.5t36 19.5q6 2 15 -2t5 -15q-12 -8 -22 -8q-12 -4 -16.5 -16.5t1.5 -22.5q4 -4 8.5 -5t8.5 -3q20 -2 33.5 11.5t22.5 34t13.5 41 t8.5 34.5q-27 -27 -62 -35q-27 -4 -43 12q-16 8 -16 37q0 27 12 51q27 61 86 99q12 6 25.5 12t27.5 10q10 4 21.5 12.5t21.5 10.5q12 -1 6 -13q12 0 21 -2q16 -2 27.5 -15t13.5 -32q6 -43 -23.5 -83t-66.5 -62q-18 -12 -27.5 -31.5t-18.5 -39t-20.5 -38t-34.5 -28.5 q-23 -16 -53 -11q-12 4 -20 14.5t-6 24.5zM405.5 937q2.5 -15 22.5 -15q31 0 49.5 19.5t30.5 47t18.5 58.5t10.5 51q-29 -6 -52.5 -23.5t-44.5 -38.5q-6 -6 -15 -25.5t-15.5 -39t-4 -34.5zM522 -133h45q4 -41 9.5 -83t9.5 -83q4 41 10 83t14 83h39l25 -166q2 41 7 83t11 83 h41l-41 -223h-43q-8 37 -12 73.5t-10 73.5q-4 -37 -10.5 -73.5t-12.5 -73.5h-43zM530 950q14 4 29.5 19.5t26 35t14.5 40t0 34.5q-6 23 -33 23q-14 -37 -20.5 -75t-16.5 -77zM582 138q2 34 2 61q0 20 -1 38.5t1 38.5q0 49 26.5 67.5t73.5 18.5q37 0 54.5 -20t23.5 -50 t4 -63.5t-2 -60.5v-80q0 -47 -26.5 -66.5t-71.5 -17.5q-39 0 -56.5 20.5t-23.5 50t-4 63.5zM628 952.5q-5 20.5 6 46t31.5 46t43.5 22.5q12 0 16 -10q8 -12 2 -29q-6 -23 -27.5 -40t-44.5 -21q2 -12 10.5 -13.5t17.5 3t17.5 10.5t12.5 10q25 20 36 46t21 52q2 2 -1 9.5 t-8 15.5t-8 17t-1 16q10 27 34 22q12 0 17 -12q4 -10 2 -22.5t-2 -24.5q20 2 28.5 -1t-4.5 -28q-8 -16 -17 -33.5t-11 -36.5q0 -10 6 -10q20 0 34.5 20.5t26 46t22.5 51t25 34.5q8 2 17 -2q2 -4 2 -13q-4 -12 -10.5 -21t-1.5 -24q6 -12 13 -25.5t5 -27.5h2q20 25 32.5 60.5 t45.5 52.5q37 14 49 -21q10 -14 6 -25.5t-2 -27.5q8 2 14 10q16 12 18.5 35t8.5 41q4 4 11 5t12 -1q10 -2 8 -12v-2q10 10 24 16q10 6 17.5 2t11.5 -14q4 -12 1 -22.5t-8 -21.5t-10 -22.5t-3 -23.5q14 12 24 26.5t18.5 29.5t17.5 28.5t26 23.5q20 10 51 0q4 6 17 8.5 t9 -14.5q-4 -18 -14 -38.5t-10 -41.5q0 -14 8 -2q20 20 30.5 48t19.5 55.5t23.5 53t43.5 42.5q14 8 24 -8q12 -23 4 -48.5t-24 -41.5q-14 -18 -43 -44t-25 -53q4 -16 23 -12q14 6 21 19.5t16 25.5q4 2 12 2t8 -10l-4 -12q-16 -39 -53 -54q-25 -14 -43 15q-4 4 -4 10 q-10 -8 -16.5 -15.5t-18.5 -11.5q-10 -4 -16.5 0t-12.5 8q-4 -4 -12 -8t-16 -6q-31 -6 -43 21v2q-8 -10 -17.5 -17.5t-23.5 -11.5q-14 -8 -25 12q-6 12 -3 23.5t8 22t9 21.5t2 23q-18 -8 -25 -19t-11.5 -25.5t-6.5 -29t-8 -28.5q-6 -16 -24 -8q-8 2 -9 10q0 4 1 9t1 7 q-14 -4 -19 -4t-15 -10t-24.5 -18.5t-31.5 -8.5q-10 2 -16 8.5t-10 14.5q-16 -16 -40 -32.5t-50 -12.5q-16 2 -25 18q-25 -29 -51 -36q-29 -12 -33 20q-4 27 8.5 44t22.5 38q2 4 -3 5t-7 -3q-8 -20 -18.5 -44t-26 -45.5t-36 -34.5t-46.5 -11q-31 2 -36 22.5zM638 163 q-1 -38 1 -75q0 -16 9 -26.5t21.5 -14.5t24 1t15.5 24q2 12 2 27.5v29.5v147q0 16 -10.5 27.5t-22.5 16t-23.5 -2t-15.5 -22.5q-2 -14 -1 -29.5t1 -27.5q0 -37 -1 -75zM653 416q12 14 15.5 36.5t2.5 48t-4 49t-3 42.5v125q0 16 1 30.5t-12 28.5h76q-14 -12 -12 -32.5 t2 -36.5v-142q0 -16 -2 -49t10 -47q14 -23 37.5 -8.5t28.5 33.5q8 27 2.5 54t-9.5 54q-4 14 -10 38t-8 48.5t2 46t21 33.5q10 10 31.5 10t29.5 -16q6 -16 -2 -21.5t-18.5 -4.5t-17.5 8.5t1 15.5q-16 -8 -17 -28.5t6 -44t17 -46.5t15 -35q12 -37 17 -87t-22 -85 q-10 -14 -33.5 -19t-50 -5t-53 3t-41.5 3zM655 987q12 -2 28.5 15.5t18.5 27.5q4 8 -2 12.5t-12 -2.5q-10 -10 -18.5 -24.5t-14.5 -28.5zM715 -328q0 14 9 22.5t21.5 8.5t21.5 -8t9 -23q0 -16 -9 -23t-21.5 -7t-21.5 7t-9 23zM776 1124q-2 -8 4 -20h4q0 8 1 13t-1 13 q-6 0 -8 -6zM780 4q10 14 13.5 34.5t2.5 44t-4.5 46.5t-3.5 39v172q0 10 -8 22h58q29 -12 51 -50t35 -66q0 25 2 59.5t-13 56.5h74q-12 -10 -11 -24t1 -29v-246q0 -14 -1 -31.5t11 -27.5h-207zM797 -356l59 223h64l59 -223h-51l-15 51h-53l-10 -51h-53zM844 47 q0 -14 11 -23.5t25.5 -11.5t28 3.5t15.5 19.5q-4 63 -21.5 127.5t-58.5 116.5v-232zM865 506.5q-3 19.5 7 32.5q10 12 33 13t27 -22q0 -10 -7 -15t-15.5 -5t-14.5 4t-6 14q-12 -4 -12 -14t7 -20.5t17 -19.5t17 -11q14 -4 34.5 -4t30.5 10q20 20 16 40.5t-19 38t-35.5 32 t-31.5 24.5q-18 16 -30.5 42t-12.5 52.5t13.5 48t44.5 27.5q27 6 54.5 4t51.5 -2l-6 -10q0 -14 7 -29.5t13.5 -31t5.5 -29.5t-16 -27q-14 -10 -33.5 -9t-21.5 22q0 12 7 17t15.5 5t14.5 -5t4 -13q14 2 14 12t-8 21.5t-18.5 20.5t-18.5 11q-14 4 -32.5 1t-24.5 -19 q-12 -25 -4 -43.5t24.5 -32.5t37 -27.5t32.5 -27.5q14 -20 22.5 -47t4.5 -52.5t-20.5 -44t-47.5 -22.5q-27 -2 -53.5 -1t-54.5 1q8 4 5 19.5t-8.5 33.5t-8.5 37.5zM866 -266h41q-4 23 -9 46t-11 46zM874 1014q4 -12 16.5 -10t14.5 14q2 18 -10 43q-6 -8 -14.5 -22.5 t-6.5 -24.5zM991 1059l4 -15q10 -14 25 -6q16 4 23.5 21.5t3.5 34.5q-2 10 -9.5 16t-21.5 -4q-20 -14 -25 -47zM997 4q12 14 15.5 36.5t2.5 47.5t-4 48.5t-3 39.5v127q0 16 1 29.5t-12 29.5h76q-10 -10 -13 -30.5t-2 -42t3 -43t2 -35.5v-166h104q23 0 55.5 -3t55.5 13 q-4 -8 -7 -29.5t-14 -21.5h-260zM1006 -135q29 4 64.5 6t62.5 -14q31 -23 22.5 -58t-37.5 -49q14 -6 21.5 -19.5t10.5 -28.5t5 -30.5t8 -27.5h-51q-6 12 -8 27.5t-6 28.5t-12.5 22.5t-26.5 7.5v-86h-53v221zM1057 -196.5q2 -24.5 2 -34.5h12q18 0 26.5 10t6.5 22.5 t-11.5 21.5t-27.5 7q-10 -2 -8 -26.5zM1065 416q10 12 11 25.5t1 27.5v248q0 14 -1 30.5t-11 28.5h127q25 -25 25.5 -59.5t-9.5 -67.5q-4 -8 -15 -29.5t-20.5 -45t-11.5 -45t10 -27.5q-6 12 4.5 13t21.5 -4t14 -14.5t-17 -17.5q-25 -10 -35 9.5t-8 35.5q0 16 6 32.5t8 31 t-4 22.5t-28 6v-155q16 0 41.5 -3t44.5 11q-6 -14 -8.5 -26.5t-6.5 -26.5h-139zM1098 362h78q-12 -29 2 -65.5t26 -60.5q12 29 22.5 62.5t0.5 63.5h80q-23 -12 -27 -38.5t-10 -47.5q-6 -20 -23.5 -47.5t-17.5 -48.5q0 -23 -3 -56.5t13 -51.5h-76q18 18 14.5 53.5t-3.5 58.5 q-12 23 -21.5 46.5t-17.5 45.5q-10 23 -14.5 46.5t-22.5 39.5zM1133 662q20 0 45.5 2t27.5 32q0 16 -7 23.5t-18.5 10.5t-24.5 3h-23v-71zM1192 -133h53v-223h-53v223zM1245 1092q-4 -10 1 -27.5t22 -3.5q12 12 21 33t11 39q-2 8 -4 13t-12 1q-16 -8 -25.5 -23.5 t-13.5 -31.5zM1274 -328q0 14 9 22.5t21.5 8.5t21.5 -8t9 -23q0 -16 -9 -23t-21.5 -7t-21.5 7t-9 23zM1294 813q-8 -6 4 -8q27 -10 57.5 -13.5t62.5 -3.5h62.5t59.5 -2t57.5 -5t57.5 -13q29 -8 51.5 -23.5t48.5 -27.5q0 61 -21.5 106t-80.5 68q35 31 69.5 58.5t75.5 43.5 q-49 47 -110.5 77t-126.5 46q-2 -57 -3.5 -112.5t-5.5 -112.5l-2 2v-6q-27 -2 -64.5 -4t-74.5 -9.5t-68.5 -21.5t-48.5 -39zM1364 -133h57l68 -152q-4 39 -4 77v75h47v-223h-51q-20 39 -37 78.5t-35 76.5q2 -39 2 -77.5v-77.5h-47v223zM1393 1157q16 20 31.5 40t19.5 46h-2 q-37 -37 -49 -86zM1562.5 -268q-8.5 37 14.5 80q12 29 40 43t62 14h10.5t17.5 -2t16.5 -4t7.5 -4l-9 -41q-27 12 -48 8t-36.5 -18.5t-20.5 -37t3 -46.5q16 -47 61 -41q10 2 8.5 21.5t-1.5 27.5h-27v41h76v-121q-41 -16 -79 -9t-62.5 29.5t-33 59.5z" />
<glyph unicode="4" horiz-adv-x="1871" d="M35 813q70 37 137.5 67.5t144.5 53.5q4 0 8.5 20.5t8.5 45t8 48t8 31.5q23 35 68 53.5t78 34.5q88 35 179 61.5t183 51.5q94 23 188.5 39t190.5 24q33 4 80 8.5t95 3.5t92 -12.5t71 -37.5q2 -4 -2 -29t-6 -33l-6 -98q0 -4 4 -4q78 -23 152.5 -58.5t123.5 -103.5v-2 q-16 4 -36.5 -3t-41 -20.5t-38 -28t-27.5 -26.5q31 -16 50 -47t27.5 -66.5t6.5 -72.5t-13 -68q-16 43 -49.5 66.5t-74.5 35t-85 14.5t-83 5q-45 4 -94.5 2t-92.5 14q-16 6 -22 25.5t-7 43t2 46.5t5 37q-184 -14 -363.5 -56t-351.5 -102q-8 -2 -8 -6q2 -10 8 -33.5t10 -50.5 t6 -49.5t-6 -28.5q-23 -18 -58.5 -21t-64.5 -7q-39 -6 -78.5 -12.5t-78.5 -12.5q-35 -8 -67 -17.5t-62 -21.5q-14 -8 -28.5 -13t-29.5 -16q-8 -8 -18 -20t-17 -16q10 35 24.5 67.5t27.5 63.5q2 6 13 25.5t21.5 41t18.5 39t6 21.5q-25 35 -58.5 67.5t-78.5 36.5zM86 -133h47 q4 -41 7 -83t12 -83q4 41 10 83t14 83h37l25 -166q4 41 9 83t9 83h43l-43 -223h-43q-6 37 -11 73.5t-9 73.5q-4 -37 -11.5 -73.5t-13.5 -73.5h-43zM90 819q68 -37 109 -108q2 -2 -4.5 -15.5t-14.5 -29t-15 -28.5t-9 -20q-25 -45 -41 -94q51 27 104 39t108.5 20.5t110 15.5 t107.5 24q-18 18 -47 25t-62 8t-65.5 -2t-55.5 -5v131t4 131q-59 -16 -116.5 -39.5t-112.5 -52.5zM305 -133h45q4 -41 8 -83t11 -83q4 41 10 83t14 83h39l23 -166q4 41 9 83t9 83h43l-43 -223h-41q-8 37 -13 73.5t-9 73.5q-4 -37 -10.5 -73.5t-12.5 -73.5h-45zM342 709 q8 0 22.5 6t29 15t27.5 18.5t23 13.5q37 16 75 29.5t77 27.5q78 23 155.5 43.5t159.5 38.5q78 16 155 31.5t157 21.5q72 8 154.5 11.5t152.5 -29.5q6 55 6 112.5t4 110.5q0 29 2 57.5t6 57.5q2 14 -6 22.5t-20.5 13.5t-26.5 7t-27 4q-119 18 -245.5 1t-245.5 -42 q-129 -27 -255 -60.5t-249 -86.5q-23 -12 -46.5 -24.5t-43.5 -29.5q-20 -16 -24.5 -49t-8.5 -55q-8 -66 -8 -132.5v-133.5zM367 825q0 23 15 38.5t36 19.5q6 2 15 -2t5 -15q-12 -8 -22 -8q-12 -4 -16.5 -16.5t1.5 -22.5q4 -4 8.5 -5t8.5 -3q20 -2 33.5 11.5t22.5 34t13.5 41 t8.5 34.5q-27 -27 -62 -35q-27 -4 -43 12q-16 8 -16 37q0 27 12 51q27 61 86 99q12 6 25.5 12t27.5 10q10 4 21.5 12.5t21.5 10.5q12 -1 6 -13q12 0 21 -2q16 -2 27.5 -15t13.5 -32q6 -43 -23.5 -83t-66.5 -62q-18 -12 -27.5 -31.5t-18.5 -39t-20.5 -38t-34.5 -28.5 q-23 -16 -53 -11q-12 4 -20 14.5t-6 24.5zM405.5 937q2.5 -15 22.5 -15q31 0 49.5 19.5t30.5 47t18.5 58.5t10.5 51q-29 -6 -52.5 -23.5t-44.5 -38.5q-6 -6 -15 -25.5t-15.5 -39t-4 -34.5zM522 -133h45q4 -41 9.5 -83t9.5 -83q4 41 10 83t14 83h39l25 -166q2 41 7 83t11 83 h41l-41 -223h-43q-8 37 -12 73.5t-10 73.5q-4 -37 -10.5 -73.5t-12.5 -73.5h-43zM530 950q14 4 29.5 19.5t26 35t14.5 40t0 34.5q-6 23 -33 23q-14 -37 -20.5 -75t-16.5 -77zM582 138q2 34 2 61q0 20 -1 38.5t1 38.5q0 49 26.5 67.5t73.5 18.5q37 0 54.5 -20t23.5 -50 t4 -63.5t-2 -60.5v-80q0 -47 -26.5 -66.5t-71.5 -17.5q-39 0 -56.5 20.5t-23.5 50t-4 63.5zM628 952.5q-5 20.5 6 46t31.5 46t43.5 22.5q12 0 16 -10q8 -12 2 -29q-6 -23 -27.5 -40t-44.5 -21q2 -12 10.5 -13.5t17.5 3t17.5 10.5t12.5 10q25 20 36 46t21 52q2 2 -1 9.5 t-8 15.5t-8 17t-1 16q10 27 34 22q12 0 17 -12q4 -10 2 -22.5t-2 -24.5q20 2 28.5 -1t-4.5 -28q-8 -16 -17 -33.5t-11 -36.5q0 -10 6 -10q20 0 34.5 20.5t26 46t22.5 51t25 34.5q8 2 17 -2q2 -4 2 -13q-4 -12 -10.5 -21t-1.5 -24q6 -12 13 -25.5t5 -27.5h2q20 25 32.5 60.5 t45.5 52.5q37 14 49 -21q10 -14 6 -25.5t-2 -27.5q8 2 14 10q16 12 18.5 35t8.5 41q4 4 11 5t12 -1q10 -2 8 -12v-2q10 10 24 16q10 6 17.5 2t11.5 -14q4 -12 1 -22.5t-8 -21.5t-10 -22.5t-3 -23.5q14 12 24 26.5t18.5 29.5t17.5 28.5t26 23.5q20 10 51 0q4 6 17 8.5 t9 -14.5q-4 -18 -14 -38.5t-10 -41.5q0 -14 8 -2q20 20 30.5 48t19.5 55.5t23.5 53t43.5 42.5q14 8 24 -8q12 -23 4 -48.5t-24 -41.5q-14 -18 -43 -44t-25 -53q4 -16 23 -12q14 6 21 19.5t16 25.5q4 2 12 2t8 -10l-4 -12q-16 -39 -53 -54q-25 -14 -43 15q-4 4 -4 10 q-10 -8 -16.5 -15.5t-18.5 -11.5q-10 -4 -16.5 0t-12.5 8q-4 -4 -12 -8t-16 -6q-31 -6 -43 21v2q-8 -10 -17.5 -17.5t-23.5 -11.5q-14 -8 -25 12q-6 12 -3 23.5t8 22t9 21.5t2 23q-18 -8 -25 -19t-11.5 -25.5t-6.5 -29t-8 -28.5q-6 -16 -24 -8q-8 2 -9 10q0 4 1 9t1 7 q-14 -4 -19 -4t-15 -10t-24.5 -18.5t-31.5 -8.5q-10 2 -16 8.5t-10 14.5q-16 -16 -40 -32.5t-50 -12.5q-16 2 -25 18q-25 -29 -51 -36q-29 -12 -33 20q-4 27 8.5 44t22.5 38q2 4 -3 5t-7 -3q-8 -20 -18.5 -44t-26 -45.5t-36 -34.5t-46.5 -11q-31 2 -36 22.5zM638 163 q-1 -38 1 -75q0 -16 9 -26.5t21.5 -14.5t24 1t15.5 24q2 12 2 27.5v29.5v147q0 16 -10.5 27.5t-22.5 16t-23.5 -2t-15.5 -22.5q-2 -14 -1 -29.5t1 -27.5q0 -37 -1 -75zM653 416q12 14 15.5 36.5t2.5 48t-4 49t-3 42.5v125q0 16 1 30.5t-12 28.5h76q-14 -12 -12 -32.5 t2 -36.5v-142q0 -16 -2 -49t10 -47q14 -23 37.5 -8.5t28.5 33.5q8 27 2.5 54t-9.5 54q-4 14 -10 38t-8 48.5t2 46t21 33.5q10 10 31.5 10t29.5 -16q6 -16 -2 -21.5t-18.5 -4.5t-17.5 8.5t1 15.5q-16 -8 -17 -28.5t6 -44t17 -46.5t15 -35q12 -37 17 -87t-22 -85 q-10 -14 -33.5 -19t-50 -5t-53 3t-41.5 3zM655 987q12 -2 28.5 15.5t18.5 27.5q4 8 -2 12.5t-12 -2.5q-10 -10 -18.5 -24.5t-14.5 -28.5zM715 -328q0 14 9 22.5t21.5 8.5t21.5 -8t9 -23q0 -16 -9 -23t-21.5 -7t-21.5 7t-9 23zM776 1124q-2 -8 4 -20h4q0 8 1 13t-1 13 q-6 0 -8 -6zM780 4q10 14 13.5 34.5t2.5 44t-4.5 46.5t-3.5 39v172q0 10 -8 22h58q29 -12 51 -50t35 -66q0 25 2 59.5t-13 56.5h74q-12 -10 -11 -24t1 -29v-246q0 -14 -1 -31.5t11 -27.5h-207zM797 -356l59 223h64l59 -223h-51l-15 51h-53l-10 -51h-53zM844 47 q0 -14 11 -23.5t25.5 -11.5t28 3.5t15.5 19.5q-4 63 -21.5 127.5t-58.5 116.5v-232zM865 506.5q-3 19.5 7 32.5q10 12 33 13t27 -22q0 -10 -7 -15t-15.5 -5t-14.5 4t-6 14q-12 -4 -12 -14t7 -20.5t17 -19.5t17 -11q14 -4 34.5 -4t30.5 10q20 20 16 40.5t-19 38t-35.5 32 t-31.5 24.5q-18 16 -30.5 42t-12.5 52.5t13.5 48t44.5 27.5q27 6 54.5 4t51.5 -2l-6 -10q0 -14 7 -29.5t13.5 -31t5.5 -29.5t-16 -27q-14 -10 -33.5 -9t-21.5 22q0 12 7 17t15.5 5t14.5 -5t4 -13q14 2 14 12t-8 21.5t-18.5 20.5t-18.5 11q-14 4 -32.5 1t-24.5 -19 q-12 -25 -4 -43.5t24.5 -32.5t37 -27.5t32.5 -27.5q14 -20 22.5 -47t4.5 -52.5t-20.5 -44t-47.5 -22.5q-27 -2 -53.5 -1t-54.5 1q8 4 5 19.5t-8.5 33.5t-8.5 37.5zM866 -266h41q-4 23 -9 46t-11 46zM874 1014q4 -12 16.5 -10t14.5 14q2 18 -10 43q-6 -8 -14.5 -22.5 t-6.5 -24.5zM991 1059l4 -15q10 -14 25 -6q16 4 23.5 21.5t3.5 34.5q-2 10 -9.5 16t-21.5 -4q-20 -14 -25 -47zM997 4q12 14 15.5 36.5t2.5 47.5t-4 48.5t-3 39.5v127q0 16 1 29.5t-12 29.5h76q-10 -10 -13 -30.5t-2 -42t3 -43t2 -35.5v-166h104q23 0 55.5 -3t55.5 13 q-4 -8 -7 -29.5t-14 -21.5h-260zM1006 -135q29 4 64.5 6t62.5 -14q31 -23 22.5 -58t-37.5 -49q14 -6 21.5 -19.5t10.5 -28.5t5 -30.5t8 -27.5h-51q-6 12 -8 27.5t-6 28.5t-12.5 22.5t-26.5 7.5v-86h-53v221zM1057 -196.5q2 -24.5 2 -34.5h12q18 0 26.5 10t6.5 22.5 t-11.5 21.5t-27.5 7q-10 -2 -8 -26.5zM1065 416q10 12 11 25.5t1 27.5v248q0 14 -1 30.5t-11 28.5h127q25 -25 25.5 -59.5t-9.5 -67.5q-4 -8 -15 -29.5t-20.5 -45t-11.5 -45t10 -27.5q-6 12 4.5 13t21.5 -4t14 -14.5t-17 -17.5q-25 -10 -35 9.5t-8 35.5q0 16 6 32.5t8 31 t-4 22.5t-28 6v-155q16 0 41.5 -3t44.5 11q-6 -14 -8.5 -26.5t-6.5 -26.5h-139zM1098 362h78q-12 -29 2 -65.5t26 -60.5q12 29 22.5 62.5t0.5 63.5h80q-23 -12 -27 -38.5t-10 -47.5q-6 -20 -23.5 -47.5t-17.5 -48.5q0 -23 -3 -56.5t13 -51.5h-76q18 18 14.5 53.5t-3.5 58.5 q-12 23 -21.5 46.5t-17.5 45.5q-10 23 -14.5 46.5t-22.5 39.5zM1133 662q20 0 45.5 2t27.5 32q0 16 -7 23.5t-18.5 10.5t-24.5 3h-23v-71zM1192 -133h53v-223h-53v223zM1245 1092q-4 -10 1 -27.5t22 -3.5q12 12 21 33t11 39q-2 8 -4 13t-12 1q-16 -8 -25.5 -23.5 t-13.5 -31.5zM1274 -328q0 14 9 22.5t21.5 8.5t21.5 -8t9 -23q0 -16 -9 -23t-21.5 -7t-21.5 7t-9 23zM1294 813q-8 -6 4 -8q27 -10 57.5 -13.5t62.5 -3.5h62.5t59.5 -2t57.5 -5t57.5 -13q29 -8 51.5 -23.5t48.5 -27.5q0 61 -21.5 106t-80.5 68q35 31 69.5 58.5t75.5 43.5 q-49 47 -110.5 77t-126.5 46q-2 -57 -3.5 -112.5t-5.5 -112.5l-2 2v-6q-27 -2 -64.5 -4t-74.5 -9.5t-68.5 -21.5t-48.5 -39zM1364 -133h57l68 -152q-4 39 -4 77v75h47v-223h-51q-20 39 -37 78.5t-35 76.5q2 -39 2 -77.5v-77.5h-47v223zM1393 1157q16 20 31.5 40t19.5 46h-2 q-37 -37 -49 -86zM1562.5 -268q-8.5 37 14.5 80q12 29 40 43t62 14h10.5t17.5 -2t16.5 -4t7.5 -4l-9 -41q-27 12 -48 8t-36.5 -18.5t-20.5 -37t3 -46.5q16 -47 61 -41q10 2 8.5 21.5t-1.5 27.5h-27v41h76v-121q-41 -16 -79 -9t-62.5 29.5t-33 59.5z" />
<glyph unicode="5" horiz-adv-x="1871" d="M35 813q70 37 137.5 67.5t144.5 53.5q4 0 8.5 20.5t8.5 45t8 48t8 31.5q23 35 68 53.5t78 34.5q88 35 179 61.5t183 51.5q94 23 188.5 39t190.5 24q33 4 80 8.5t95 3.5t92 -12.5t71 -37.5q2 -4 -2 -29t-6 -33l-6 -98q0 -4 4 -4q78 -23 152.5 -58.5t123.5 -103.5v-2 q-16 4 -36.5 -3t-41 -20.5t-38 -28t-27.5 -26.5q31 -16 50 -47t27.5 -66.5t6.5 -72.5t-13 -68q-16 43 -49.5 66.5t-74.5 35t-85 14.5t-83 5q-45 4 -94.5 2t-92.5 14q-16 6 -22 25.5t-7 43t2 46.5t5 37q-184 -14 -363.5 -56t-351.5 -102q-8 -2 -8 -6q2 -10 8 -33.5t10 -50.5 t6 -49.5t-6 -28.5q-23 -18 -58.5 -21t-64.5 -7q-39 -6 -78.5 -12.5t-78.5 -12.5q-35 -8 -67 -17.5t-62 -21.5q-14 -8 -28.5 -13t-29.5 -16q-8 -8 -18 -20t-17 -16q10 35 24.5 67.5t27.5 63.5q2 6 13 25.5t21.5 41t18.5 39t6 21.5q-25 35 -58.5 67.5t-78.5 36.5zM86 -133h47 q4 -41 7 -83t12 -83q4 41 10 83t14 83h37l25 -166q4 41 9 83t9 83h43l-43 -223h-43q-6 37 -11 73.5t-9 73.5q-4 -37 -11.5 -73.5t-13.5 -73.5h-43zM90 819q68 -37 109 -108q2 -2 -4.5 -15.5t-14.5 -29t-15 -28.5t-9 -20q-25 -45 -41 -94q51 27 104 39t108.5 20.5t110 15.5 t107.5 24q-18 18 -47 25t-62 8t-65.5 -2t-55.5 -5v131t4 131q-59 -16 -116.5 -39.5t-112.5 -52.5zM305 -133h45q4 -41 8 -83t11 -83q4 41 10 83t14 83h39l23 -166q4 41 9 83t9 83h43l-43 -223h-41q-8 37 -13 73.5t-9 73.5q-4 -37 -10.5 -73.5t-12.5 -73.5h-45zM342 709 q8 0 22.5 6t29 15t27.5 18.5t23 13.5q37 16 75 29.5t77 27.5q78 23 155.5 43.5t159.5 38.5q78 16 155 31.5t157 21.5q72 8 154.5 11.5t152.5 -29.5q6 55 6 112.5t4 110.5q0 29 2 57.5t6 57.5q2 14 -6 22.5t-20.5 13.5t-26.5 7t-27 4q-119 18 -245.5 1t-245.5 -42 q-129 -27 -255 -60.5t-249 -86.5q-23 -12 -46.5 -24.5t-43.5 -29.5q-20 -16 -24.5 -49t-8.5 -55q-8 -66 -8 -132.5v-133.5zM367 825q0 23 15 38.5t36 19.5q6 2 15 -2t5 -15q-12 -8 -22 -8q-12 -4 -16.5 -16.5t1.5 -22.5q4 -4 8.5 -5t8.5 -3q20 -2 33.5 11.5t22.5 34t13.5 41 t8.5 34.5q-27 -27 -62 -35q-27 -4 -43 12q-16 8 -16 37q0 27 12 51q27 61 86 99q12 6 25.5 12t27.5 10q10 4 21.5 12.5t21.5 10.5q12 -1 6 -13q12 0 21 -2q16 -2 27.5 -15t13.5 -32q6 -43 -23.5 -83t-66.5 -62q-18 -12 -27.5 -31.5t-18.5 -39t-20.5 -38t-34.5 -28.5 q-23 -16 -53 -11q-12 4 -20 14.5t-6 24.5zM405.5 937q2.5 -15 22.5 -15q31 0 49.5 19.5t30.5 47t18.5 58.5t10.5 51q-29 -6 -52.5 -23.5t-44.5 -38.5q-6 -6 -15 -25.5t-15.5 -39t-4 -34.5zM522 -133h45q4 -41 9.5 -83t9.5 -83q4 41 10 83t14 83h39l25 -166q2 41 7 83t11 83 h41l-41 -223h-43q-8 37 -12 73.5t-10 73.5q-4 -37 -10.5 -73.5t-12.5 -73.5h-43zM530 950q14 4 29.5 19.5t26 35t14.5 40t0 34.5q-6 23 -33 23q-14 -37 -20.5 -75t-16.5 -77zM582 138q2 34 2 61q0 20 -1 38.5t1 38.5q0 49 26.5 67.5t73.5 18.5q37 0 54.5 -20t23.5 -50 t4 -63.5t-2 -60.5v-80q0 -47 -26.5 -66.5t-71.5 -17.5q-39 0 -56.5 20.5t-23.5 50t-4 63.5zM628 952.5q-5 20.5 6 46t31.5 46t43.5 22.5q12 0 16 -10q8 -12 2 -29q-6 -23 -27.5 -40t-44.5 -21q2 -12 10.5 -13.5t17.5 3t17.5 10.5t12.5 10q25 20 36 46t21 52q2 2 -1 9.5 t-8 15.5t-8 17t-1 16q10 27 34 22q12 0 17 -12q4 -10 2 -22.5t-2 -24.5q20 2 28.5 -1t-4.5 -28q-8 -16 -17 -33.5t-11 -36.5q0 -10 6 -10q20 0 34.5 20.5t26 46t22.5 51t25 34.5q8 2 17 -2q2 -4 2 -13q-4 -12 -10.5 -21t-1.5 -24q6 -12 13 -25.5t5 -27.5h2q20 25 32.5 60.5 t45.5 52.5q37 14 49 -21q10 -14 6 -25.5t-2 -27.5q8 2 14 10q16 12 18.5 35t8.5 41q4 4 11 5t12 -1q10 -2 8 -12v-2q10 10 24 16q10 6 17.5 2t11.5 -14q4 -12 1 -22.5t-8 -21.5t-10 -22.5t-3 -23.5q14 12 24 26.5t18.5 29.5t17.5 28.5t26 23.5q20 10 51 0q4 6 17 8.5 t9 -14.5q-4 -18 -14 -38.5t-10 -41.5q0 -14 8 -2q20 20 30.5 48t19.5 55.5t23.5 53t43.5 42.5q14 8 24 -8q12 -23 4 -48.5t-24 -41.5q-14 -18 -43 -44t-25 -53q4 -16 23 -12q14 6 21 19.5t16 25.5q4 2 12 2t8 -10l-4 -12q-16 -39 -53 -54q-25 -14 -43 15q-4 4 -4 10 q-10 -8 -16.5 -15.5t-18.5 -11.5q-10 -4 -16.5 0t-12.5 8q-4 -4 -12 -8t-16 -6q-31 -6 -43 21v2q-8 -10 -17.5 -17.5t-23.5 -11.5q-14 -8 -25 12q-6 12 -3 23.5t8 22t9 21.5t2 23q-18 -8 -25 -19t-11.5 -25.5t-6.5 -29t-8 -28.5q-6 -16 -24 -8q-8 2 -9 10q0 4 1 9t1 7 q-14 -4 -19 -4t-15 -10t-24.5 -18.5t-31.5 -8.5q-10 2 -16 8.5t-10 14.5q-16 -16 -40 -32.5t-50 -12.5q-16 2 -25 18q-25 -29 -51 -36q-29 -12 -33 20q-4 27 8.5 44t22.5 38q2 4 -3 5t-7 -3q-8 -20 -18.5 -44t-26 -45.5t-36 -34.5t-46.5 -11q-31 2 -36 22.5zM638 163 q-1 -38 1 -75q0 -16 9 -26.5t21.5 -14.5t24 1t15.5 24q2 12 2 27.5v29.5v147q0 16 -10.5 27.5t-22.5 16t-23.5 -2t-15.5 -22.5q-2 -14 -1 -29.5t1 -27.5q0 -37 -1 -75zM653 416q12 14 15.5 36.5t2.5 48t-4 49t-3 42.5v125q0 16 1 30.5t-12 28.5h76q-14 -12 -12 -32.5 t2 -36.5v-142q0 -16 -2 -49t10 -47q14 -23 37.5 -8.5t28.5 33.5q8 27 2.5 54t-9.5 54q-4 14 -10 38t-8 48.5t2 46t21 33.5q10 10 31.5 10t29.5 -16q6 -16 -2 -21.5t-18.5 -4.5t-17.5 8.5t1 15.5q-16 -8 -17 -28.5t6 -44t17 -46.5t15 -35q12 -37 17 -87t-22 -85 q-10 -14 -33.5 -19t-50 -5t-53 3t-41.5 3zM655 987q12 -2 28.5 15.5t18.5 27.5q4 8 -2 12.5t-12 -2.5q-10 -10 -18.5 -24.5t-14.5 -28.5zM715 -328q0 14 9 22.5t21.5 8.5t21.5 -8t9 -23q0 -16 -9 -23t-21.5 -7t-21.5 7t-9 23zM776 1124q-2 -8 4 -20h4q0 8 1 13t-1 13 q-6 0 -8 -6zM780 4q10 14 13.5 34.5t2.5 44t-4.5 46.5t-3.5 39v172q0 10 -8 22h58q29 -12 51 -50t35 -66q0 25 2 59.5t-13 56.5h74q-12 -10 -11 -24t1 -29v-246q0 -14 -1 -31.5t11 -27.5h-207zM797 -356l59 223h64l59 -223h-51l-15 51h-53l-10 -51h-53zM844 47 q0 -14 11 -23.5t25.5 -11.5t28 3.5t15.5 19.5q-4 63 -21.5 127.5t-58.5 116.5v-232zM865 506.5q-3 19.5 7 32.5q10 12 33 13t27 -22q0 -10 -7 -15t-15.5 -5t-14.5 4t-6 14q-12 -4 -12 -14t7 -20.5t17 -19.5t17 -11q14 -4 34.5 -4t30.5 10q20 20 16 40.5t-19 38t-35.5 32 t-31.5 24.5q-18 16 -30.5 42t-12.5 52.5t13.5 48t44.5 27.5q27 6 54.5 4t51.5 -2l-6 -10q0 -14 7 -29.5t13.5 -31t5.5 -29.5t-16 -27q-14 -10 -33.5 -9t-21.5 22q0 12 7 17t15.5 5t14.5 -5t4 -13q14 2 14 12t-8 21.5t-18.5 20.5t-18.5 11q-14 4 -32.5 1t-24.5 -19 q-12 -25 -4 -43.5t24.5 -32.5t37 -27.5t32.5 -27.5q14 -20 22.5 -47t4.5 -52.5t-20.5 -44t-47.5 -22.5q-27 -2 -53.5 -1t-54.5 1q8 4 5 19.5t-8.5 33.5t-8.5 37.5zM866 -266h41q-4 23 -9 46t-11 46zM874 1014q4 -12 16.5 -10t14.5 14q2 18 -10 43q-6 -8 -14.5 -22.5 t-6.5 -24.5zM991 1059l4 -15q10 -14 25 -6q16 4 23.5 21.5t3.5 34.5q-2 10 -9.5 16t-21.5 -4q-20 -14 -25 -47zM997 4q12 14 15.5 36.5t2.5 47.5t-4 48.5t-3 39.5v127q0 16 1 29.5t-12 29.5h76q-10 -10 -13 -30.5t-2 -42t3 -43t2 -35.5v-166h104q23 0 55.5 -3t55.5 13 q-4 -8 -7 -29.5t-14 -21.5h-260zM1006 -135q29 4 64.5 6t62.5 -14q31 -23 22.5 -58t-37.5 -49q14 -6 21.5 -19.5t10.5 -28.5t5 -30.5t8 -27.5h-51q-6 12 -8 27.5t-6 28.5t-12.5 22.5t-26.5 7.5v-86h-53v221zM1057 -196.5q2 -24.5 2 -34.5h12q18 0 26.5 10t6.5 22.5 t-11.5 21.5t-27.5 7q-10 -2 -8 -26.5zM1065 416q10 12 11 25.5t1 27.5v248q0 14 -1 30.5t-11 28.5h127q25 -25 25.5 -59.5t-9.5 -67.5q-4 -8 -15 -29.5t-20.5 -45t-11.5 -45t10 -27.5q-6 12 4.5 13t21.5 -4t14 -14.5t-17 -17.5q-25 -10 -35 9.5t-8 35.5q0 16 6 32.5t8 31 t-4 22.5t-28 6v-155q16 0 41.5 -3t44.5 11q-6 -14 -8.5 -26.5t-6.5 -26.5h-139zM1098 362h78q-12 -29 2 -65.5t26 -60.5q12 29 22.5 62.5t0.5 63.5h80q-23 -12 -27 -38.5t-10 -47.5q-6 -20 -23.5 -47.5t-17.5 -48.5q0 -23 -3 -56.5t13 -51.5h-76q18 18 14.5 53.5t-3.5 58.5 q-12 23 -21.5 46.5t-17.5 45.5q-10 23 -14.5 46.5t-22.5 39.5zM1133 662q20 0 45.5 2t27.5 32q0 16 -7 23.5t-18.5 10.5t-24.5 3h-23v-71zM1192 -133h53v-223h-53v223zM1245 1092q-4 -10 1 -27.5t22 -3.5q12 12 21 33t11 39q-2 8 -4 13t-12 1q-16 -8 -25.5 -23.5 t-13.5 -31.5zM1274 -328q0 14 9 22.5t21.5 8.5t21.5 -8t9 -23q0 -16 -9 -23t-21.5 -7t-21.5 7t-9 23zM1294 813q-8 -6 4 -8q27 -10 57.5 -13.5t62.5 -3.5h62.5t59.5 -2t57.5 -5t57.5 -13q29 -8 51.5 -23.5t48.5 -27.5q0 61 -21.5 106t-80.5 68q35 31 69.5 58.5t75.5 43.5 q-49 47 -110.5 77t-126.5 46q-2 -57 -3.5 -112.5t-5.5 -112.5l-2 2v-6q-27 -2 -64.5 -4t-74.5 -9.5t-68.5 -21.5t-48.5 -39zM1364 -133h57l68 -152q-4 39 -4 77v75h47v-223h-51q-20 39 -37 78.5t-35 76.5q2 -39 2 -77.5v-77.5h-47v223zM1393 1157q16 20 31.5 40t19.5 46h-2 q-37 -37 -49 -86zM1562.5 -268q-8.5 37 14.5 80q12 29 40 43t62 14h10.5t17.5 -2t16.5 -4t7.5 -4l-9 -41q-27 12 -48 8t-36.5 -18.5t-20.5 -37t3 -46.5q16 -47 61 -41q10 2 8.5 21.5t-1.5 27.5h-27v41h76v-121q-41 -16 -79 -9t-62.5 29.5t-33 59.5z" />
<glyph unicode="6" horiz-adv-x="1871" d="M35 813q70 37 137.5 67.5t144.5 53.5q4 0 8.5 20.5t8.5 45t8 48t8 31.5q23 35 68 53.5t78 34.5q88 35 179 61.5t183 51.5q94 23 188.5 39t190.5 24q33 4 80 8.5t95 3.5t92 -12.5t71 -37.5q2 -4 -2 -29t-6 -33l-6 -98q0 -4 4 -4q78 -23 152.5 -58.5t123.5 -103.5v-2 q-16 4 -36.5 -3t-41 -20.5t-38 -28t-27.5 -26.5q31 -16 50 -47t27.5 -66.5t6.5 -72.5t-13 -68q-16 43 -49.5 66.5t-74.5 35t-85 14.5t-83 5q-45 4 -94.5 2t-92.5 14q-16 6 -22 25.5t-7 43t2 46.5t5 37q-184 -14 -363.5 -56t-351.5 -102q-8 -2 -8 -6q2 -10 8 -33.5t10 -50.5 t6 -49.5t-6 -28.5q-23 -18 -58.5 -21t-64.5 -7q-39 -6 -78.5 -12.5t-78.5 -12.5q-35 -8 -67 -17.5t-62 -21.5q-14 -8 -28.5 -13t-29.5 -16q-8 -8 -18 -20t-17 -16q10 35 24.5 67.5t27.5 63.5q2 6 13 25.5t21.5 41t18.5 39t6 21.5q-25 35 -58.5 67.5t-78.5 36.5zM86 -133h47 q4 -41 7 -83t12 -83q4 41 10 83t14 83h37l25 -166q4 41 9 83t9 83h43l-43 -223h-43q-6 37 -11 73.5t-9 73.5q-4 -37 -11.5 -73.5t-13.5 -73.5h-43zM90 819q68 -37 109 -108q2 -2 -4.5 -15.5t-14.5 -29t-15 -28.5t-9 -20q-25 -45 -41 -94q51 27 104 39t108.5 20.5t110 15.5 t107.5 24q-18 18 -47 25t-62 8t-65.5 -2t-55.5 -5v131t4 131q-59 -16 -116.5 -39.5t-112.5 -52.5zM305 -133h45q4 -41 8 -83t11 -83q4 41 10 83t14 83h39l23 -166q4 41 9 83t9 83h43l-43 -223h-41q-8 37 -13 73.5t-9 73.5q-4 -37 -10.5 -73.5t-12.5 -73.5h-45zM342 709 q8 0 22.5 6t29 15t27.5 18.5t23 13.5q37 16 75 29.5t77 27.5q78 23 155.5 43.5t159.5 38.5q78 16 155 31.5t157 21.5q72 8 154.5 11.5t152.5 -29.5q6 55 6 112.5t4 110.5q0 29 2 57.5t6 57.5q2 14 -6 22.5t-20.5 13.5t-26.5 7t-27 4q-119 18 -245.5 1t-245.5 -42 q-129 -27 -255 -60.5t-249 -86.5q-23 -12 -46.5 -24.5t-43.5 -29.5q-20 -16 -24.5 -49t-8.5 -55q-8 -66 -8 -132.5v-133.5zM367 825q0 23 15 38.5t36 19.5q6 2 15 -2t5 -15q-12 -8 -22 -8q-12 -4 -16.5 -16.5t1.5 -22.5q4 -4 8.5 -5t8.5 -3q20 -2 33.5 11.5t22.5 34t13.5 41 t8.5 34.5q-27 -27 -62 -35q-27 -4 -43 12q-16 8 -16 37q0 27 12 51q27 61 86 99q12 6 25.5 12t27.5 10q10 4 21.5 12.5t21.5 10.5q12 -1 6 -13q12 0 21 -2q16 -2 27.5 -15t13.5 -32q6 -43 -23.5 -83t-66.5 -62q-18 -12 -27.5 -31.5t-18.5 -39t-20.5 -38t-34.5 -28.5 q-23 -16 -53 -11q-12 4 -20 14.5t-6 24.5zM405.5 937q2.5 -15 22.5 -15q31 0 49.5 19.5t30.5 47t18.5 58.5t10.5 51q-29 -6 -52.5 -23.5t-44.5 -38.5q-6 -6 -15 -25.5t-15.5 -39t-4 -34.5zM522 -133h45q4 -41 9.5 -83t9.5 -83q4 41 10 83t14 83h39l25 -166q2 41 7 83t11 83 h41l-41 -223h-43q-8 37 -12 73.5t-10 73.5q-4 -37 -10.5 -73.5t-12.5 -73.5h-43zM530 950q14 4 29.5 19.5t26 35t14.5 40t0 34.5q-6 23 -33 23q-14 -37 -20.5 -75t-16.5 -77zM582 138q2 34 2 61q0 20 -1 38.5t1 38.5q0 49 26.5 67.5t73.5 18.5q37 0 54.5 -20t23.5 -50 t4 -63.5t-2 -60.5v-80q0 -47 -26.5 -66.5t-71.5 -17.5q-39 0 -56.5 20.5t-23.5 50t-4 63.5zM628 952.5q-5 20.5 6 46t31.5 46t43.5 22.5q12 0 16 -10q8 -12 2 -29q-6 -23 -27.5 -40t-44.5 -21q2 -12 10.5 -13.5t17.5 3t17.5 10.5t12.5 10q25 20 36 46t21 52q2 2 -1 9.5 t-8 15.5t-8 17t-1 16q10 27 34 22q12 0 17 -12q4 -10 2 -22.5t-2 -24.5q20 2 28.5 -1t-4.5 -28q-8 -16 -17 -33.5t-11 -36.5q0 -10 6 -10q20 0 34.5 20.5t26 46t22.5 51t25 34.5q8 2 17 -2q2 -4 2 -13q-4 -12 -10.5 -21t-1.5 -24q6 -12 13 -25.5t5 -27.5h2q20 25 32.5 60.5 t45.5 52.5q37 14 49 -21q10 -14 6 -25.5t-2 -27.5q8 2 14 10q16 12 18.5 35t8.5 41q4 4 11 5t12 -1q10 -2 8 -12v-2q10 10 24 16q10 6 17.5 2t11.5 -14q4 -12 1 -22.5t-8 -21.5t-10 -22.5t-3 -23.5q14 12 24 26.5t18.5 29.5t17.5 28.5t26 23.5q20 10 51 0q4 6 17 8.5 t9 -14.5q-4 -18 -14 -38.5t-10 -41.5q0 -14 8 -2q20 20 30.5 48t19.5 55.5t23.5 53t43.5 42.5q14 8 24 -8q12 -23 4 -48.5t-24 -41.5q-14 -18 -43 -44t-25 -53q4 -16 23 -12q14 6 21 19.5t16 25.5q4 2 12 2t8 -10l-4 -12q-16 -39 -53 -54q-25 -14 -43 15q-4 4 -4 10 q-10 -8 -16.5 -15.5t-18.5 -11.5q-10 -4 -16.5 0t-12.5 8q-4 -4 -12 -8t-16 -6q-31 -6 -43 21v2q-8 -10 -17.5 -17.5t-23.5 -11.5q-14 -8 -25 12q-6 12 -3 23.5t8 22t9 21.5t2 23q-18 -8 -25 -19t-11.5 -25.5t-6.5 -29t-8 -28.5q-6 -16 -24 -8q-8 2 -9 10q0 4 1 9t1 7 q-14 -4 -19 -4t-15 -10t-24.5 -18.5t-31.5 -8.5q-10 2 -16 8.5t-10 14.5q-16 -16 -40 -32.5t-50 -12.5q-16 2 -25 18q-25 -29 -51 -36q-29 -12 -33 20q-4 27 8.5 44t22.5 38q2 4 -3 5t-7 -3q-8 -20 -18.5 -44t-26 -45.5t-36 -34.5t-46.5 -11q-31 2 -36 22.5zM638 163 q-1 -38 1 -75q0 -16 9 -26.5t21.5 -14.5t24 1t15.5 24q2 12 2 27.5v29.5v147q0 16 -10.5 27.5t-22.5 16t-23.5 -2t-15.5 -22.5q-2 -14 -1 -29.5t1 -27.5q0 -37 -1 -75zM653 416q12 14 15.5 36.5t2.5 48t-4 49t-3 42.5v125q0 16 1 30.5t-12 28.5h76q-14 -12 -12 -32.5 t2 -36.5v-142q0 -16 -2 -49t10 -47q14 -23 37.5 -8.5t28.5 33.5q8 27 2.5 54t-9.5 54q-4 14 -10 38t-8 48.5t2 46t21 33.5q10 10 31.5 10t29.5 -16q6 -16 -2 -21.5t-18.5 -4.5t-17.5 8.5t1 15.5q-16 -8 -17 -28.5t6 -44t17 -46.5t15 -35q12 -37 17 -87t-22 -85 q-10 -14 -33.5 -19t-50 -5t-53 3t-41.5 3zM655 987q12 -2 28.5 15.5t18.5 27.5q4 8 -2 12.5t-12 -2.5q-10 -10 -18.5 -24.5t-14.5 -28.5zM715 -328q0 14 9 22.5t21.5 8.5t21.5 -8t9 -23q0 -16 -9 -23t-21.5 -7t-21.5 7t-9 23zM776 1124q-2 -8 4 -20h4q0 8 1 13t-1 13 q-6 0 -8 -6zM780 4q10 14 13.5 34.5t2.5 44t-4.5 46.5t-3.5 39v172q0 10 -8 22h58q29 -12 51 -50t35 -66q0 25 2 59.5t-13 56.5h74q-12 -10 -11 -24t1 -29v-246q0 -14 -1 -31.5t11 -27.5h-207zM797 -356l59 223h64l59 -223h-51l-15 51h-53l-10 -51h-53zM844 47 q0 -14 11 -23.5t25.5 -11.5t28 3.5t15.5 19.5q-4 63 -21.5 127.5t-58.5 116.5v-232zM865 506.5q-3 19.5 7 32.5q10 12 33 13t27 -22q0 -10 -7 -15t-15.5 -5t-14.5 4t-6 14q-12 -4 -12 -14t7 -20.5t17 -19.5t17 -11q14 -4 34.5 -4t30.5 10q20 20 16 40.5t-19 38t-35.5 32 t-31.5 24.5q-18 16 -30.5 42t-12.5 52.5t13.5 48t44.5 27.5q27 6 54.5 4t51.5 -2l-6 -10q0 -14 7 -29.5t13.5 -31t5.5 -29.5t-16 -27q-14 -10 -33.5 -9t-21.5 22q0 12 7 17t15.5 5t14.5 -5t4 -13q14 2 14 12t-8 21.5t-18.5 20.5t-18.5 11q-14 4 -32.5 1t-24.5 -19 q-12 -25 -4 -43.5t24.5 -32.5t37 -27.5t32.5 -27.5q14 -20 22.5 -47t4.5 -52.5t-20.5 -44t-47.5 -22.5q-27 -2 -53.5 -1t-54.5 1q8 4 5 19.5t-8.5 33.5t-8.5 37.5zM866 -266h41q-4 23 -9 46t-11 46zM874 1014q4 -12 16.5 -10t14.5 14q2 18 -10 43q-6 -8 -14.5 -22.5 t-6.5 -24.5zM991 1059l4 -15q10 -14 25 -6q16 4 23.5 21.5t3.5 34.5q-2 10 -9.5 16t-21.5 -4q-20 -14 -25 -47zM997 4q12 14 15.5 36.5t2.5 47.5t-4 48.5t-3 39.5v127q0 16 1 29.5t-12 29.5h76q-10 -10 -13 -30.5t-2 -42t3 -43t2 -35.5v-166h104q23 0 55.5 -3t55.5 13 q-4 -8 -7 -29.5t-14 -21.5h-260zM1006 -135q29 4 64.5 6t62.5 -14q31 -23 22.5 -58t-37.5 -49q14 -6 21.5 -19.5t10.5 -28.5t5 -30.5t8 -27.5h-51q-6 12 -8 27.5t-6 28.5t-12.5 22.5t-26.5 7.5v-86h-53v221zM1057 -196.5q2 -24.5 2 -34.5h12q18 0 26.5 10t6.5 22.5 t-11.5 21.5t-27.5 7q-10 -2 -8 -26.5zM1065 416q10 12 11 25.5t1 27.5v248q0 14 -1 30.5t-11 28.5h127q25 -25 25.5 -59.5t-9.5 -67.5q-4 -8 -15 -29.5t-20.5 -45t-11.5 -45t10 -27.5q-6 12 4.5 13t21.5 -4t14 -14.5t-17 -17.5q-25 -10 -35 9.5t-8 35.5q0 16 6 32.5t8 31 t-4 22.5t-28 6v-155q16 0 41.5 -3t44.5 11q-6 -14 -8.5 -26.5t-6.5 -26.5h-139zM1098 362h78q-12 -29 2 -65.5t26 -60.5q12 29 22.5 62.5t0.5 63.5h80q-23 -12 -27 -38.5t-10 -47.5q-6 -20 -23.5 -47.5t-17.5 -48.5q0 -23 -3 -56.5t13 -51.5h-76q18 18 14.5 53.5t-3.5 58.5 q-12 23 -21.5 46.5t-17.5 45.5q-10 23 -14.5 46.5t-22.5 39.5zM1133 662q20 0 45.5 2t27.5 32q0 16 -7 23.5t-18.5 10.5t-24.5 3h-23v-71zM1192 -133h53v-223h-53v223zM1245 1092q-4 -10 1 -27.5t22 -3.5q12 12 21 33t11 39q-2 8 -4 13t-12 1q-16 -8 -25.5 -23.5 t-13.5 -31.5zM1274 -328q0 14 9 22.5t21.5 8.5t21.5 -8t9 -23q0 -16 -9 -23t-21.5 -7t-21.5 7t-9 23zM1294 813q-8 -6 4 -8q27 -10 57.5 -13.5t62.5 -3.5h62.5t59.5 -2t57.5 -5t57.5 -13q29 -8 51.5 -23.5t48.5 -27.5q0 61 -21.5 106t-80.5 68q35 31 69.5 58.5t75.5 43.5 q-49 47 -110.5 77t-126.5 46q-2 -57 -3.5 -112.5t-5.5 -112.5l-2 2v-6q-27 -2 -64.5 -4t-74.5 -9.5t-68.5 -21.5t-48.5 -39zM1364 -133h57l68 -152q-4 39 -4 77v75h47v-223h-51q-20 39 -37 78.5t-35 76.5q2 -39 2 -77.5v-77.5h-47v223zM1393 1157q16 20 31.5 40t19.5 46h-2 q-37 -37 -49 -86zM1562.5 -268q-8.5 37 14.5 80q12 29 40 43t62 14h10.5t17.5 -2t16.5 -4t7.5 -4l-9 -41q-27 12 -48 8t-36.5 -18.5t-20.5 -37t3 -46.5q16 -47 61 -41q10 2 8.5 21.5t-1.5 27.5h-27v41h76v-121q-41 -16 -79 -9t-62.5 29.5t-33 59.5z" />
<glyph unicode="7" horiz-adv-x="1871" d="M35 813q70 37 137.5 67.5t144.5 53.5q4 0 8.5 20.5t8.5 45t8 48t8 31.5q23 35 68 53.5t78 34.5q88 35 179 61.5t183 51.5q94 23 188.5 39t190.5 24q33 4 80 8.5t95 3.5t92 -12.5t71 -37.5q2 -4 -2 -29t-6 -33l-6 -98q0 -4 4 -4q78 -23 152.5 -58.5t123.5 -103.5v-2 q-16 4 -36.5 -3t-41 -20.5t-38 -28t-27.5 -26.5q31 -16 50 -47t27.5 -66.5t6.5 -72.5t-13 -68q-16 43 -49.5 66.5t-74.5 35t-85 14.5t-83 5q-45 4 -94.5 2t-92.5 14q-16 6 -22 25.5t-7 43t2 46.5t5 37q-184 -14 -363.5 -56t-351.5 -102q-8 -2 -8 -6q2 -10 8 -33.5t10 -50.5 t6 -49.5t-6 -28.5q-23 -18 -58.5 -21t-64.5 -7q-39 -6 -78.5 -12.5t-78.5 -12.5q-35 -8 -67 -17.5t-62 -21.5q-14 -8 -28.5 -13t-29.5 -16q-8 -8 -18 -20t-17 -16q10 35 24.5 67.5t27.5 63.5q2 6 13 25.5t21.5 41t18.5 39t6 21.5q-25 35 -58.5 67.5t-78.5 36.5zM86 -133h47 q4 -41 7 -83t12 -83q4 41 10 83t14 83h37l25 -166q4 41 9 83t9 83h43l-43 -223h-43q-6 37 -11 73.5t-9 73.5q-4 -37 -11.5 -73.5t-13.5 -73.5h-43zM90 819q68 -37 109 -108q2 -2 -4.5 -15.5t-14.5 -29t-15 -28.5t-9 -20q-25 -45 -41 -94q51 27 104 39t108.5 20.5t110 15.5 t107.5 24q-18 18 -47 25t-62 8t-65.5 -2t-55.5 -5v131t4 131q-59 -16 -116.5 -39.5t-112.5 -52.5zM305 -133h45q4 -41 8 -83t11 -83q4 41 10 83t14 83h39l23 -166q4 41 9 83t9 83h43l-43 -223h-41q-8 37 -13 73.5t-9 73.5q-4 -37 -10.5 -73.5t-12.5 -73.5h-45zM342 709 q8 0 22.5 6t29 15t27.5 18.5t23 13.5q37 16 75 29.5t77 27.5q78 23 155.5 43.5t159.5 38.5q78 16 155 31.5t157 21.5q72 8 154.5 11.5t152.5 -29.5q6 55 6 112.5t4 110.5q0 29 2 57.5t6 57.5q2 14 -6 22.5t-20.5 13.5t-26.5 7t-27 4q-119 18 -245.5 1t-245.5 -42 q-129 -27 -255 -60.5t-249 -86.5q-23 -12 -46.5 -24.5t-43.5 -29.5q-20 -16 -24.5 -49t-8.5 -55q-8 -66 -8 -132.5v-133.5zM367 825q0 23 15 38.5t36 19.5q6 2 15 -2t5 -15q-12 -8 -22 -8q-12 -4 -16.5 -16.5t1.5 -22.5q4 -4 8.5 -5t8.5 -3q20 -2 33.5 11.5t22.5 34t13.5 41 t8.5 34.5q-27 -27 -62 -35q-27 -4 -43 12q-16 8 -16 37q0 27 12 51q27 61 86 99q12 6 25.5 12t27.5 10q10 4 21.5 12.5t21.5 10.5q12 -1 6 -13q12 0 21 -2q16 -2 27.5 -15t13.5 -32q6 -43 -23.5 -83t-66.5 -62q-18 -12 -27.5 -31.5t-18.5 -39t-20.5 -38t-34.5 -28.5 q-23 -16 -53 -11q-12 4 -20 14.5t-6 24.5zM405.5 937q2.5 -15 22.5 -15q31 0 49.5 19.5t30.5 47t18.5 58.5t10.5 51q-29 -6 -52.5 -23.5t-44.5 -38.5q-6 -6 -15 -25.5t-15.5 -39t-4 -34.5zM522 -133h45q4 -41 9.5 -83t9.5 -83q4 41 10 83t14 83h39l25 -166q2 41 7 83t11 83 h41l-41 -223h-43q-8 37 -12 73.5t-10 73.5q-4 -37 -10.5 -73.5t-12.5 -73.5h-43zM530 950q14 4 29.5 19.5t26 35t14.5 40t0 34.5q-6 23 -33 23q-14 -37 -20.5 -75t-16.5 -77zM582 138q2 34 2 61q0 20 -1 38.5t1 38.5q0 49 26.5 67.5t73.5 18.5q37 0 54.5 -20t23.5 -50 t4 -63.5t-2 -60.5v-80q0 -47 -26.5 -66.5t-71.5 -17.5q-39 0 -56.5 20.5t-23.5 50t-4 63.5zM628 952.5q-5 20.5 6 46t31.5 46t43.5 22.5q12 0 16 -10q8 -12 2 -29q-6 -23 -27.5 -40t-44.5 -21q2 -12 10.5 -13.5t17.5 3t17.5 10.5t12.5 10q25 20 36 46t21 52q2 2 -1 9.5 t-8 15.5t-8 17t-1 16q10 27 34 22q12 0 17 -12q4 -10 2 -22.5t-2 -24.5q20 2 28.5 -1t-4.5 -28q-8 -16 -17 -33.5t-11 -36.5q0 -10 6 -10q20 0 34.5 20.5t26 46t22.5 51t25 34.5q8 2 17 -2q2 -4 2 -13q-4 -12 -10.5 -21t-1.5 -24q6 -12 13 -25.5t5 -27.5h2q20 25 32.5 60.5 t45.5 52.5q37 14 49 -21q10 -14 6 -25.5t-2 -27.5q8 2 14 10q16 12 18.5 35t8.5 41q4 4 11 5t12 -1q10 -2 8 -12v-2q10 10 24 16q10 6 17.5 2t11.5 -14q4 -12 1 -22.5t-8 -21.5t-10 -22.5t-3 -23.5q14 12 24 26.5t18.5 29.5t17.5 28.5t26 23.5q20 10 51 0q4 6 17 8.5 t9 -14.5q-4 -18 -14 -38.5t-10 -41.5q0 -14 8 -2q20 20 30.5 48t19.5 55.5t23.5 53t43.5 42.5q14 8 24 -8q12 -23 4 -48.5t-24 -41.5q-14 -18 -43 -44t-25 -53q4 -16 23 -12q14 6 21 19.5t16 25.5q4 2 12 2t8 -10l-4 -12q-16 -39 -53 -54q-25 -14 -43 15q-4 4 -4 10 q-10 -8 -16.5 -15.5t-18.5 -11.5q-10 -4 -16.5 0t-12.5 8q-4 -4 -12 -8t-16 -6q-31 -6 -43 21v2q-8 -10 -17.5 -17.5t-23.5 -11.5q-14 -8 -25 12q-6 12 -3 23.5t8 22t9 21.5t2 23q-18 -8 -25 -19t-11.5 -25.5t-6.5 -29t-8 -28.5q-6 -16 -24 -8q-8 2 -9 10q0 4 1 9t1 7 q-14 -4 -19 -4t-15 -10t-24.5 -18.5t-31.5 -8.5q-10 2 -16 8.5t-10 14.5q-16 -16 -40 -32.5t-50 -12.5q-16 2 -25 18q-25 -29 -51 -36q-29 -12 -33 20q-4 27 8.5 44t22.5 38q2 4 -3 5t-7 -3q-8 -20 -18.5 -44t-26 -45.5t-36 -34.5t-46.5 -11q-31 2 -36 22.5zM638 163 q-1 -38 1 -75q0 -16 9 -26.5t21.5 -14.5t24 1t15.5 24q2 12 2 27.5v29.5v147q0 16 -10.5 27.5t-22.5 16t-23.5 -2t-15.5 -22.5q-2 -14 -1 -29.5t1 -27.5q0 -37 -1 -75zM653 416q12 14 15.5 36.5t2.5 48t-4 49t-3 42.5v125q0 16 1 30.5t-12 28.5h76q-14 -12 -12 -32.5 t2 -36.5v-142q0 -16 -2 -49t10 -47q14 -23 37.5 -8.5t28.5 33.5q8 27 2.5 54t-9.5 54q-4 14 -10 38t-8 48.5t2 46t21 33.5q10 10 31.5 10t29.5 -16q6 -16 -2 -21.5t-18.5 -4.5t-17.5 8.5t1 15.5q-16 -8 -17 -28.5t6 -44t17 -46.5t15 -35q12 -37 17 -87t-22 -85 q-10 -14 -33.5 -19t-50 -5t-53 3t-41.5 3zM655 987q12 -2 28.5 15.5t18.5 27.5q4 8 -2 12.5t-12 -2.5q-10 -10 -18.5 -24.5t-14.5 -28.5zM715 -328q0 14 9 22.5t21.5 8.5t21.5 -8t9 -23q0 -16 -9 -23t-21.5 -7t-21.5 7t-9 23zM776 1124q-2 -8 4 -20h4q0 8 1 13t-1 13 q-6 0 -8 -6zM780 4q10 14 13.5 34.5t2.5 44t-4.5 46.5t-3.5 39v172q0 10 -8 22h58q29 -12 51 -50t35 -66q0 25 2 59.5t-13 56.5h74q-12 -10 -11 -24t1 -29v-246q0 -14 -1 -31.5t11 -27.5h-207zM797 -356l59 223h64l59 -223h-51l-15 51h-53l-10 -51h-53zM844 47 q0 -14 11 -23.5t25.5 -11.5t28 3.5t15.5 19.5q-4 63 -21.5 127.5t-58.5 116.5v-232zM865 506.5q-3 19.5 7 32.5q10 12 33 13t27 -22q0 -10 -7 -15t-15.5 -5t-14.5 4t-6 14q-12 -4 -12 -14t7 -20.5t17 -19.5t17 -11q14 -4 34.5 -4t30.5 10q20 20 16 40.5t-19 38t-35.5 32 t-31.5 24.5q-18 16 -30.5 42t-12.5 52.5t13.5 48t44.5 27.5q27 6 54.5 4t51.5 -2l-6 -10q0 -14 7 -29.5t13.5 -31t5.5 -29.5t-16 -27q-14 -10 -33.5 -9t-21.5 22q0 12 7 17t15.5 5t14.5 -5t4 -13q14 2 14 12t-8 21.5t-18.5 20.5t-18.5 11q-14 4 -32.5 1t-24.5 -19 q-12 -25 -4 -43.5t24.5 -32.5t37 -27.5t32.5 -27.5q14 -20 22.5 -47t4.5 -52.5t-20.5 -44t-47.5 -22.5q-27 -2 -53.5 -1t-54.5 1q8 4 5 19.5t-8.5 33.5t-8.5 37.5zM866 -266h41q-4 23 -9 46t-11 46zM874 1014q4 -12 16.5 -10t14.5 14q2 18 -10 43q-6 -8 -14.5 -22.5 t-6.5 -24.5zM991 1059l4 -15q10 -14 25 -6q16 4 23.5 21.5t3.5 34.5q-2 10 -9.5 16t-21.5 -4q-20 -14 -25 -47zM997 4q12 14 15.5 36.5t2.5 47.5t-4 48.5t-3 39.5v127q0 16 1 29.5t-12 29.5h76q-10 -10 -13 -30.5t-2 -42t3 -43t2 -35.5v-166h104q23 0 55.5 -3t55.5 13 q-4 -8 -7 -29.5t-14 -21.5h-260zM1006 -135q29 4 64.5 6t62.5 -14q31 -23 22.5 -58t-37.5 -49q14 -6 21.5 -19.5t10.5 -28.5t5 -30.5t8 -27.5h-51q-6 12 -8 27.5t-6 28.5t-12.5 22.5t-26.5 7.5v-86h-53v221zM1057 -196.5q2 -24.5 2 -34.5h12q18 0 26.5 10t6.5 22.5 t-11.5 21.5t-27.5 7q-10 -2 -8 -26.5zM1065 416q10 12 11 25.5t1 27.5v248q0 14 -1 30.5t-11 28.5h127q25 -25 25.5 -59.5t-9.5 -67.5q-4 -8 -15 -29.5t-20.5 -45t-11.5 -45t10 -27.5q-6 12 4.5 13t21.5 -4t14 -14.5t-17 -17.5q-25 -10 -35 9.5t-8 35.5q0 16 6 32.5t8 31 t-4 22.5t-28 6v-155q16 0 41.5 -3t44.5 11q-6 -14 -8.5 -26.5t-6.5 -26.5h-139zM1098 362h78q-12 -29 2 -65.5t26 -60.5q12 29 22.5 62.5t0.5 63.5h80q-23 -12 -27 -38.5t-10 -47.5q-6 -20 -23.5 -47.5t-17.5 -48.5q0 -23 -3 -56.5t13 -51.5h-76q18 18 14.5 53.5t-3.5 58.5 q-12 23 -21.5 46.5t-17.5 45.5q-10 23 -14.5 46.5t-22.5 39.5zM1133 662q20 0 45.5 2t27.5 32q0 16 -7 23.5t-18.5 10.5t-24.5 3h-23v-71zM1192 -133h53v-223h-53v223zM1245 1092q-4 -10 1 -27.5t22 -3.5q12 12 21 33t11 39q-2 8 -4 13t-12 1q-16 -8 -25.5 -23.5 t-13.5 -31.5zM1274 -328q0 14 9 22.5t21.5 8.5t21.5 -8t9 -23q0 -16 -9 -23t-21.5 -7t-21.5 7t-9 23zM1294 813q-8 -6 4 -8q27 -10 57.5 -13.5t62.5 -3.5h62.5t59.5 -2t57.5 -5t57.5 -13q29 -8 51.5 -23.5t48.5 -27.5q0 61 -21.5 106t-80.5 68q35 31 69.5 58.5t75.5 43.5 q-49 47 -110.5 77t-126.5 46q-2 -57 -3.5 -112.5t-5.5 -112.5l-2 2v-6q-27 -2 -64.5 -4t-74.5 -9.5t-68.5 -21.5t-48.5 -39zM1364 -133h57l68 -152q-4 39 -4 77v75h47v-223h-51q-20 39 -37 78.5t-35 76.5q2 -39 2 -77.5v-77.5h-47v223zM1393 1157q16 20 31.5 40t19.5 46h-2 q-37 -37 -49 -86zM1562.5 -268q-8.5 37 14.5 80q12 29 40 43t62 14h10.5t17.5 -2t16.5 -4t7.5 -4l-9 -41q-27 12 -48 8t-36.5 -18.5t-20.5 -37t3 -46.5q16 -47 61 -41q10 2 8.5 21.5t-1.5 27.5h-27v41h76v-121q-41 -16 -79 -9t-62.5 29.5t-33 59.5z" />
<glyph unicode="8" horiz-adv-x="1871" d="M35 813q70 37 137.5 67.5t144.5 53.5q4 0 8.5 20.5t8.5 45t8 48t8 31.5q23 35 68 53.5t78 34.5q88 35 179 61.5t183 51.5q94 23 188.5 39t190.5 24q33 4 80 8.5t95 3.5t92 -12.5t71 -37.5q2 -4 -2 -29t-6 -33l-6 -98q0 -4 4 -4q78 -23 152.5 -58.5t123.5 -103.5v-2 q-16 4 -36.5 -3t-41 -20.5t-38 -28t-27.5 -26.5q31 -16 50 -47t27.5 -66.5t6.5 -72.5t-13 -68q-16 43 -49.5 66.5t-74.5 35t-85 14.5t-83 5q-45 4 -94.5 2t-92.5 14q-16 6 -22 25.5t-7 43t2 46.5t5 37q-184 -14 -363.5 -56t-351.5 -102q-8 -2 -8 -6q2 -10 8 -33.5t10 -50.5 t6 -49.5t-6 -28.5q-23 -18 -58.5 -21t-64.5 -7q-39 -6 -78.5 -12.5t-78.5 -12.5q-35 -8 -67 -17.5t-62 -21.5q-14 -8 -28.5 -13t-29.5 -16q-8 -8 -18 -20t-17 -16q10 35 24.5 67.5t27.5 63.5q2 6 13 25.5t21.5 41t18.5 39t6 21.5q-25 35 -58.5 67.5t-78.5 36.5zM86 -133h47 q4 -41 7 -83t12 -83q4 41 10 83t14 83h37l25 -166q4 41 9 83t9 83h43l-43 -223h-43q-6 37 -11 73.5t-9 73.5q-4 -37 -11.5 -73.5t-13.5 -73.5h-43zM90 819q68 -37 109 -108q2 -2 -4.5 -15.5t-14.5 -29t-15 -28.5t-9 -20q-25 -45 -41 -94q51 27 104 39t108.5 20.5t110 15.5 t107.5 24q-18 18 -47 25t-62 8t-65.5 -2t-55.5 -5v131t4 131q-59 -16 -116.5 -39.5t-112.5 -52.5zM305 -133h45q4 -41 8 -83t11 -83q4 41 10 83t14 83h39l23 -166q4 41 9 83t9 83h43l-43 -223h-41q-8 37 -13 73.5t-9 73.5q-4 -37 -10.5 -73.5t-12.5 -73.5h-45zM342 709 q8 0 22.5 6t29 15t27.5 18.5t23 13.5q37 16 75 29.5t77 27.5q78 23 155.5 43.5t159.5 38.5q78 16 155 31.5t157 21.5q72 8 154.5 11.5t152.5 -29.5q6 55 6 112.5t4 110.5q0 29 2 57.5t6 57.5q2 14 -6 22.5t-20.5 13.5t-26.5 7t-27 4q-119 18 -245.5 1t-245.5 -42 q-129 -27 -255 -60.5t-249 -86.5q-23 -12 -46.5 -24.5t-43.5 -29.5q-20 -16 -24.5 -49t-8.5 -55q-8 -66 -8 -132.5v-133.5zM367 825q0 23 15 38.5t36 19.5q6 2 15 -2t5 -15q-12 -8 -22 -8q-12 -4 -16.5 -16.5t1.5 -22.5q4 -4 8.5 -5t8.5 -3q20 -2 33.5 11.5t22.5 34t13.5 41 t8.5 34.5q-27 -27 -62 -35q-27 -4 -43 12q-16 8 -16 37q0 27 12 51q27 61 86 99q12 6 25.5 12t27.5 10q10 4 21.5 12.5t21.5 10.5q12 -1 6 -13q12 0 21 -2q16 -2 27.5 -15t13.5 -32q6 -43 -23.5 -83t-66.5 -62q-18 -12 -27.5 -31.5t-18.5 -39t-20.5 -38t-34.5 -28.5 q-23 -16 -53 -11q-12 4 -20 14.5t-6 24.5zM405.5 937q2.5 -15 22.5 -15q31 0 49.5 19.5t30.5 47t18.5 58.5t10.5 51q-29 -6 -52.5 -23.5t-44.5 -38.5q-6 -6 -15 -25.5t-15.5 -39t-4 -34.5zM522 -133h45q4 -41 9.5 -83t9.5 -83q4 41 10 83t14 83h39l25 -166q2 41 7 83t11 83 h41l-41 -223h-43q-8 37 -12 73.5t-10 73.5q-4 -37 -10.5 -73.5t-12.5 -73.5h-43zM530 950q14 4 29.5 19.5t26 35t14.5 40t0 34.5q-6 23 -33 23q-14 -37 -20.5 -75t-16.5 -77zM582 138q2 34 2 61q0 20 -1 38.5t1 38.5q0 49 26.5 67.5t73.5 18.5q37 0 54.5 -20t23.5 -50 t4 -63.5t-2 -60.5v-80q0 -47 -26.5 -66.5t-71.5 -17.5q-39 0 -56.5 20.5t-23.5 50t-4 63.5zM628 952.5q-5 20.5 6 46t31.5 46t43.5 22.5q12 0 16 -10q8 -12 2 -29q-6 -23 -27.5 -40t-44.5 -21q2 -12 10.5 -13.5t17.5 3t17.5 10.5t12.5 10q25 20 36 46t21 52q2 2 -1 9.5 t-8 15.5t-8 17t-1 16q10 27 34 22q12 0 17 -12q4 -10 2 -22.5t-2 -24.5q20 2 28.5 -1t-4.5 -28q-8 -16 -17 -33.5t-11 -36.5q0 -10 6 -10q20 0 34.5 20.5t26 46t22.5 51t25 34.5q8 2 17 -2q2 -4 2 -13q-4 -12 -10.5 -21t-1.5 -24q6 -12 13 -25.5t5 -27.5h2q20 25 32.5 60.5 t45.5 52.5q37 14 49 -21q10 -14 6 -25.5t-2 -27.5q8 2 14 10q16 12 18.5 35t8.5 41q4 4 11 5t12 -1q10 -2 8 -12v-2q10 10 24 16q10 6 17.5 2t11.5 -14q4 -12 1 -22.5t-8 -21.5t-10 -22.5t-3 -23.5q14 12 24 26.5t18.5 29.5t17.5 28.5t26 23.5q20 10 51 0q4 6 17 8.5 t9 -14.5q-4 -18 -14 -38.5t-10 -41.5q0 -14 8 -2q20 20 30.5 48t19.5 55.5t23.5 53t43.5 42.5q14 8 24 -8q12 -23 4 -48.5t-24 -41.5q-14 -18 -43 -44t-25 -53q4 -16 23 -12q14 6 21 19.5t16 25.5q4 2 12 2t8 -10l-4 -12q-16 -39 -53 -54q-25 -14 -43 15q-4 4 -4 10 q-10 -8 -16.5 -15.5t-18.5 -11.5q-10 -4 -16.5 0t-12.5 8q-4 -4 -12 -8t-16 -6q-31 -6 -43 21v2q-8 -10 -17.5 -17.5t-23.5 -11.5q-14 -8 -25 12q-6 12 -3 23.5t8 22t9 21.5t2 23q-18 -8 -25 -19t-11.5 -25.5t-6.5 -29t-8 -28.5q-6 -16 -24 -8q-8 2 -9 10q0 4 1 9t1 7 q-14 -4 -19 -4t-15 -10t-24.5 -18.5t-31.5 -8.5q-10 2 -16 8.5t-10 14.5q-16 -16 -40 -32.5t-50 -12.5q-16 2 -25 18q-25 -29 -51 -36q-29 -12 -33 20q-4 27 8.5 44t22.5 38q2 4 -3 5t-7 -3q-8 -20 -18.5 -44t-26 -45.5t-36 -34.5t-46.5 -11q-31 2 -36 22.5zM638 163 q-1 -38 1 -75q0 -16 9 -26.5t21.5 -14.5t24 1t15.5 24q2 12 2 27.5v29.5v147q0 16 -10.5 27.5t-22.5 16t-23.5 -2t-15.5 -22.5q-2 -14 -1 -29.5t1 -27.5q0 -37 -1 -75zM653 416q12 14 15.5 36.5t2.5 48t-4 49t-3 42.5v125q0 16 1 30.5t-12 28.5h76q-14 -12 -12 -32.5 t2 -36.5v-142q0 -16 -2 -49t10 -47q14 -23 37.5 -8.5t28.5 33.5q8 27 2.5 54t-9.5 54q-4 14 -10 38t-8 48.5t2 46t21 33.5q10 10 31.5 10t29.5 -16q6 -16 -2 -21.5t-18.5 -4.5t-17.5 8.5t1 15.5q-16 -8 -17 -28.5t6 -44t17 -46.5t15 -35q12 -37 17 -87t-22 -85 q-10 -14 -33.5 -19t-50 -5t-53 3t-41.5 3zM655 987q12 -2 28.5 15.5t18.5 27.5q4 8 -2 12.5t-12 -2.5q-10 -10 -18.5 -24.5t-14.5 -28.5zM715 -328q0 14 9 22.5t21.5 8.5t21.5 -8t9 -23q0 -16 -9 -23t-21.5 -7t-21.5 7t-9 23zM776 1124q-2 -8 4 -20h4q0 8 1 13t-1 13 q-6 0 -8 -6zM780 4q10 14 13.5 34.5t2.5 44t-4.5 46.5t-3.5 39v172q0 10 -8 22h58q29 -12 51 -50t35 -66q0 25 2 59.5t-13 56.5h74q-12 -10 -11 -24t1 -29v-246q0 -14 -1 -31.5t11 -27.5h-207zM797 -356l59 223h64l59 -223h-51l-15 51h-53l-10 -51h-53zM844 47 q0 -14 11 -23.5t25.5 -11.5t28 3.5t15.5 19.5q-4 63 -21.5 127.5t-58.5 116.5v-232zM865 506.5q-3 19.5 7 32.5q10 12 33 13t27 -22q0 -10 -7 -15t-15.5 -5t-14.5 4t-6 14q-12 -4 -12 -14t7 -20.5t17 -19.5t17 -11q14 -4 34.5 -4t30.5 10q20 20 16 40.5t-19 38t-35.5 32 t-31.5 24.5q-18 16 -30.5 42t-12.5 52.5t13.5 48t44.5 27.5q27 6 54.5 4t51.5 -2l-6 -10q0 -14 7 -29.5t13.5 -31t5.5 -29.5t-16 -27q-14 -10 -33.5 -9t-21.5 22q0 12 7 17t15.5 5t14.5 -5t4 -13q14 2 14 12t-8 21.5t-18.5 20.5t-18.5 11q-14 4 -32.5 1t-24.5 -19 q-12 -25 -4 -43.5t24.5 -32.5t37 -27.5t32.5 -27.5q14 -20 22.5 -47t4.5 -52.5t-20.5 -44t-47.5 -22.5q-27 -2 -53.5 -1t-54.5 1q8 4 5 19.5t-8.5 33.5t-8.5 37.5zM866 -266h41q-4 23 -9 46t-11 46zM874 1014q4 -12 16.5 -10t14.5 14q2 18 -10 43q-6 -8 -14.5 -22.5 t-6.5 -24.5zM991 1059l4 -15q10 -14 25 -6q16 4 23.5 21.5t3.5 34.5q-2 10 -9.5 16t-21.5 -4q-20 -14 -25 -47zM997 4q12 14 15.5 36.5t2.5 47.5t-4 48.5t-3 39.5v127q0 16 1 29.5t-12 29.5h76q-10 -10 -13 -30.5t-2 -42t3 -43t2 -35.5v-166h104q23 0 55.5 -3t55.5 13 q-4 -8 -7 -29.5t-14 -21.5h-260zM1006 -135q29 4 64.5 6t62.5 -14q31 -23 22.5 -58t-37.5 -49q14 -6 21.5 -19.5t10.5 -28.5t5 -30.5t8 -27.5h-51q-6 12 -8 27.5t-6 28.5t-12.5 22.5t-26.5 7.5v-86h-53v221zM1057 -196.5q2 -24.5 2 -34.5h12q18 0 26.5 10t6.5 22.5 t-11.5 21.5t-27.5 7q-10 -2 -8 -26.5zM1065 416q10 12 11 25.5t1 27.5v248q0 14 -1 30.5t-11 28.5h127q25 -25 25.5 -59.5t-9.5 -67.5q-4 -8 -15 -29.5t-20.5 -45t-11.5 -45t10 -27.5q-6 12 4.5 13t21.5 -4t14 -14.5t-17 -17.5q-25 -10 -35 9.5t-8 35.5q0 16 6 32.5t8 31 t-4 22.5t-28 6v-155q16 0 41.5 -3t44.5 11q-6 -14 -8.5 -26.5t-6.5 -26.5h-139zM1098 362h78q-12 -29 2 -65.5t26 -60.5q12 29 22.5 62.5t0.5 63.5h80q-23 -12 -27 -38.5t-10 -47.5q-6 -20 -23.5 -47.5t-17.5 -48.5q0 -23 -3 -56.5t13 -51.5h-76q18 18 14.5 53.5t-3.5 58.5 q-12 23 -21.5 46.5t-17.5 45.5q-10 23 -14.5 46.5t-22.5 39.5zM1133 662q20 0 45.5 2t27.5 32q0 16 -7 23.5t-18.5 10.5t-24.5 3h-23v-71zM1192 -133h53v-223h-53v223zM1245 1092q-4 -10 1 -27.5t22 -3.5q12 12 21 33t11 39q-2 8 -4 13t-12 1q-16 -8 -25.5 -23.5 t-13.5 -31.5zM1274 -328q0 14 9 22.5t21.5 8.5t21.5 -8t9 -23q0 -16 -9 -23t-21.5 -7t-21.5 7t-9 23zM1294 813q-8 -6 4 -8q27 -10 57.5 -13.5t62.5 -3.5h62.5t59.5 -2t57.5 -5t57.5 -13q29 -8 51.5 -23.5t48.5 -27.5q0 61 -21.5 106t-80.5 68q35 31 69.5 58.5t75.5 43.5 q-49 47 -110.5 77t-126.5 46q-2 -57 -3.5 -112.5t-5.5 -112.5l-2 2v-6q-27 -2 -64.5 -4t-74.5 -9.5t-68.5 -21.5t-48.5 -39zM1364 -133h57l68 -152q-4 39 -4 77v75h47v-223h-51q-20 39 -37 78.5t-35 76.5q2 -39 2 -77.5v-77.5h-47v223zM1393 1157q16 20 31.5 40t19.5 46h-2 q-37 -37 -49 -86zM1562.5 -268q-8.5 37 14.5 80q12 29 40 43t62 14h10.5t17.5 -2t16.5 -4t7.5 -4l-9 -41q-27 12 -48 8t-36.5 -18.5t-20.5 -37t3 -46.5q16 -47 61 -41q10 2 8.5 21.5t-1.5 27.5h-27v41h76v-121q-41 -16 -79 -9t-62.5 29.5t-33 59.5z" />
<glyph unicode="9" horiz-adv-x="1871" d="M35 813q70 37 137.5 67.5t144.5 53.5q4 0 8.5 20.5t8.5 45t8 48t8 31.5q23 35 68 53.5t78 34.5q88 35 179 61.5t183 51.5q94 23 188.5 39t190.5 24q33 4 80 8.5t95 3.5t92 -12.5t71 -37.5q2 -4 -2 -29t-6 -33l-6 -98q0 -4 4 -4q78 -23 152.5 -58.5t123.5 -103.5v-2 q-16 4 -36.5 -3t-41 -20.5t-38 -28t-27.5 -26.5q31 -16 50 -47t27.5 -66.5t6.5 -72.5t-13 -68q-16 43 -49.5 66.5t-74.5 35t-85 14.5t-83 5q-45 4 -94.5 2t-92.5 14q-16 6 -22 25.5t-7 43t2 46.5t5 37q-184 -14 -363.5 -56t-351.5 -102q-8 -2 -8 -6q2 -10 8 -33.5t10 -50.5 t6 -49.5t-6 -28.5q-23 -18 -58.5 -21t-64.5 -7q-39 -6 -78.5 -12.5t-78.5 -12.5q-35 -8 -67 -17.5t-62 -21.5q-14 -8 -28.5 -13t-29.5 -16q-8 -8 -18 -20t-17 -16q10 35 24.5 67.5t27.5 63.5q2 6 13 25.5t21.5 41t18.5 39t6 21.5q-25 35 -58.5 67.5t-78.5 36.5zM86 -133h47 q4 -41 7 -83t12 -83q4 41 10 83t14 83h37l25 -166q4 41 9 83t9 83h43l-43 -223h-43q-6 37 -11 73.5t-9 73.5q-4 -37 -11.5 -73.5t-13.5 -73.5h-43zM90 819q68 -37 109 -108q2 -2 -4.5 -15.5t-14.5 -29t-15 -28.5t-9 -20q-25 -45 -41 -94q51 27 104 39t108.5 20.5t110 15.5 t107.5 24q-18 18 -47 25t-62 8t-65.5 -2t-55.5 -5v131t4 131q-59 -16 -116.5 -39.5t-112.5 -52.5zM305 -133h45q4 -41 8 -83t11 -83q4 41 10 83t14 83h39l23 -166q4 41 9 83t9 83h43l-43 -223h-41q-8 37 -13 73.5t-9 73.5q-4 -37 -10.5 -73.5t-12.5 -73.5h-45zM342 709 q8 0 22.5 6t29 15t27.5 18.5t23 13.5q37 16 75 29.5t77 27.5q78 23 155.5 43.5t159.5 38.5q78 16 155 31.5t157 21.5q72 8 154.5 11.5t152.5 -29.5q6 55 6 112.5t4 110.5q0 29 2 57.5t6 57.5q2 14 -6 22.5t-20.5 13.5t-26.5 7t-27 4q-119 18 -245.5 1t-245.5 -42 q-129 -27 -255 -60.5t-249 -86.5q-23 -12 -46.5 -24.5t-43.5 -29.5q-20 -16 -24.5 -49t-8.5 -55q-8 -66 -8 -132.5v-133.5zM367 825q0 23 15 38.5t36 19.5q6 2 15 -2t5 -15q-12 -8 -22 -8q-12 -4 -16.5 -16.5t1.5 -22.5q4 -4 8.5 -5t8.5 -3q20 -2 33.5 11.5t22.5 34t13.5 41 t8.5 34.5q-27 -27 -62 -35q-27 -4 -43 12q-16 8 -16 37q0 27 12 51q27 61 86 99q12 6 25.5 12t27.5 10q10 4 21.5 12.5t21.5 10.5q12 -1 6 -13q12 0 21 -2q16 -2 27.5 -15t13.5 -32q6 -43 -23.5 -83t-66.5 -62q-18 -12 -27.5 -31.5t-18.5 -39t-20.5 -38t-34.5 -28.5 q-23 -16 -53 -11q-12 4 -20 14.5t-6 24.5zM405.5 937q2.5 -15 22.5 -15q31 0 49.5 19.5t30.5 47t18.5 58.5t10.5 51q-29 -6 -52.5 -23.5t-44.5 -38.5q-6 -6 -15 -25.5t-15.5 -39t-4 -34.5zM522 -133h45q4 -41 9.5 -83t9.5 -83q4 41 10 83t14 83h39l25 -166q2 41 7 83t11 83 h41l-41 -223h-43q-8 37 -12 73.5t-10 73.5q-4 -37 -10.5 -73.5t-12.5 -73.5h-43zM530 950q14 4 29.5 19.5t26 35t14.5 40t0 34.5q-6 23 -33 23q-14 -37 -20.5 -75t-16.5 -77zM582 138q2 34 2 61q0 20 -1 38.5t1 38.5q0 49 26.5 67.5t73.5 18.5q37 0 54.5 -20t23.5 -50 t4 -63.5t-2 -60.5v-80q0 -47 -26.5 -66.5t-71.5 -17.5q-39 0 -56.5 20.5t-23.5 50t-4 63.5zM628 952.5q-5 20.5 6 46t31.5 46t43.5 22.5q12 0 16 -10q8 -12 2 -29q-6 -23 -27.5 -40t-44.5 -21q2 -12 10.5 -13.5t17.5 3t17.5 10.5t12.5 10q25 20 36 46t21 52q2 2 -1 9.5 t-8 15.5t-8 17t-1 16q10 27 34 22q12 0 17 -12q4 -10 2 -22.5t-2 -24.5q20 2 28.5 -1t-4.5 -28q-8 -16 -17 -33.5t-11 -36.5q0 -10 6 -10q20 0 34.5 20.5t26 46t22.5 51t25 34.5q8 2 17 -2q2 -4 2 -13q-4 -12 -10.5 -21t-1.5 -24q6 -12 13 -25.5t5 -27.5h2q20 25 32.5 60.5 t45.5 52.5q37 14 49 -21q10 -14 6 -25.5t-2 -27.5q8 2 14 10q16 12 18.5 35t8.5 41q4 4 11 5t12 -1q10 -2 8 -12v-2q10 10 24 16q10 6 17.5 2t11.5 -14q4 -12 1 -22.5t-8 -21.5t-10 -22.5t-3 -23.5q14 12 24 26.5t18.5 29.5t17.5 28.5t26 23.5q20 10 51 0q4 6 17 8.5 t9 -14.5q-4 -18 -14 -38.5t-10 -41.5q0 -14 8 -2q20 20 30.5 48t19.5 55.5t23.5 53t43.5 42.5q14 8 24 -8q12 -23 4 -48.5t-24 -41.5q-14 -18 -43 -44t-25 -53q4 -16 23 -12q14 6 21 19.5t16 25.5q4 2 12 2t8 -10l-4 -12q-16 -39 -53 -54q-25 -14 -43 15q-4 4 -4 10 q-10 -8 -16.5 -15.5t-18.5 -11.5q-10 -4 -16.5 0t-12.5 8q-4 -4 -12 -8t-16 -6q-31 -6 -43 21v2q-8 -10 -17.5 -17.5t-23.5 -11.5q-14 -8 -25 12q-6 12 -3 23.5t8 22t9 21.5t2 23q-18 -8 -25 -19t-11.5 -25.5t-6.5 -29t-8 -28.5q-6 -16 -24 -8q-8 2 -9 10q0 4 1 9t1 7 q-14 -4 -19 -4t-15 -10t-24.5 -18.5t-31.5 -8.5q-10 2 -16 8.5t-10 14.5q-16 -16 -40 -32.5t-50 -12.5q-16 2 -25 18q-25 -29 -51 -36q-29 -12 -33 20q-4 27 8.5 44t22.5 38q2 4 -3 5t-7 -3q-8 -20 -18.5 -44t-26 -45.5t-36 -34.5t-46.5 -11q-31 2 -36 22.5zM638 163 q-1 -38 1 -75q0 -16 9 -26.5t21.5 -14.5t24 1t15.5 24q2 12 2 27.5v29.5v147q0 16 -10.5 27.5t-22.5 16t-23.5 -2t-15.5 -22.5q-2 -14 -1 -29.5t1 -27.5q0 -37 -1 -75zM653 416q12 14 15.5 36.5t2.5 48t-4 49t-3 42.5v125q0 16 1 30.5t-12 28.5h76q-14 -12 -12 -32.5 t2 -36.5v-142q0 -16 -2 -49t10 -47q14 -23 37.5 -8.5t28.5 33.5q8 27 2.5 54t-9.5 54q-4 14 -10 38t-8 48.5t2 46t21 33.5q10 10 31.5 10t29.5 -16q6 -16 -2 -21.5t-18.5 -4.5t-17.5 8.5t1 15.5q-16 -8 -17 -28.5t6 -44t17 -46.5t15 -35q12 -37 17 -87t-22 -85 q-10 -14 -33.5 -19t-50 -5t-53 3t-41.5 3zM655 987q12 -2 28.5 15.5t18.5 27.5q4 8 -2 12.5t-12 -2.5q-10 -10 -18.5 -24.5t-14.5 -28.5zM715 -328q0 14 9 22.5t21.5 8.5t21.5 -8t9 -23q0 -16 -9 -23t-21.5 -7t-21.5 7t-9 23zM776 1124q-2 -8 4 -20h4q0 8 1 13t-1 13 q-6 0 -8 -6zM780 4q10 14 13.5 34.5t2.5 44t-4.5 46.5t-3.5 39v172q0 10 -8 22h58q29 -12 51 -50t35 -66q0 25 2 59.5t-13 56.5h74q-12 -10 -11 -24t1 -29v-246q0 -14 -1 -31.5t11 -27.5h-207zM797 -356l59 223h64l59 -223h-51l-15 51h-53l-10 -51h-53zM844 47 q0 -14 11 -23.5t25.5 -11.5t28 3.5t15.5 19.5q-4 63 -21.5 127.5t-58.5 116.5v-232zM865 506.5q-3 19.5 7 32.5q10 12 33 13t27 -22q0 -10 -7 -15t-15.5 -5t-14.5 4t-6 14q-12 -4 -12 -14t7 -20.5t17 -19.5t17 -11q14 -4 34.5 -4t30.5 10q20 20 16 40.5t-19 38t-35.5 32 t-31.5 24.5q-18 16 -30.5 42t-12.5 52.5t13.5 48t44.5 27.5q27 6 54.5 4t51.5 -2l-6 -10q0 -14 7 -29.5t13.5 -31t5.5 -29.5t-16 -27q-14 -10 -33.5 -9t-21.5 22q0 12 7 17t15.5 5t14.5 -5t4 -13q14 2 14 12t-8 21.5t-18.5 20.5t-18.5 11q-14 4 -32.5 1t-24.5 -19 q-12 -25 -4 -43.5t24.5 -32.5t37 -27.5t32.5 -27.5q14 -20 22.5 -47t4.5 -52.5t-20.5 -44t-47.5 -22.5q-27 -2 -53.5 -1t-54.5 1q8 4 5 19.5t-8.5 33.5t-8.5 37.5zM866 -266h41q-4 23 -9 46t-11 46zM874 1014q4 -12 16.5 -10t14.5 14q2 18 -10 43q-6 -8 -14.5 -22.5 t-6.5 -24.5zM991 1059l4 -15q10 -14 25 -6q16 4 23.5 21.5t3.5 34.5q-2 10 -9.5 16t-21.5 -4q-20 -14 -25 -47zM997 4q12 14 15.5 36.5t2.5 47.5t-4 48.5t-3 39.5v127q0 16 1 29.5t-12 29.5h76q-10 -10 -13 -30.5t-2 -42t3 -43t2 -35.5v-166h104q23 0 55.5 -3t55.5 13 q-4 -8 -7 -29.5t-14 -21.5h-260zM1006 -135q29 4 64.5 6t62.5 -14q31 -23 22.5 -58t-37.5 -49q14 -6 21.5 -19.5t10.5 -28.5t5 -30.5t8 -27.5h-51q-6 12 -8 27.5t-6 28.5t-12.5 22.5t-26.5 7.5v-86h-53v221zM1057 -196.5q2 -24.5 2 -34.5h12q18 0 26.5 10t6.5 22.5 t-11.5 21.5t-27.5 7q-10 -2 -8 -26.5zM1065 416q10 12 11 25.5t1 27.5v248q0 14 -1 30.5t-11 28.5h127q25 -25 25.5 -59.5t-9.5 -67.5q-4 -8 -15 -29.5t-20.5 -45t-11.5 -45t10 -27.5q-6 12 4.5 13t21.5 -4t14 -14.5t-17 -17.5q-25 -10 -35 9.5t-8 35.5q0 16 6 32.5t8 31 t-4 22.5t-28 6v-155q16 0 41.5 -3t44.5 11q-6 -14 -8.5 -26.5t-6.5 -26.5h-139zM1098 362h78q-12 -29 2 -65.5t26 -60.5q12 29 22.5 62.5t0.5 63.5h80q-23 -12 -27 -38.5t-10 -47.5q-6 -20 -23.5 -47.5t-17.5 -48.5q0 -23 -3 -56.5t13 -51.5h-76q18 18 14.5 53.5t-3.5 58.5 q-12 23 -21.5 46.5t-17.5 45.5q-10 23 -14.5 46.5t-22.5 39.5zM1133 662q20 0 45.5 2t27.5 32q0 16 -7 23.5t-18.5 10.5t-24.5 3h-23v-71zM1192 -133h53v-223h-53v223zM1245 1092q-4 -10 1 -27.5t22 -3.5q12 12 21 33t11 39q-2 8 -4 13t-12 1q-16 -8 -25.5 -23.5 t-13.5 -31.5zM1274 -328q0 14 9 22.5t21.5 8.5t21.5 -8t9 -23q0 -16 -9 -23t-21.5 -7t-21.5 7t-9 23zM1294 813q-8 -6 4 -8q27 -10 57.5 -13.5t62.5 -3.5h62.5t59.5 -2t57.5 -5t57.5 -13q29 -8 51.5 -23.5t48.5 -27.5q0 61 -21.5 106t-80.5 68q35 31 69.5 58.5t75.5 43.5 q-49 47 -110.5 77t-126.5 46q-2 -57 -3.5 -112.5t-5.5 -112.5l-2 2v-6q-27 -2 -64.5 -4t-74.5 -9.5t-68.5 -21.5t-48.5 -39zM1364 -133h57l68 -152q-4 39 -4 77v75h47v-223h-51q-20 39 -37 78.5t-35 76.5q2 -39 2 -77.5v-77.5h-47v223zM1393 1157q16 20 31.5 40t19.5 46h-2 q-37 -37 -49 -86zM1562.5 -268q-8.5 37 14.5 80q12 29 40 43t62 14h10.5t17.5 -2t16.5 -4t7.5 -4l-9 -41q-27 12 -48 8t-36.5 -18.5t-20.5 -37t3 -46.5q16 -47 61 -41q10 2 8.5 21.5t-1.5 27.5h-27v41h76v-121q-41 -16 -79 -9t-62.5 29.5t-33 59.5z" />
<glyph unicode=":" horiz-adv-x="495" d="M2 125q2 55 43 98q39 43 91 47.5t87 -30.5q35 -37 33 -92.5t-43 -98.5q-39 -43 -91 -47t-87 31q-35 37 -33 92zM180 681q2 56 41 99q39 41 91 46.5t87 -31.5t33 -92.5t-41 -98.5q-41 -43 -92 -47t-86 31q-35 37 -33 93z" />
<glyph unicode=";" horiz-adv-x="495" d="M-100 -63q53 12 83.5 26t44 30.5t12.5 31t-9 26.5q-29 35 -24 87t40 91t81 43.5t79 -28.5q45 -47 35.5 -105.5t-51 -112t-108.5 -94.5t-136 -51zM180 681q2 56 41 99q39 41 91 46.5t87 -31.5t33 -92.5t-41 -98.5q-41 -43 -92 -47t-86 31q-35 37 -33 93z" />
<glyph unicode="&#x3c;" horiz-adv-x="735" d="M104 377l41 123l476 233l43 -63l-320 -277l102 -229l-55 -64z" />
<glyph unicode="=" horiz-adv-x="731" d="M82 469l33 82h528l-33 -82h-528zM158 651l32 82h529l-33 -82h-528z" />
<glyph unicode="&#x3e;" horiz-adv-x="735" d="M104 164l320 276l-102 230l55 63l287 -276l-41 -123l-476 -234z" />
<glyph unicode="?" horiz-adv-x="774" d="M4 125q2 55 41 98t91 47.5t87 -30.5q35 -37 33 -92.5t-41 -98.5q-41 -43 -92 -47t-86 31q-35 37 -33 92zM63 948.5q-8 57.5 7 104.5q18 61 54 105t82 73t100 43t110 18q55 4 109.5 -4t101.5 -31.5t82.5 -63.5t52.5 -99q16 -59 6 -116.5t-39 -107t-73 -90.5t-95 -65 q-49 -25 -97 -47.5t-91 -55.5q-23 -16 -46.5 -36.5t-43 -46t-31.5 -54.5t-8 -59h-92q-4 104 27.5 181t80.5 135.5t108.5 98t114.5 70.5q37 20 68 54t46 74t11 80t-37 73q-31 31 -70.5 40t-80.5 4t-80 -24.5t-66 -46.5q-33 -33 -52 -79t-15 -93q4 -41 30.5 -70.5t61.5 -52.5 q-4 -23 -23.5 -39t-47 -21t-60.5 6t-64 46q-33 39 -41 96.5z" />
<glyph unicode="@" horiz-adv-x="1587" d="M-17 206q1 132 49 267t138 261t214 222.5t277.5 149.5t327.5 41q139 -8 234.5 -62.5t152 -136.5t75.5 -184t6 -206.5t-56 -205t-111.5 -178.5t-159 -125t-198.5 -47q-78 0 -121 38t-47 120q-47 -59 -112.5 -108.5t-151.5 -49.5q-90 0 -140.5 61.5t-58.5 153.5t24.5 199.5 t106.5 200t189.5 153.5t275.5 61q111 0 173.5 -29.5t100.5 -90.5q-41 -123 -75 -222q-14 -43 -28.5 -85t-27 -76.5t-21.5 -60t-11 -34.5q-27 -74 -20 -105.5t34 -31.5q45 0 96 40t96.5 107.5t81 153.5t51 177.5t6 179.5t-54.5 159.5t-128 117.5t-216 54q-145 8 -274 -42 t-231.5 -139t-178 -204.5t-115.5 -238.5t-42 -244t41 -217t135 -159.5t237 -71.5q98 -4 188.5 16t170.5 63l69 -41q-102 -53 -216.5 -80.5t-243.5 -19.5q-180 10 -293 81t-166 178.5t-52 239.5zM536.5 142.5q8.5 -50.5 45.5 -50.5q25 0 48 14.5t44.5 39t42 56t37.5 64.5 q39 76 75 174l107 299q-4 10 -18.5 22.5t-43.5 12.5q-59 0 -113 -50t-99.5 -126t-77 -165t-44 -164.5t-4 -126z" />
<glyph unicode="A" horiz-adv-x="1685" d="M3 301q5 94 28 172q27 90 76 168t120 135q16 10 31.5 21.5t32.5 21.5q-4 29 -4 57.5t2 57.5q4 61 17 122.5t40 119.5q47 102 126 159.5t187 79.5q70 13 140 14q60 -1 118 -11q127 -22 254 -50q66 -16 130.5 -28.5t130.5 -18.5q58 31 120 48q34 9 74 10q32 0 68 -7 q43 -8 49 -28q1 -5 1 -10q0 -14 -14 -30q-18 -20 -56 -34q-25 -9 -55 -8q-15 0 -32 2q-29 -29 -55.5 -58.5t-50.5 -60.5q-59 -72 -111.5 -146.5t-105.5 -152.5l-146 -217q33 -29 60.5 -65t54.5 -77q25 129 84 248t131 230q47 72 96 141.5t111 130.5q10 10 18 2t4 -18 q-61 -121 -111 -243t-79 -255q-29 -123 -45 -254q-6 -48 -6 -94q0 -82 18 -162q16 -72 58 -124t104 -105q12 -10 6 -17.5t-22.5 -11.5t-36 -5t-33.5 1q-41 4 -81 17.5t-75 37.5q-70 51 -107.5 127t-41.5 160q-6 96 -46 158.5t-102 119.5q-59 -84 -121.5 -163.5 t-130.5 -157.5q-57 -68 -122.5 -129.5t-141.5 -108.5q-65 -42 -141 -72q-63 -25 -129 -25q-13 0 -27 1q-104 6 -162 66q-60 59 -82 142q-18 68 -18 143q0 17 1 34zM75 227v-8q0 -41 9 -79q10 -42 37 -77q41 -53 103 -59q11 -1 23 -1q50 0 97 22q82 37 143.5 107t114.5 142 q76 102 143.5 209t137.5 215q-129 53 -267 54q-53 0 -104 -9.5t-102 -25.5q12 -14 26.5 -25.5t30.5 -19.5q41 -23 87 -27q15 -1 31 -1q31 0 62 5q8 0 5 -9t-10 -20.5t-15.5 -21.5t-10.5 -10q-41 -35 -94 -35q-63 0 -114.5 36t-77.5 89q-162 -113 -221 -281 q-14 -37 -23.5 -81t-10.5 -89zM354 854q80 39 177 39h9q102 -2 195 -31q106 -35 197 -88q23 35 47 72t51 72q66 92 139.5 176t165.5 161q-97 1 -197 7q-73 4 -147 5q-27 0 -53 -1q-104 -2 -207.5 -16.5t-191.5 -73.5q-39 -29 -74 -64t-61 -76t-40 -87q-10 -35 -11 -73 q0 -11 1 -22z" />
<glyph unicode="B" horiz-adv-x="1675" d="M2 252v16q0 70 15 140q17 78 46 139q25 49 60 96t80 88q2 84 26.5 159t65.5 139.5t93 118.5t112 97q74 51 163 82t184 43q67 8 134 8q28 0 55 -1q94 -5 178 -25q63 -16 124 -46t104 -75q42 -45 62 -105q10 -31 10 -66q0 -34 -9 -71q-16 -66 -60 -119t-110 -92 q113 -66 170 -180q33 -68 41 -140q3 -26 3 -53q0 -47 -9 -91q-14 -70 -50 -135.5t-87 -117.5q-53 -51 -116.5 -83.5t-134.5 -49.5q-72 -18 -144 -20h-24q-60 0 -118 8q-72 10 -136 43t-105 92q-47 -49 -106.5 -85t-129.5 -48q-31 -5 -63 -5q-40 1 -82 9q-74 16 -129 62 q-59 49 -85 119.5t-28 148.5zM74 213q8 -76 50 -137.5t122 -71.5q16 -2 31 -2q59 0 106 31q59 39 100 102q43 68 76 141.5t60.5 149.5t56.5 152.5t63 148.5q29 59 68 123.5t90 118t113.5 89.5t138.5 40q25 2 51.5 -3t48.5 -18q6 -4 8 -10t-8 -10q-72 -37 -123 -98.5 t-90 -133.5q36 12 78 12q6 -1 14 -1q50 -2 97 -15q70 59 82 156q2 17 2 34q1 41 -13 75q-20 50 -56 89t-84 68t-99 45q-84 26 -171 26q-28 0 -58 -2q-118 -12 -220 -71q-111 -66 -185.5 -178.5t-84.5 -243.5q47 17 94 25q23 4 46 4q25 0 50 -4q66 -12 109 -47 q4 -4 15.5 -14.5t6.5 -16.5q-4 -6 -14 -4t-33 4q-15 1 -30 1q-62 1 -116 -13q-68 -16 -126 -52q10 -72 42 -136t89 -111q10 -10 -2 -13.5t-16 -3.5q-27 -2 -58 4q-33 6 -60.5 24.5t-49.5 41.5q-23 23 -37.5 49.5t-24.5 54.5q-78 -80 -120 -184q-32 -79 -32 -163q0 -26 3 -52 zM668 96q43 -86 136 -110q36 -9 75 -10q63 0 135 24q90 31 152.5 97.5t99.5 152.5t50 188q4 31 4 61q0 68 -20 132q-23 63 -71 100q-27 -8 -57.5 -14t-61.5 -7t-60.5 6t-54.5 25l-59 -137q-65 -148 -135 -289q-29 -59 -60.5 -114.5t-72.5 -104.5zM1026 772q2 -6 16 -7 q7 0 15.5 -0.5t16.5 0.5q18 1 35 4t24 5q-8 2 -23.5 5t-31.5 4h-10q-10 0 -20 -1q-14 -2 -22 -10z" />
<glyph unicode="C" horiz-adv-x="1112" d="M5 1084q11 62 65 116q2 2 14 11.5t24.5 16.5t22.5 10t8 -7q-6 -49 -8 -99v-19q0 -39 6 -76q8 -46 27.5 -88t54.5 -79q6 14 13.5 27.5t15.5 28.5q70 119 166 221t219 168q55 29 125.5 52.5t145.5 30.5q27 3 53 3q47 -1 93 -9q72 -12 132 -53q56 -41 80 -97q22 -52 23 -108 q0 -6 -1 -10q-2 -62 -24.5 -122t-59.5 -109q-84 -109 -208 -165t-253 -81q-93 -18 -193 -20h-16q-91 0 -178 22l-35 -80q-23 -51 -42 -110.5t-29 -119.5q-7 -43 -7 -85q0 -16 1 -34q4 -60 28 -114q16 -35 42 -59t57 -41q42 -22 88 -22q19 0 39 4q68 12 122 45q53 31 96.5 77 t69 101t32.5 117q2 17 2 34q0 44 -13 89q-4 14 8 9t16 -7q82 -51 101 -148q4 -22 4 -44q0 -51 -20 -99q-28 -70 -78 -123q-47 -47 -109.5 -79t-132.5 -44q-40 -7 -80 -7q-30 0 -60 4q-70 9 -128 40q-51 27 -90 67.5t-67 90t-45.5 103.5t-25.5 110q-7 48 -7 96q1 58 11 116 q20 106 60 207q-49 39 -89 97q-41 58 -59 120q-12 39 -11 78q0 23 4 46zM410 760q72 -23 146 -30q47 -4 91 -4q26 0 51 1q98 6 197.5 36t179.5 89q45 35 79 77t54 95q18 50 18 107q0 62 -36 108q-31 39 -77 49q-26 6 -52 6q-21 0 -43 -4q-49 -8 -96 -27.5t-82 -37.5 q-139 -78 -240.5 -199t-189.5 -266z" />
<glyph unicode="D" horiz-adv-x="1673" d="M2 252v15q0 70 16 141q18 78 48 139q35 72 92 138.5t131 109.5q16 82 58 155.5t99 136.5q80 88 173.5 157t207.5 104q87 26 179 30q17 1 33 1q75 0 147 -13q111 -23 202 -86t148 -162q58 -104 78 -221q11 -64 11 -129q0 -53 -7 -106q-14 -115 -59.5 -224.5t-114 -204 t-160.5 -167t-203 -115.5q-49 -21 -109 -33q-51 -11 -102 -10h-17q-60 2 -115.5 21.5t-96.5 62.5q-16 16 -33 43q-47 -43 -100 -75t-119 -42q-31 -5 -63 -5q-40 1 -82 9q-74 16 -129 62q-59 49 -85 119.5t-28 148.5zM74 213q8 -76 51 -137.5t123 -71.5q16 -2 31 -2 q59 0 105 31q58 39 99 102q45 68 77 141.5t60.5 149.5t56.5 152.5t62 148.5q29 59 69 123.5t90 118t112.5 89.5t138.5 40q27 2 52.5 -2t49.5 -19q10 -6 8 -11t-8 -9q-66 -33 -111.5 -84t-81.5 -112.5t-64.5 -127t-55.5 -129.5q-66 -147 -135 -289q-31 -63 -66 -122.5 t-82 -110.5q18 -47 53 -69.5t77 -28.5q20 -3 40 -3q23 -1 47 3q46 8 84 24q80 33 142.5 95.5t108.5 139t80 160.5t56 162q23 78 39 171q11 69 11 136q1 24 -1 48q-6 92 -39.5 173t-107.5 136t-169 73q-51 10 -100 10q-43 0 -85 -7q-86 -16 -163 -62.5t-136 -112.5 q-51 -55 -92 -128.5t-64 -155.5q19 2 38 2q34 0 68 -6q54 -10 97 -45q27 -20 23 -33q-2 -6 -13.5 -3t-34.5 5q-14 1 -29 1l-167 -30q-1 -18 -1 -35q-1 -60 15 -116q20 -72 76 -131q6 -6 0 -9.5t-17.5 -4.5t-21.5 0t-12 1q-49 10 -86 43q-41 33 -62.5 80t-25.5 99 q-51 -39 -92 -90.5t-69 -111.5q-28 -58 -41 -122q-9 -43 -9 -87q0 -20 2 -40z" />
<glyph unicode="E" horiz-adv-x="1071" d="M14 522q20 110 86 206.5t170 154.5q99 52 202 51h22q114 -6 225 -45q-23 29 -37 57q-92 37 -158.5 102.5t-83.5 165.5q-2 17 -2 34q0 30 6 62q10 48 45 83q12 12 26.5 21t31.5 18q2 0 11 3t18.5 4t15.5 0t4 -7q-16 -61 -26 -125q-3 -18 -2 -35q0 -45 18 -88 q20 -49 59 -90q0 29 3 57.5t14 56.5q31 106 121.5 172t201.5 72q9 1 18 0q57 0 113 -20q64 -24 111 -72q63 -66 73 -150q2 -13 2 -25q0 -70 -49 -132q-53 -70 -135 -106t-168 -42q-23 -2 -47 -2q-47 0 -96 8q6 -14 17.5 -27.5t33.5 -33.5q29 -8 63.5 -25.5t59.5 -46.5 q18 -20 19.5 -51t-37.5 -31t-76 31t-62 61q-75 20 -149 20q-46 0 -92 -8q-120 -20 -219 -98q-49 -39 -90.5 -92t-68 -113.5t-34.5 -126.5q-3 -26 -4 -52q0 -39 8 -76q14 -66 52 -117t92 -85q52 -34 116 -46q27 -5 55 -5q36 0 72 9q63 14 115.5 50t89.5 87q36 51 56 111 q15 46 15 96q0 15 -1 31q-2 33 -13 63q-8 25 15 21q25 -6 45 -28.5t35 -45.5q33 -54 32 -118q0 -65 -26 -126q-27 -59 -70 -102t-97 -71q-53 -28 -115 -40q-47 -9 -95 -9q-15 0 -31 1q-111 6 -216 52t-179 132q-77 86 -103 198q-14 62 -15 124q0 49 9 98zM793 995 q47 -18 98 -26q37 -6 74 -6q14 0 27 1q50 3 96.5 20t82.5 52q29 29 51 68q18 31 18 64q0 9 -1 18q-10 55 -61 82q-35 18 -72 19h-7l-67 -9q-37 -10 -69.5 -29.5t-59.5 -44.5q-41 -41 -73.5 -95t-36.5 -114z" />
<glyph unicode="F" horiz-adv-x="1232" d="M8 262q-4 34 -4 68q0 58 12 118q20 94 60 177q43 92 115.5 164.5t170.5 103.5q47 15 93 15q57 0 112 -23q20 -8 39 -23.5t32 -32t19.5 -33t4.5 -26.5q-2 -6 -11.5 -5t-24 4t-31.5 7t-36 6q-24 3 -47 3q-56 -1 -108 -17q-74 -24 -140 -74q-82 -59 -132 -147t-62 -191 q-3 -26 -3 -54q0 -30 3 -60q6 -60 30.5 -111t67.5 -88t108 -43q10 -1 19 -1q54 -1 94 29q47 34 78 87q41 66 73.5 134t67.5 138q23 47 54.5 94t72.5 78q29 23 64 36t71 21q-61 41 -91.5 101.5t-45.5 126.5q-86 33 -148.5 99.5t-74.5 164.5q-2 13 -2 26q0 20 4 40 q6 34 21.5 64t41 53.5t60.5 33.5q2 0 11 3t20.5 4t17.5 -1t2 -10q-16 -31 -28.5 -64.5t-17.5 -68.5q-2 -16 -3 -32q0 -19 4 -38q6 -35 27 -67q25 -39 63 -72q10 100 64.5 179t140.5 138q133 95 291 95q23 0 47 -2q41 -4 82 -16.5t76.5 -35t62.5 -54.5t37 -75q5 -23 5 -45 q-1 -46 -23 -86q-34 -59 -87 -102q-111 -98 -248 -137q-109 -31 -228 -31q-31 0 -62 2q-2 -20 0 -47t10 -52.5t24.5 -44t43.5 -22.5q16 6 42.5 11t54.5 5t52.5 -6t36.5 -22q23 -29 -2 -51q-23 -20 -59 -19h-7q-23 2 -47 5t-47 9q-41 -10 -63.5 -45.5t-40.5 -70.5 q-20 -41 -36.5 -85t-37.5 -85q-35 -78 -83 -149.5t-114 -127.5q-80 -66 -183 -89q-37 -8 -74 -8q-65 0 -128 26q-98 41 -154.5 130t-68.5 191zM907 897q68 -17 136 -17q71 0 141 18q140 36 237 138q29 33 49 77q9 20 8 40q0 24 -12 47q-14 29 -38 44q-22 16 -52 21 q-18 3 -38 3q-11 0 -22 -1q-30 -3 -56 -12q-59 -18 -112.5 -55t-100.5 -80q-96 -92 -140 -223z" />
<glyph unicode="G" horiz-adv-x="1136" d="M4 55q2 47 18.5 89t38.5 73q23 31 60 52.5t84 23.5q-29 70 -37 147q-4 34 -4 66q0 40 6 78q12 90 43 175t78 163l-2 2q-31 49 -45 110q-8 40 -8 79q0 21 2 42q8 59 37.5 110.5t89.5 80.5q2 2 13 6t22.5 6t19.5 1t4 -9q-12 -29 -24.5 -65t-21.5 -76t-10 -81v-7 q0 -37 9 -68q74 92 169 171t206 124q53 20 115.5 34.5t126.5 15.5h8q61 0 118 -14q60 -16 109 -55q47 -37 61 -84q7 -28 7 -56q0 -20 -3 -41q-10 -50 -36.5 -97t-61.5 -84q-86 -92 -207 -145.5t-244 -69.5q-45 -6 -91 -6q-28 0 -56 2q-74 6 -139 34q-47 -86 -85 -179 t-48 -193q-2 -20 -2 -41.5t2 -43.5q4 -44 21.5 -81t48 -61.5t79.5 -30.5q8 -1 16 -1q34 0 65 14q38 17 70.5 47t60.5 64.5t50 65.5q35 45 64.5 92t70.5 90q-66 -2 -128 -7t-119 -34q-10 -6 -13.5 5.5t-1.5 30t8.5 37.5t16.5 32q23 33 59.5 50t77.5 17q37 0 82 -21.5 t90 -31.5q39 33 86 45q22 5 39 5q27 0 41 -13q7 -7 7 -16q0 -18 -30 -43q-18 -16 -38.5 -24.5t-42.5 -14.5q-10 -10 -20.5 -35t-20 -55.5t-16.5 -62.5t-11 -54q-23 -96 -53.5 -184.5t-83.5 -169.5q-53 -82 -127 -149t-168 -97q-63 -22 -133 -22h-7q-73 1 -139 26 q-98 39 -163 125q-60 81 -60 180v12zM131 38q-3 -22 -3 -43q0 -32 7 -63q12 -51 46 -89t93 -50q25 -5 49 -5q26 0 51 6q46 11 84 38t69.5 63.5t56.5 79.5q27 45 49 90.5t45 92.5q-39 -25 -81 -42.5t-86 -23.5q-19 -3 -38 -3l-50 5q-44 8 -87 35q-51 31 -90 90 q-55 -37 -80 -82q-27 -45 -35 -99zM522 883q80 -41 178 -43h14q92 0 183 26q78 23 151.5 61t127.5 101q18 23 36.5 55.5t25.5 66.5q3 15 3 29q0 19 -5 37q-9 31 -42 54q-31 18 -66 22q-15 2 -31 2q-19 0 -40 -3q-37 -5 -71.5 -17.5t-63.5 -26.5q-123 -59 -222.5 -154.5 t-177.5 -209.5z" />
<glyph unicode="H" horiz-adv-x="1652" d="M5 342q5 78 26.5 153.5t56.5 135.5q31 53 78 102t104 84q-2 31 -2 63q0 24 1 48q3 56 14 102q18 96 66 185.5t134 142.5q98 59 207 62h19q99 0 194 -29q57 -16 116.5 -40t125.5 -28q45 23 90 42q32 13 68 13q15 0 32 -2q29 -4 36 -25.5t-19 -43.5q-18 -16 -38 -23.5 t-40 -13.5q-10 -14 -19.5 -28.5t-19.5 -31.5q-29 -51 -51.5 -102t-44.5 -104q-29 -70 -56.5 -139.5t-56.5 -141.5q98 -68 174 -145l33 -37q10 109 45 213t88 196q43 74 101.5 149t131 132t156.5 91q68 28 143 28q18 0 35 -2q12 0 12 -13q0 -7 -6 -12q-59 -47 -114.5 -99.5 t-102.5 -111.5q-55 -72 -99 -146.5t-79 -156.5t-61.5 -167t-42.5 -173q-8 -49 -14 -101q-5 -44 -4 -89v-16q1 -52 13.5 -103t37.5 -99q6 -12 16 -24t14 -25q8 -16 -1 -19t-24.5 0t-30.5 9t-22 10q-70 37 -111.5 105.5t-62.5 142.5q-20 82 -24 170q-23 45 -57.5 83t-75.5 71 q-43 35 -97 67l-45 -104q-49 -115 -109.5 -225.5t-142.5 -204.5q-37 -43 -79.5 -81t-92.5 -66q-49 -26 -103 -42q-43 -12 -90 -13q-12 0 -24 1q-88 4 -149.5 42t-97.5 98t-50 134q-11 55 -10 112q0 20 1 40zM81 286q-2 -21 -2 -41q0 -47 11 -93q16 -64 70 -107 q55 -44 119 -44q13 0 27 2q80 11 140 65q72 66 118 156.5t85 178.5q35 82 65.5 165t63.5 167q-87 19 -180 19h-14q-100 -2 -193 -37q43 -47 107 -63q39 -9 79 -9q26 0 52 4q8 0 7 -6t-5 -14t-11 -17l-6 -8q-31 -37 -77 -47q-18 -4 -36 -4q-31 -1 -63 11q-50 18 -84 52 q-27 25 -43 60q-41 -29 -77.5 -65t-65.5 -79q-31 -45 -55.5 -110.5t-31.5 -135.5zM336 854q90 40 187 40q27 0 53 -3q126 -14 241 -57q39 92 85.5 180t105.5 170q27 37 59 71q-88 1 -177 9q-28 3 -55 2q-63 0 -128 -13q-84 -16 -158 -59t-127 -109q-42 -47 -66 -107 q-21 -52 -20 -106q-1 -9 0 -18z" />
<glyph unicode="I" horiz-adv-x="1101" d="M5 342q5 78 26.5 153.5t56.5 135.5q31 53 78 102t104 84q-4 33 -4 66q0 23 2 45q4 56 15 102q18 96 66 185.5t134 142.5q98 59 207 62h19q99 0 194 -29q57 -16 117.5 -40t124.5 -28q16 8 24 14q35 19 80 33q26 8 50 8q18 0 36 -4q35 -9 35 -33q0 -19 -18 -34 q-18 -14 -38 -22.5t-42 -14.5q-20 -27 -37 -60q-29 -51 -51.5 -102t-44.5 -104q-47 -115 -91 -230t-98 -227q-51 -113 -109.5 -224.5t-140.5 -205.5q-37 -43 -79.5 -81t-92.5 -66q-49 -26 -103 -42q-43 -12 -90 -13q-12 0 -24 1q-88 4 -149.5 42t-97.5 98t-50 134 q-11 55 -10 112q0 20 1 40zM80 285q-1 -13 -1 -27q0 -50 12 -103q15 -67 69 -110q32 -27 70 -36q26 -6 53 -6q12 0 23 1q38 4 74 20.5t64 43.5q72 66 119 156.5t86 178.5q43 98 80 200t77 202t88 196.5t114 182.5q14 18 30.5 38.5t32.5 37.5q-88 0 -179 6q-22 1 -44 1 q-70 0 -141 -14q-84 -16 -158 -59t-127 -109q-42 -49 -66 -109q-21 -52 -21 -106q0 -9 1 -18q55 20 115 25h11q47 1 90 -15q48 -18 85 -53q6 -4 21.5 -19.5t5.5 -25.5q-4 -4 -16.5 -2t-16.5 2q-22 3 -44 3q-39 -1 -77 -9q-62 -14 -123 -39q43 -49 109 -65q40 -9 81 -9 q26 0 52 4q8 0 7 -6t-5 -14t-11 -17l-6 -8q-24 -31 -58 -42q-25 -8 -51 -8q-9 0 -19 1q-36 4 -70.5 20.5t-61.5 40.5q-25 23 -45 60q-86 -61 -141 -144q-35 -57 -58.5 -119.5t-29.5 -127.5z" />
<glyph unicode="J" horiz-adv-x="1316" d="M3 234q3 102 32 186q31 92 91 171t141 132t177 75q49 11 99 11q47 0 94 -10q18 -4 44 -12.5t52.5 -20.5t51 -29.5t38.5 -40.5q12 -18 -4 -18h-28q-14 1 -28 1q-80 0 -157 -19q-90 -23 -172 -70t-146.5 -114.5t-109.5 -151.5q-23 -43 -39 -90.5t-22 -96.5q-3 -27 -3 -54 q0 -22 2 -45q5 -50 25 -95q37 -84 115 -119q63 -28 132 -28q16 0 32 1q86 6 149.5 62.5t108.5 122.5q59 86 104 180t85 191.5t76 195.5t77 194q41 98 86 191.5t104 181.5q33 51 68 90q-63 -4 -125.5 -5t-124.5 -5q-61 -4 -120.5 -13t-119.5 -30q-49 -16 -93 -37.5t-87 -46.5 q-12 -6 -17 4t-5 25.5t2 31t2 19.5q12 68 55 123q45 53 109.5 83.5t134.5 35.5h19q70 0 132 -25q72 -29 148 -49q51 -14 108 -15q4 -1 8 -1q53 0 101 22q18 8 43 20.5t41 18.5q35 12 71 14h11q31 0 61 -10q10 -4 10 -11.5t-8 -11.5q-41 -16 -73.5 -43.5t-58 -61.5t-46 -73 t-39.5 -75q-43 -90 -81 -181.5t-74 -183.5q-78 -197 -166 -387q-43 -88 -90.5 -175t-106.5 -165q-59 -80 -137 -148.5t-172 -105.5q-78 -29 -168 -29t-168 33q-92 37 -148.5 116t-81.5 174q-21 85 -21 174v22z" />
<glyph unicode="K" horiz-adv-x="1644" d="M3 342q5 78 26.5 153.5t56.5 135.5q33 53 80 103t104 85q-2 30 -2 60q0 23 1 45q3 52 14 106q18 98 66 187.5t136 142.5q98 59 206 61h13q101 0 199 -30q57 -16 116.5 -40t125.5 -28q35 20 85 43q32 15 66 15q19 0 39 -5q29 -6 37 -25.5t-20 -43.5q-16 -16 -37 -23.5 t-43 -13.5q-61 -84 -106.5 -192.5t-86.5 -219.5q57 0 113 -24q49 35 89 82t75 94q37 49 74.5 100t80.5 98t92.5 86t108.5 64q25 10 55.5 17t61.5 5t58.5 -14t45.5 -39q2 -3 2 -7q0 -3 -1 -6q-3 -7 -9 -7q-53 -2 -93 -45t-75 -84q-84 -104 -178 -197q-66 -59 -142.5 -115.5 t-162.5 -95.5q29 -35 49 -77t32.5 -88t19.5 -92t11 -87q6 -68 16.5 -137.5t35.5 -134.5q10 -31 26.5 -58.5t44.5 -46.5q27 -16 57.5 -20t61.5 -4q12 0 11 -9.5t-8 -19.5t-15 -18.5t-10 -10.5q-43 -37 -103 -43q-14 -2 -28 -2q-45 0 -85 20q-54 26 -94 66q-45 47 -69.5 103.5 t-33.5 116.5q-7 50 -7 101v23q2 62 12 121q4 29 8 63.5t4 69.5t-7 68t-25 59q-37 -8 -75 -15q-24 -4 -50 -4q-15 0 -29 1l-74 -168q-51 -113 -109.5 -224.5t-140.5 -205.5q-37 -43 -81 -81t-93 -66q-49 -26 -103 -42q-43 -12 -88 -13q-12 0 -24 1q-88 4 -149.5 42t-97.5 98 q-38 60 -52 134q-11 55 -10 112q0 20 1 40zM80 285q-1 -13 -1 -27q0 -51 12 -104q15 -68 67 -109q55 -44 120 -44q14 0 28 2q82 11 138 65q72 66 119 156.5t84 178.5q43 98 81 200t78 202t88 196.5t114 182.5q14 18 28.5 36.5t30.5 34.5q-90 1 -178 9q-27 3 -55 2 q-63 0 -129 -13q-170 -35 -285 -168q-42 -49 -66 -109q-21 -52 -20 -106v-18q55 20 117 25h10q46 1 90 -15q49 -18 86 -53q6 -4 18.5 -21.5t8.5 -23.5q-4 -4 -16.5 -2t-16.5 2q-24 3 -48 3q-37 0 -73 -7q-62 -12 -123 -41q43 -49 107 -65q39 -9 80 -9q27 0 55 4q12 2 9 -10 t-17.5 -28.5t-38 -33t-52.5 -20.5q-16 -3 -32 -3q-32 0 -64 12q-49 20 -84 55q-27 27 -41 55q-86 -61 -141 -144q-37 -57 -60.5 -119.5t-27.5 -127.5zM1047 774l75 14q-4 4 -26 8q-7 1 -14 1q-15 0 -29 -6z" />
<glyph unicode="L" horiz-adv-x="1476" d="M9 77q3 42 40 89q47 55 107 80q60 26 126 32q25 2 51 3q43 -1 85 -7q70 -10 135 -28l33 73h-17q-83 -1 -167 17q-92 20 -173 65q-53 29 -100 69t-74 95q-14 29 -19 61.5t1 63.5q0 2 4 14.5t9 23.5t11.5 17t10.5 -2q41 -78 101 -136t134 -97t156 -60.5t168 -25.5 q20 47 38.5 94t39.5 94q49 121 104 240t127 229q39 57 96.5 122t128 117t150.5 84q62 25 125 25l35 -2q51 -4 94 -33.5t65 -76.5q27 -55 28 -115v-8q0 -58 -14 -112q-16 -58 -43.5 -114.5t-60.5 -101.5q-72 -100 -162 -187t-190 -157q-86 -59 -179 -102t-194 -70 q-25 -41 -51.5 -80t-56.5 -75q70 -25 156.5 -66t173.5 -76t167 -50q27 -5 51 -5q48 0 84 20q8 4 20.5 13.5t16.5 5.5q8 -10 2 -38t-16 -44q-42 -67 -104 -91q-60 -24 -127 -23h-5q-70 1 -141 19.5t-131 39.5q-84 29 -164 63.5t-162 69.5q-78 -59 -167 -86q-73 -22 -148 -22 q-17 0 -33 1q-49 2 -91 22q-43 21 -65 54q-20 29 -19 65v10zM122 4q18 -12 45 -18q24 -5 51 -5h10q32 1 67 7q41 10 78 32.5t65 51.5l-92 37q-39 14 -83 17q-11 1 -22 1q-32 0 -59 -7q-38 -10 -60 -30q-21 -19 -20 -46q0 -27 20 -40zM872 442q88 20 170 64q80 41 154 106.5 t131 147.5t96 174t52 186q3 19 3 41q0 19 -2 40q-6 44 -24 77t-52 46q-12 5 -26 5q-26 0 -59 -16q-41 -20 -72 -54t-53.5 -73t-41 -82t-34.5 -82q-41 -98 -76.5 -193.5t-76.5 -191.5q-20 -49 -42 -98.5t-47 -96.5z" />
<glyph unicode="M" horiz-adv-x="1955" d="M8 364q8 80 34 156t64 133q31 45 73 86t91 72q-4 34 -4 69q0 24 2 46q4 58 15 106q20 98 70 186.5t139 141.5q98 57 204.5 57t210.5 -31q66 -20 132.5 -40.5t138.5 -28.5q35 25 76.5 42t82.5 17q25 0 39.5 -9t14.5 -22.5t-14.5 -26.5t-43.5 -22q-29 -23 -46 -56.5 t-27.5 -70t-16.5 -75.5t-10 -72q-10 -89 -10 -177q0 -23 1 -45q3 -110 25 -225q33 66 70 125.5t78 112.5q106 145 243.5 265t303.5 192q31 12 70.5 24.5t82.5 23.5t86 18t78 12q19 5 19 -11q0 -9 -13 -14q-80 -33 -146.5 -87t-119.5 -123t-94 -148.5t-72 -161.5 q-25 -66 -47.5 -151t-37.5 -175q-16 -90 -20 -179q-1 -19 0 -37q0 -68 13 -128q8 -35 23.5 -69.5t43.5 -51.5q25 -12 16 -26.5t-44 -14.5q-11 -1 -22 -1q-91 0 -148 46q-64 52 -93.5 132.5t-29.5 179t20 188.5q37 162 122 312.5t200 279.5q-115 -82 -215 -188.5t-180 -230.5 t-136.5 -263t-87.5 -287q-4 -16 -13 -22t-20.5 -3t-20.5 12t-15 21q-89 178 -103 380q-3 52 -4 104q0 151 29 305q-80 -188 -134 -316t-96 -216.5t-77 -146.5t-72 -107q-35 -45 -75 -87.5t-88 -73t-101 -49t-113 -18.5q-92 2 -154.5 41t-96.5 101q-34 63 -46 141 q-7 46 -7 93q0 33 3 66zM79 274q-1 -16 -1 -30q0 -48 12 -96q16 -62 66 -105q32 -29 72 -40q29 -8 60 -8q11 0 22 1q42 4 82 20.5t71 42.5q78 66 130 157t93 181q43 94 81 193.5t78 198t86 192.5t105 182q14 23 31.5 46.5t40.5 45.5q-100 -1 -200 9q-31 3 -64 3 q-71 0 -144 -14q-68 -14 -136 -52t-124 -93q-56 -54 -86 -122q-23 -51 -23 -106q0 -18 3 -36q69 26 134 26h13q47 -2 92 -21.5t78 -55.5q10 -12 12.5 -21.5t-20.5 -7.5q-22 3 -44.5 3t-45.5 -3q-92 -10 -166 -45q41 -49 107 -65q41 -10 84 -10q25 0 51 3q8 2 7 -4t-5 -14 t-11 -17l-6 -8q-29 -31 -75 -45q-18 -4 -37 -4q-32 1 -64 13q-52 20 -86 55q-12 12 -21 25.5t-20 27.5q-96 -63 -153 -162q-29 -47 -51.5 -110.5t-27.5 -129.5z" />
<glyph unicode="N" horiz-adv-x="1728" d="M6 244q-3 34 -3 68q0 141 60 274q27 53 70 107.5t98 97.5q-8 45 -8 92q0 27 3 55q7 76 26 139q23 82 70 155t118 120q100 66 216 70q14 1 27 1q102 0 202 -30q59 -18 117.5 -38t119.5 -30q16 12 49 28.5t71 28t73 14.5t57 -14q23 -16 14.5 -42.5t-38.5 -39.5 q-43 -94 -60.5 -204.5t-27.5 -223.5q-6 -76 -5 -152q0 -61 3 -121q8 -136 36 -271q6 -29 12.5 -54.5t16.5 -52.5q-2 27 -1 53.5t1 53.5q4 102 19.5 203.5t39.5 199.5q23 94 59 183.5t89 170.5q59 88 137 162t178 111q49 18 105 23q31 3 60 3q24 0 48 -2q27 -2 52.5 -8 t41.5 -15q18 -10 17 -22q0 -10 -19 -20q-78 -41 -143 -88t-127 -109q-70 -72 -128 -151.5t-110 -165.5q-49 -82 -91 -170t-72.5 -181.5t-48.5 -188.5q-16 -85 -15 -171v-20q0 -43 10.5 -76t26.5 -68q4 -10 2 -16t-7 -8q-2 -1 -5.5 -1t-7.5 1q-8 2 -11 6q-68 55 -119 135 t-87.5 170t-59 183.5t-29.5 176.5q-4 57 -4 114q0 71 6 142q12 127 50 250q14 47 31.5 94.5t41.5 90.5q-2 -2 -8 -2q-23 -29 -43 -58.5t-37 -60.5q-41 -76 -73.5 -156t-65.5 -158q-72 -168 -147.5 -334.5t-182.5 -318.5q-47 -70 -109.5 -132t-142.5 -97q-64 -28 -137 -28h-5 q-76 1 -142 38q-76 43 -111 122t-43 163zM83 280q-1 -16 -1 -31q0 -26 3 -52q5 -41 22.5 -79t48.5 -67q48 -43 114 -47h16q56 0 105 25q74 39 120 111.5t77 144.5q72 162 125 328.5t123 328.5q35 78 81.5 154.5t122.5 160.5q-104 5 -202 9q-13 0 -25 1q-84 0 -166 -20 q-66 -16 -134.5 -55t-121.5 -94.5t-81 -123.5q-19 -45 -20 -93q0 -23 5 -47q73 41 151 48q11 1 21 1q67 0 131 -39q14 -10 41 -33t31 -39q2 -12 -15.5 -9t-27.5 3q-14 1 -28 1q-51 1 -101 -11q-62 -14 -133 -49q47 -41 111 -53q39 -8 76 -9q24 0 48 4q8 0 7 -7t-6 -16.5 t-12 -17.5l-7 -8q-16 -16 -37 -28.5t-43 -16.5q-16 -3 -32 -3q-45 0 -91 22q-62 28 -92 81q-76 -53 -123 -132t-68 -163q-10 -38 -13 -80z" />
<glyph unicode="O" horiz-adv-x="1527" d="M4 995q8 127 85 224.5t200 132.5q65 17 127 17q66 0 130 -19q124 -37 238 -103q57 41 134 81t160 62q63 16 125 16q20 0 40 -2q82 -7 152 -61q51 -39 83 -94q30 -55 46 -117q15 -58 15 -118v-8q-1 -64 -13 -123q-23 -102 -72 -213t-119.5 -217.5t-161 -202.5t-193.5 -170 t-218 -120t-236 -50h-17q-79 0 -147 33q-76 37 -126 110q-37 53 -52.5 114.5t-15.5 126t12.5 129t32.5 124.5q-51 37 -92 88t-67 111t-40 124q-10 50 -11 97q0 14 1 28zM102 892q-1 -10 -1 -21q-1 -47 15 -93q18 -56 60 -102q29 -31 66 -51q66 156 174 286.5t239 239.5 q-55 17 -115 29q-51 10 -102 10h-18q-60 -2 -116 -22.5t-105 -67.5q-43 -41 -68 -95.5t-29 -112.5zM399 278q0 -45 7.5 -90t23.5 -83.5t47 -63.5q47 -39 103 -42h16q47 1 94 15q55 18 106.5 49t90.5 66q86 72 152.5 164t123.5 190q78 133 120 265.5t56 267.5 q-54 -35 -119 -35q-11 0 -23 1q-79 7 -159 32q-70 20 -137 46.5t-135 53.5q-29 -29 -54.5 -59.5t-49.5 -61.5q-66 -90 -120.5 -191.5t-88.5 -211.5q84 12 165 51q12 6 10.5 -6t-3.5 -17q-16 -63 -76 -97t-125 -40q-8 -31 -12 -60.5t-9 -58.5q-4 -39 -4 -84zM862 1202 q31 -20 74 -47t90 -51.5t96 -43t92 -20.5h9q38 0 69 14q35 16 56 62q-2 47 -14.5 93t-47.5 75q-39 33 -89 39q-16 2 -32 2q-37 0 -75 -9q-56 -13 -114.5 -44t-113.5 -70z" />
<glyph unicode="P" horiz-adv-x="1609" d="M4 223q-2 24 -2 48q0 55 10 113q14 82 43 148q23 53 61 106.5t85 96.5q0 80 29.5 156t78.5 141q63 80 145.5 142.5t176.5 106.5t195.5 68.5t201.5 30.5q16 1 33 1q89 -1 183 -19q112 -22 206 -74.5t158.5 -138.5t74.5 -209q1 -14 1 -28q0 -40 -8 -78q-11 -52 -33.5 -100 t-56.5 -90t-73 -73q-85 -69 -193 -107q-97 -35 -196 -34h-20q-51 2 -100.5 17.5t-88.5 44.5q-47 -102 -104 -204t-135 -192q-45 -51 -106 -97q-62 -47 -132 -71q-61 -21 -126 -21q-11 0 -21 1q-76 4 -146 51q-68 43 -101.5 113.5t-39.5 150.5zM84 174q16 -72 65.5 -120 t126.5 -48q3 0 6 -1q74 0 128 48q56 49 92 113q43 72 77.5 148.5t65.5 155.5t62.5 157t70.5 151q33 61 74 127t93 121t114.5 93t140.5 44q29 2 58.5 -2t56.5 -18q6 -4 6 -10.5t-6 -10.5q-63 -35 -107.5 -85t-81.5 -109q-41 -68 -73.5 -139.5t-67.5 -143.5 q-10 -27 -21.5 -52.5t-23.5 -49.5q23 -16 50.5 -24.5t56.5 -12.5q24 -3 46 -2q59 0 115 18q76 26 129 92q51 63 76 141.5t29 157.5q1 13 1 26q1 72 -19 135q-22 75 -89 132q-61 55 -139 77t-158 26q-15 1 -29 1q-131 0 -259 -50q-142 -54 -244 -160q-51 -53 -88 -122 t-53 -142q53 18 104 18q25 0 49 -4q33 -4 63.5 -16.5t55.5 -32.5l15.5 -15.5t11.5 -19.5q0 -12 -13.5 -7t-36.5 7q-14 1 -29 1q-52 1 -104 -11q-67 -14 -127 -47q4 -72 32 -136.5t87 -115.5q8 -6 3 -10.5t-14 -6.5t-18.5 -3t-11.5 -1q-29 0 -54.5 8.5t-47.5 22.5 q-39 23 -65.5 58.5t-43.5 78.5q-80 -86 -121 -200q-25 -71 -26 -142q1 -44 10 -88z" />
<glyph unicode="Q" horiz-adv-x="1521" d="M4 -276q14 31 40 54t73 45.5t123.5 46.5t195.5 54q-53 16 -98 49t-78 80q-37 55 -53.5 116.5t-16.5 126t13.5 129t32.5 124.5q-53 39 -94.5 92t-69 114.5t-38.5 126.5q-6 38 -6 77q0 27 3 55q12 115 84.5 205t183.5 124q66 20 131 21h5q63 0 125 -16q65 -15 126.5 -41.5 t118.5 -59.5q55 37 114.5 69t120.5 54q90 31 169 31q34 0 67 -5q106 -20 177 -88.5t99 -179.5q12 -51 12 -109q0 -64 -16 -136q-25 -117 -71.5 -227.5t-116.5 -209.5q-96 -135 -185.5 -217t-185.5 -145q-78 -53 -165 -97t-181 -65q-53 -16 -108.5 -30.5t-108.5 -30.5 q53 -6 104.5 -15.5t100.5 -23.5q43 -12 91 -28.5t98 -28t100 -13.5h11q45 0 89 15q6 2 15 6t18 2q10 -2 11 -10.5t-3 -17.5t-10.5 -18.5t-8.5 -13.5q-27 -43 -75 -71q-53 -33 -113 -46q-55 -11 -113 -11h-9q-64 1 -126.5 14.5t-118.5 31.5q-55 18 -111.5 42t-114.5 39.5 t-119 16.5h-4q-58 0 -115 -28q-10 -4 -17 3q-4 5 -4 11q0 3 2 7zM125 892q-1 -10 -1 -21q0 -47 16 -93q18 -57 59 -102q29 -31 65 -51q66 156 175.5 287.5t240.5 240.5q-122 43 -216 43q-28 0 -52 -4q-111 -16 -189 -92q-43 -41 -68.5 -95.5t-29.5 -112.5zM422 278v-20 q0 -35 5 -68q7 -43 23.5 -82.5t49.5 -66.5q47 -41 102 -45q10 -1 20 -1q45 0 90 15q56 19 107 52.5t90 66.5q86 74 154 165t125 189q72 123 119 258.5t55 276.5q-55 -36 -121 -36q-10 0 -20 1q-78 6 -160 31q-70 23 -136.5 49.5t-136.5 50.5q-29 -29 -53 -58.5t-49 -62.5 q-66 -90 -120 -191.5t-89 -211.5q82 12 164 51q12 6 11 -6t-3 -17q-16 -41 -51 -72.5t-80 -47.5q-16 -6 -34.5 -9.5t-34.5 -5.5q-8 -31 -12.5 -60.5t-8.5 -60.5q-4 -39 -6 -84zM883 1200q49 -31 119.5 -74t142.5 -68q55 -18 104 -18q15 0 29 2q61 7 92 74q0 47 -15.5 95.5 t-43.5 72.5q-37 31 -85 39q-23 4 -46 4q-26 0 -52 -5q-51 -9 -99 -30.5t-87 -48.5z" />
<glyph unicode="R" horiz-adv-x="1519" d="M2 252v15q0 70 16 141q18 78 48 141q23 47 55.5 92t73.5 84v11q-1 76 25 152q28 81 73 146q125 186 319 272q165 73 354 73q33 0 68 -3q59 -4 135 -21.5t145.5 -51t123 -87t67.5 -129.5q6 -30 6 -59q0 -40 -12 -76q-20 -61 -62 -111t-99.5 -89t-118.5 -68 q37 -41 60.5 -90t39.5 -101.5t26.5 -108.5t22.5 -112q8 -39 16.5 -80.5t27 -78.5t50 -61.5t88.5 -26.5q12 0 12 -9q0 -2 -1 -6q-5 -16 -23 -34.5t-45 -35t-55 -18.5q-24 -4 -46 -4q-58 0 -102 27q-60 37 -94.5 108.5t-45.5 168.5q-6 56 -6 116q0 44 3 90q3 42 3 88v24 q-1 58 -36 105q-33 -5 -66 -5h-11q-38 1 -81 11q-47 -111 -82.5 -187.5t-72.5 -148.5q-33 -66 -71 -130t-89 -117q-53 -55 -114.5 -96.5t-137.5 -53.5q-33 -6 -67 -6q-38 0 -78 8q-74 14 -129 62q-59 49 -85 120.5t-28 149.5zM74 213q8 -76 50 -137.5t124 -71.5q16 -2 31 -3 q59 0 105 32q58 39 99 102q45 68 77 141.5t60.5 149.5t56.5 152.5t62 148.5q29 59 69 123.5t90 118t112.5 89.5t138.5 40q8 1 15 1q46 0 85 -22q14 -8 2 -20q-88 -47 -143 -122t-96 -161q76 0 141 -39q37 23 66 56q49 57 65 127q8 36 8 71q0 33 -7 65q-15 68 -63 124.5 t-126 91.5q-101 44 -213 44q-14 0 -28 -1q-128 -6 -234 -66q-117 -66 -192 -179.5t-89 -248.5q45 19 93 27q21 3 41 4q28 0 56 -6q29 -6 56.5 -17.5t52.5 -29.5q4 -4 13.5 -11.5t9.5 -13.5q0 -12 -20.5 -9t-29.5 3q-17 1 -33 1q-123 0 -239 -65q8 -63 38 -121.5t73 -105.5 q8 -10 18 -19.5t-6 -15.5q-10 -4 -24.5 -4t-24.5 2q-68 6 -123 56q-27 23 -45.5 51t-30.5 59q-74 -80 -113 -182q-30 -80 -30 -163q0 -23 2 -46zM977 696q10 -3 28 -3h9q26 1 37 5q-4 6 -27 13.5t-37 9.5z" />
<glyph unicode="S" horiz-adv-x="1337" d="M4 567q2 78 36 145.5t87 118t124 79t148 28.5q72 0 139.5 -28.5t112.5 -92.5q4 -8 11.5 -18.5t9.5 -20.5q2 -16 -9.5 -13t-21.5 7q-66 31 -139 31q-66 0 -128.5 -23.5t-113.5 -65.5t-86 -98.5t-47 -119.5q-7 -40 -7 -78q0 -41 8 -81q15 -77 55 -142.5t101.5 -114.5 t141.5 -74q65 -20 131 -20q17 0 35 2q84 6 160 47q74 41 126 105.5t80.5 142t34.5 163.5q1 20 1 39q0 65 -15 129q-14 59 -33.5 116.5t-36.5 115.5q-13 -1 -26 -1q-41 0 -85 10q-56 13 -108 42q-41 23 -76.5 55.5t-60.5 71.5t-36 82q-7 28 -7 56q0 15 2 30q6 41 32.5 81 t61.5 62q29 20 70 27h10h17.5t14.5 -3t1 -9q-27 -52 -45 -110q-9 -29 -8 -59q0 -29 8 -59q20 -66 80.5 -115t130.5 -59q-13 59 -13 117q0 56 19 113q18 55 51 105t86 79q33 18 73 24q19 3 37 4q21 0 41 -4q38 -8 71.5 -28.5t56.5 -52.5q20 -35 24 -71l2 -24q0 -24 -6 -47 q-8 -35 -25.5 -68.5t-39.5 -62.5q-55 -74 -138 -121q23 -53 43.5 -105t34.5 -108q23 -86 23 -170q1 -42 -5 -84q-18 -125 -79 -241q-61 -119 -164 -203t-236 -111q-52 -10 -104 -10q-23 0 -45 2q-76 6 -147.5 29.5t-137 63.5t-117.5 94q-98 102 -145 230q-42 114 -42 237 q0 16 1 32zM1049 1174q-1 -9 -1 -18q0 -38 14 -80q17 -52 36 -99q25 10 51 31q25 18 49.5 46.5t40.5 61.5q17 33 23 68q2 12 2 23q0 22 -9 42q-16 41 -54 59q-20 9 -40 9q-18 0 -37 -8q-41 -16 -57 -55t-18 -80z" />
<glyph unicode="T" horiz-adv-x="1216" d="M4 236q-2 24 -2 49q0 59 10 119q14 85 43 153q59 147 189 242q-2 25 -2 50q0 73 18 145q24 96 82 188q115 176 324 239q118 36 237 37q29 0 59 -3q148 -11 295 -56q70 -20 141.5 -42t144.5 -30q32 -4 64 -4q39 0 79 6q70 10 139 53q12 8 17 1q3 -4 3 -11q0 -5 -2 -12 q-14 -57 -55 -91t-93.5 -52.5t-110.5 -23.5q-41 -4 -78 -4q-15 0 -29 1q-63 2 -125 12t-123.5 22.5t-124 24t-123.5 15.5q-33 3 -67 3q-74 -1 -146 -13q-106 -18 -203 -64q-49 -25 -94 -59.5t-79 -78.5t-55.5 -98.5t-23.5 -115.5q53 25 107 35q22 4 44 4q33 0 68 -9 q68 -16 115 -65l12.5 -12.5t10.5 -14.5q2 -8 -3 -10t-12.5 -2t-15.5 1t-12 1h-24q-131 0 -243 -61q12 -16 27.5 -29.5t36.5 -24.5q47 -26 99 -25h13q58 4 113 23q10 4 9 -7t-3 -15q-14 -45 -55 -74t-88 -33h-14q-60 0 -116 29q-64 33 -99 104q-51 -41 -93.5 -95t-69.5 -116 q-26 -62 -35 -128q-4 -28 -4 -56q0 -37 7 -74q16 -94 69.5 -136t119 -42t134 38t115.5 103q49 68 86 144t69 153.5t61.5 155.5t66.5 154q29 59 65.5 126.5t84 127t105.5 102.5t132 55q29 4 59.5 2t57.5 -14q6 -4 6 -10t-6 -10q-63 -33 -101 -87.5t-69 -113.5 q-72 -143 -130.5 -293t-142.5 -301q-41 -74 -85 -142.5t-103 -127.5q-49 -47 -114 -85q-64 -37 -135 -55q-53 -13 -107 -14q-18 0 -36 2q-72 6 -140 47q-72 43 -106 116t-40 157z" />
<glyph unicode="U" horiz-adv-x="1347" d="M12 877q-9 48 -9 96q0 75 22 149q36 122 137 201q80 65 179 87q53 11 106 12q47 0 96 -9q49 -10 98 -27.5t99.5 -33t101.5 -26.5q37 -8 77 -8q14 0 29 1q48 35 96 55q41 17 77 18q7 0 14 -1q31 -4 33.5 -29t-9.5 -43q-16 -25 -47 -37t-59 -20q-39 -10 -74 -21.5 t-70 -34.5q-127 -82 -235 -196q-92 -98 -167 -207t-130 -228q29 -4 57 -4q42 1 82 9q68 14 133 43q10 4 11.5 -4.5t-3.5 -16.5q-14 -35 -41.5 -62.5t-62.5 -43.5q-49 -25 -105 -28h-18q-47 0 -92 13q-6 -14 -20.5 -53t-26.5 -89q-11 -49 -15 -105q-1 -10 -1 -21 q0 -44 12 -82q9 -35 39 -53q20 -12 43 -13q11 0 22 3q47 8 93 47t88 91t79 108.5t66 99.5q31 47 77 123.5t93 156.5t87 150.5t60 105.5q41 74 100.5 149t131 132t156.5 91q69 28 144 28q18 0 36 -2q12 0 12 -13q0 -7 -6 -12q-59 -47 -114.5 -98t-102.5 -113 q-109 -137 -180.5 -301t-102.5 -342q-14 -82 -16 -170q0 -7 -1 -15q0 -80 21 -153q10 -33 27.5 -64.5t31.5 -54.5q10 -16 1 -19t-25.5 0t-32.5 9t-20 10q-70 41 -113 107.5t-61 140.5q-20 74 -24 152q-1 20 0 40q0 58 7 115q-61 -100 -124.5 -199.5t-141.5 -193.5 q-37 -47 -81 -94t-93 -81q-49 -35 -105 -51q-29 -9 -59 -8q-28 0 -57 7q-49 12 -86 41.5t-61.5 70.5t-36.5 89q-9 36 -8 73q0 13 1 25q6 92 34 179t73 169q-55 59 -92 133t-54 150zM106 965q-9 -38 -9 -75q-1 -46 13 -91q24 -82 85 -140q49 78 107 148t122 133 q92 92 192.5 170t217.5 143q-29 0 -55.5 2t-53.5 5q-69 4 -139 4q-34 0 -70 -1q-106 -3 -203 -51q-76 -37 -132.5 -100t-74.5 -147z" />
<glyph unicode="V" horiz-adv-x="1433" d="M12 877q-10 50 -10 99q0 74 22 146q37 122 136 201q82 65 181 87q53 11 106 12q47 0 96 -9q49 -10 99 -28.5t102.5 -35t105.5 -26.5q29 -6 59 -6l47 4q18 12 39 27.5t44.5 28t47 17.5t48.5 -1q29 -6 32.5 -32t-8.5 -46q-16 -25 -46 -35t-58 -18q-39 -10 -71 -21.5 t-64 -34.5q-59 -45 -111.5 -100t-93.5 -115q-66 -92 -114 -195.5t-81 -213.5q33 8 64.5 17t62.5 24q10 4 10 -6.5t-2 -14.5q-10 -35 -39.5 -62.5t-62.5 -43.5q-29 -14 -59 -21q-16 -61 -22 -127q-4 -41 -5 -85q0 -27 2 -54q2 -35 10 -79t37 -67q12 -8 26.5 -6t30 8.5 t28.5 14.5t24 14q37 23 70.5 51.5t64.5 59.5q66 61 123 129.5t110 140.5q102 139 187.5 291t138.5 317q27 78 40 162q6 38 6 75q0 46 -9 91q-4 23 13 30q8 3 16 3l18 -4q53 -23 91 -70t56 -106q16 -48 16 -99v-13q-2 -58 -18 -113.5t-39.5 -108.5t-50.5 -103 q-61 -113 -156.5 -233.5t-209 -233t-239.5 -208t-245 -152.5q-68 -34 -128 -52q-38 -12 -71 -11q-19 -1 -36 3q-47 10 -80 56.5t-47 142.5q-6 45 -6 91q0 44 6 90q12 92 41 180q-53 25 -99.5 65.5t-81 91t-59 106.5t-35.5 114zM104 965q-9 -37 -9 -73q1 -60 25 -120 q38 -96 124 -149q16 -12 35.5 -20.5t37.5 -14.5q70 180 190 339.5t273 278.5l70 47q-33 0 -65.5 2t-61.5 5q-69 4 -139 4q-36 0 -70 -1q-104 -3 -201 -51q-76 -37 -133 -100t-76 -147z" />
<glyph unicode="W" horiz-adv-x="1724" d="M12 877q-10 50 -10 99q0 74 22 146q37 122 138 201q80 65 179 87q53 11 106 12q47 0 96 -9q49 -10 98 -27.5t99.5 -33t101.5 -26.5q37 -8 77 -8q14 0 29 1q38 29 86 55q36 20 77 21q12 0 24 -2q27 -4 38 -22.5t1.5 -41t-40 -43t-90.5 -29.5q-41 -6 -75.5 -21t-69.5 -42 q-66 -47 -124 -103.5t-107 -121.5q-143 -182 -226 -398q53 2 104.5 15.5t100.5 36.5q10 4 10 -6.5t-2 -14.5q-10 -35 -39.5 -62.5t-62.5 -43.5q-56 -28 -122 -28q-12 0 -25 1q-47 -117 -54 -266q0 -43 5 -76t19.5 -48.5t41 -10t71.5 37.5q29 23 62 52.5t92 95.5 q4 47 15.5 91t25.5 89q49 156 133 301.5t189 270.5q76 90 144 124q50 25 86 24q13 0 25 -3q44 -13 59 -63q5 -18 6 -38q0 -39 -19 -89q-33 -84 -84.5 -162t-104.5 -148q-55 -72 -114.5 -138.5t-120.5 -131.5l-4 -23q-4 -23 -11.5 -65.5t-10.5 -88.5q-1 -15 -1 -30 q0 -29 4 -56q6 -40 29 -55q20 -12 48 0.5t44 22.5q35 23 65.5 49.5t59.5 54.5q63 63 118.5 133t106.5 144q98 141 177 297t128 321q23 78 34 162q4 34 4 68q0 49 -9 98q-3 19 13 27q8 4 15 4q8 0 17 -4q51 -23 90 -72t58 -108q14 -47 14 -97v-13q-2 -56 -16.5 -111.5 t-38 -107.5t-48.5 -102q-53 -106 -123.5 -199t-150.5 -181q-80 -86 -166 -168t-176 -160q-41 -33 -87 -71t-96 -68t-104 -48q-34 -11 -67 -12q-19 0 -39 4q-63 10 -88 69.5t-35 143.5l-62 -57q-31 -27 -82 -61.5t-108 -58.5t-113 -26h-6q-51 0 -92 37q-31 27 -44 71t-14 98 v10q0 49 8 101q9 58 23.5 113.5t31 102.5t30.5 80q-78 59 -129 147t-68 181zM96 866q4 -50 22.5 -95.5t50.5 -84.5t75 -65q90 172 221 317t287 258q39 29 88 57q-63 0 -130 5.5t-133.5 5.5t-133 -10.5t-130.5 -41.5q-76 -37 -132.5 -100t-76.5 -147q-9 -37 -9 -74 q0 -12 1 -25zM928 590q37 37 78 88t77.5 102t66.5 96t46 72q37 57 41 91q1 6 1 11q0 24 -16 28q-3 1 -6 1q-18 1 -48 -23q-36 -28 -76 -95q-37 -59 -77 -144.5t-87 -226.5z" />
<glyph unicode="X" horiz-adv-x="1644" d="M3 356q5 76 27.5 150t57.5 135q31 55 82 107.5t111 89.5q-1 24 -1 48q0 72 13 144q18 98 67.5 187.5t137.5 142.5q98 59 204 61h13q100 0 198 -30q53 -16 103.5 -34t103.5 -28q35 29 82 43t94 14q43 0 62.5 -13t20.5 -30.5t-17.5 -36t-50.5 -26.5q-27 -31 -52.5 -75 t-45 -92t-34 -97t-18.5 -94q-1 -8 -1 -16q0 -40 27 -57q26 -16 52 -16q7 0 14 1q49 20 84 62t62.5 91t51.5 101.5t50 97.5q33 53 76 101t100 77q29 14 63 20q22 4 44 5q12 1 22 -1q32 -4 61 -18t52 -41q4 -5 4 -10q0 -7 -10 -12q-51 -20 -90 -70q-57 -66 -106.5 -138.5 t-121.5 -137.5q-53 -53 -115.5 -96.5t-131.5 -69.5q37 -25 61 -68q39 -71 40 -153q0 -8 1 -17q0 -73 -9 -147q-9 -82 -17 -162q-2 -20 -1 -39q0 -58 17 -109q16 -45 54 -58t79 -17q14 0 12 -10.5t-11 -22.5t-20.5 -23.5l-13.5 -13.5q-37 -31 -82 -36q-12 -1 -23 -1 q-33 0 -66 10q-44 14 -82 44t-62 71q-52 86 -52 178q0 13 1 25q8 104 47 209q10 31 28.5 72.5t26.5 83.5q4 19 4 37q0 22 -6 43q-10 38 -55 63q-61 -6 -108.5 -46t-80.5 -92q-41 -63 -73.5 -131.5t-69.5 -134.5q-35 -61 -75 -123.5t-88 -118t-105.5 -100.5t-124.5 -74 q-59 -26 -122 -30q-13 -1 -26 0q-48 0 -96 13q-60 17 -110 54t-81 97q-35 63 -48 138q-9 54 -9 109q0 20 1 41zM94 223q4 -66 36 -117q32 -52 79 -76q35 -18 76 -17q15 -1 29 1q58 8 112 62q70 68 121 147.5t99 162.5t103.5 162t133.5 144q43 39 91 63.5t103 47.5 q-41 31 -67 73q-28 42 -40 90q-10 39 -10 79q0 10 1 20q3 51 26 100q23 51 57 92q-84 5 -166 9q-17 1 -34 0q-64 0 -127 -13q-84 -16 -158 -59t-127 -109q-39 -45 -62.5 -101t-23.5 -116q52 23 108 25h9q51 0 102 -21q31 -12 55.5 -32.5t38 -39t14.5 -30.5t-14 -8 q-29 8 -63 8q-32 0 -66 -7q-72 -15 -131 -44q45 -49 107 -65q36 -10 75 -10q28 0 58 5q12 2 8 -10t-18.5 -28.5t-37 -32t-48.5 -21.5q-17 -3 -33 -3q-32 0 -64 12q-48 20 -84 55q-27 27 -40 55q-53 -37 -97.5 -88t-74.5 -110q-30 -60 -46 -124q-11 -46 -11 -94q-1 -19 1 -37 z" />
<glyph unicode="Y" horiz-adv-x="1247" d="M4 938q2 59 16.5 123.5t44 123t74.5 106.5t107 75q94 40 190 40q13 0 26 -1q109 -6 218 -35q59 -16 118.5 -32.5t121.5 -24.5q18 12 43.5 27.5t56.5 27.5t62.5 18.5t62.5 2.5t34 -30t-20 -44q-47 -39 -104.5 -50.5t-96.5 -15.5q-72 -31 -133 -87t-116 -122 q-47 -57 -83 -122.5t-57 -137.5q-8 -27 -12 -60q-2 -17 -2 -33t2 -31q4 -31 19.5 -56t50.5 -35q22 -7 44 -7q24 0 47 8q44 16 83 48q55 49 98 111.5t84 124.5q41 68 89 148.5t104 152.5q29 37 72.5 85t96 85t110.5 53q23 7 46 7l70 -15q7 -5 7 -11q0 -5 -7 -9 q-41 -18 -71 -49t-54.5 -68t-44 -77t-37.5 -77q-88 -180 -169 -364.5t-189 -370.5q-49 -84 -108.5 -160t-135.5 -137q-72 -59 -159 -97q-72 -31 -150 -31q-16 0 -33 1q-86 6 -152.5 50t-109.5 116q-49 82 -56 179q-1 12 -1 24q0 83 46 157q25 37 60 65t82 30h7q35 0 66 -17 q33 -20 50 -55q8 -20 -6.5 -19.5t-28.5 -1.5q-45 -8 -82 -43q-35 -31 -56.5 -81t-24.5 -104v-16q0 -45 14 -88q18 -51 61 -81q48 -33 99 -33h10q57 4 110 33.5t98 75t76 90.5q55 80 99 166t85 176l35 77q-29 -25 -67.5 -53t-82.5 -54t-90.5 -43t-89.5 -22q-10 -1 -20 -1 q-27 0 -53 7q-35 11 -63.5 31.5t-49 50t-29.5 66.5q-10 42 -10 84q0 31 6 62q13 73 45.5 140.5t80.5 127t102 104.5q84 72 188 129q-61 2 -128 4q-17 1 -33 1q-51 0 -101 -5q-66 -6 -132.5 -22.5t-127.5 -48.5q-35 -18 -68 -43t-57.5 -56t-38.5 -67q-12 -32 -12 -69v-11 q2 -47 23.5 -80t54 -51.5t73.5 -22.5q10 -1 21 -1l61 9q12 4 10 -8t-13 -29.5t-29.5 -36t-39.5 -24.5q-22 -7 -44 -7q-25 0 -51 9q-48 19 -79 55q-35 41 -45 93q-8 42 -8 86v18z" />
<glyph unicode="Z" horiz-adv-x="1341" d="M2 56.5q0 29.5 10.5 56t29.5 50t44 40.5q45 31 98.5 44t107.5 14h11q49 0 95 -8q52 -9 91 -24q29 35 53.5 71t49.5 71q-82 59 -138.5 148t-84.5 188q-26 87 -26 178q-1 43 5 87q18 136 103 247q59 76 136 128t173 66q27 3 54 3q44 0 84 -8q66 -13 127.5 -37.5t124 -55.5 t126.5 -55q23 23 42 44t44 42q37 33 88 55q51 23 97 29q16 2 30 2q28 0 51 -8q35 -12 39 -50q1 -6 1 -12q0 -30 -16 -58q-20 -34 -53.5 -65t-75.5 -53.5t-85 -28.5q-59 -68 -128 -160t-140.5 -190t-143.5 -195.5t-135 -175.5q76 18 141.5 57t120.5 93q10 10 12 -5.5t2 -19.5 q-4 -51 -24.5 -98t-61.5 -84q-25 -23 -62.5 -40t-79.5 -28.5t-84 -15.5q-17 -2 -33 -2q-24 0 -46 4q-31 -35 -62.5 -65.5t-66.5 -61.5l17 -6q59 -25 117.5 -51.5t117.5 -51.5q33 -14 67.5 -27.5t71.5 -21.5q27 -6 54 -5h21q38 3 75 22q16 8 23.5 5t8.5 -12.5t-2.5 -22.5 t-5.5 -24q-18 -59 -68 -92t-110 -43q-27 -4 -55 -4q-35 0 -69 6q-64 12 -124 31q-86 27 -166.5 68t-168.5 82q-70 -41 -146 -70q-71 -27 -143 -27h-10q-41 2 -78 18.5t-58 55.5q-14 27 -14 56.5zM74 50q-2 -6 -2 -11q0 -14 10 -29q17 -28 53 -28h4q39 2 68 10q41 12 78 34.5 t69 51.5q-59 29 -101 40q-27 7 -53 7q-14 0 -28 -2q-16 -4 -37.5 -13.5t-38 -24.5t-22.5 -35zM422 870q-3 -22 -2 -44q0 -43 10 -87q23 -96 84 -167.5t145 -108.5q123 170 248 343t279 355q-68 16 -128.5 27.5t-119.5 17.5q-30 3 -61 3q-37 0 -73 -4q-68 -7 -130 -32.5 t-116 -69.5t-93 -110q-35 -59 -43 -123z" />
<glyph unicode="[" horiz-adv-x="665" d="M-59 -172l462 1352h455l-27 -80h-206l-408 -1190h248l-27 -82h-497z" />
<glyph unicode="\" horiz-adv-x="665" d="M162 1223h92l250 -1661h-92z" />
<glyph unicode="]" horiz-adv-x="665" d="M-182 -172l26 80h207l408 1190h-248l27 82h497l-463 -1352h-454z" />
<glyph unicode="^" horiz-adv-x="657" d="M129 811l360 315h127l56 -315l-62 -45l-104 182l-334 -182z" />
<glyph unicode="_" horiz-adv-x="565" d="M-100 -84l32 84h529l-33 -84h-528z" />
<glyph unicode="`" horiz-adv-x="483" d="M2 1139v90q0 47 20.5 61.5t51.5 -8.5l368 -223q25 -16 34 -43t-1 -53l-6 -15l-387 82q-37 6 -58.5 35t-21.5 74z" />
<glyph unicode="a" d="M-10 217q-2 18 -2 37q0 76 26 162q32 108 106.5 200.5t190 153.5t275.5 61q111 0 173 -29.5t101 -90.5q-41 -123 -76 -222q-14 -43 -28.5 -85t-26.5 -76.5t-21.5 -60t-11.5 -34.5q-21 -58 -21 -90q-1 -9 1 -15q8 -32 35 -32q16 0 43.5 13.5t58.5 44t63.5 80.5t61.5 124 q6 16 17.5 21.5t19.5 2.5q8 -2 13 -14q2 -5 2 -12t-3 -16q-57 -154 -156.5 -246t-209.5 -92q-78 0 -121 38t-47 120q-47 -59 -113 -108.5t-152 -49.5q-90 0 -140 61.5t-58 153.5zM225 142q8 -50 45 -50q25 0 48.5 14.5t45 39t42 56t36.5 64.5q39 76 76 174l107 299 q-4 10 -18.5 22.5t-43.5 12.5q-59 0 -113.5 -50t-99.5 -126t-76.5 -165t-43.5 -165q-8 -46 -9 -82q1 -24 4 -44z" />
<glyph unicode="b" horiz-adv-x="815" d="M-68 166l181 520q43 133 100 262t129 229.5t156 162t178 61.5q90 -1 118 -53q17 -31 17 -70q-1 -30 -9 -64q-20 -82 -83.5 -183.5t-157.5 -199.5q70 -4 116 -39q45 -36 65 -94q14 -41 14 -91q0 -22 -2 -46q-8 -78 -47 -166q-53 -123 -125 -199.5t-146 -120.5 t-139.5 -59.5t-108.5 -15.5q-41 0 -83 11.5t-76.5 33t-61 52t-35.5 69.5zM111 109q28 -43 68 -43h3q42 2 92 44t101 119t94 183q59 148 63 242v9q0 85 -63 85q-35 0 -76 -44.5t-87 -127t-95 -201.5t-100 -266zM328 713q63 55 118.5 123.5t99.5 138t76 137.5q30 68 46 119 q14 45 14 75v8q-2 32 -27 32q-33 0 -68.5 -42t-75.5 -121t-83 -189.5t-88 -248.5q-4 -18 -12 -32z" />
<glyph unicode="c" horiz-adv-x="667" d="M0 215q-7 35 -7 72q1 65 21 136q32 112 101 208t173.5 159.5t233.5 63.5q53 0 89 -18.5t53 -49.5q14 -25 7 -46t-24.5 -32.5t-38 -7.5t-30.5 31q-25 57 -84 57q-51 0 -97.5 -53t-82 -133t-57 -173t-21.5 -173t22.5 -133t77.5 -53q94 0 177 70.5t155 217.5q8 14 18 19.5 t20 2.5q9 -4 13 -14q2 -4 2 -9q0 -8 -4 -17q-37 -90 -85 -155.5t-103.5 -108.5t-115 -63.5t-116.5 -20.5q-135 0 -207 63.5t-90 159.5z" />
<glyph unicode="d" d="M-10 217q-2 19 -2 38q0 75 26 161q32 108 106.5 200.5t190 153.5t273.5 61q20 0 36.5 -1t32.5 -3l117 336q35 104 93.5 148.5t170.5 44.5h49q-106 -303 -188 -545q-35 -102 -69.5 -202.5t-62.5 -181.5t-46.5 -133t-20.5 -61q-21 -58 -21 -90q-1 -9 1 -15q8 -32 37 -32 q16 0 42.5 13.5t57.5 44t63.5 80.5t61.5 124q6 16 17.5 21.5t20.5 2.5t13 -14.5t-2 -27.5q-57 -154 -156.5 -246t-209.5 -92q-76 0 -120 37t-48 117v4q-47 -59 -113 -108.5t-152 -49.5q-90 0 -140 61.5t-58 153.5zM225 141q8 -49 45 -49q25 0 48.5 14.5t46 39t42 56 t37.5 64.5q39 76 76 174l96 285q-4 10 -17 22.5t-42 12.5q-59 0 -113.5 -49t-98.5 -124t-74.5 -161t-42.5 -161q-7 -44 -7 -79q1 -25 4 -45z" />
<glyph unicode="e" horiz-adv-x="821" d="M8 422q24 110 94 206.5t181 160t254 63.5q104 0 158.5 -38t63.5 -95q2 -12 2 -25q0 -47 -26 -100q-33 -68 -100.5 -127t-168.5 -102t-228 -52q4 -49 17 -93t40 -76.5t65.5 -52t92.5 -19.5q45 0 95 17t99 53t94 89.5t80 126.5q8 16 18.5 21.5t19.5 2.5q9 -2 12 -14 q1 -4 1 -9q0 -9 -4 -19q-33 -78 -84 -142.5t-117.5 -110.5t-144.5 -70.5t-162 -24.5q-150 0 -236 64q-84 63 -112 159q-15 51 -15 106q-1 49 11 101zM238 369q68 6 127 40.5t103 81t72 98.5t36 97q2 14 3 27q1 27 -11 47q-16 28 -60 28q-55 0 -103.5 -37.5t-84 -98 t-58 -135.5t-24.5 -148z" />
<glyph unicode="f" horiz-adv-x="669" d="M-122 -78q1 47 10.5 92t22.5 84t21 60l177 528q43 133 99 265t124.5 234.5t150.5 162.5q68 49 143 49q16 0 31 -2q86 -10 116 -59q21 -35 21 -81q0 -19 -4 -39q-12 -71 -59 -157t-116.5 -171t-153.5 -161t-170 -127q57 -47 91 -127t44 -172q53 -25 106 -25q17 0 34 2 q69 11 104 80q16 31 37.5 23t11.5 -41q-16 -47 -46 -74.5t-70 -39.5q-32 -9 -67 -9q-9 0 -18 1q-45 3 -88 20q0 -90 -21.5 -177.5t-67.5 -156t-117.5 -111.5t-170.5 -43q-68 0 -105.5 24.5t-53.5 62.5q-16 36 -16 80v5zM54 -174q2 -23 18 -23q35 0 70.5 47.5t67.5 121 t55.5 164.5t33.5 181q-47 47 -70 101l-106 -318q-20 -61 -36.5 -114.5t-26.5 -94.5q-7 -32 -7 -54q0 -6 1 -11zM322 700q57 51 109 117t96 135.5t76 138t49 123.5q13 46 13 78v12q-3 35 -28 42q-4 1 -8 1q-27 0 -57 -36q-33 -41 -70 -121t-79 -193.5t-87 -251.5z" />
<glyph unicode="g" horiz-adv-x="962" d="M-106 -250v10q0 71 48 144q50 78 152 121q-59 33 -86 105q-20 58 -20 126q0 18 1 37q7 90 47 185t114.5 174t182.5 129t251 50q186 0 264 -120q-41 -121 -82 -240q-35 -102 -75 -217t-70 -207q61 12 113 43t96 73t77 92t56 103q6 16 17 21.5t20.5 2.5t13.5 -14 q2 -5 2 -10q0 -8 -4 -18q-20 -55 -55 -111.5t-86.5 -105.5t-119 -87t-153.5 -54q-14 -41 -24.5 -69t-12.5 -36q-68 -170 -176.5 -242.5t-259.5 -72.5q-113 0 -170 56t-61 132zM70 -270q-2 -17 -2 -32q0 -26 8 -47q14 -32 49 -32q45 0 83 34t71.5 92t62.5 135t57 163 q-70 0 -127 -31.5t-100 -79t-68.5 -101.5t-33.5 -101zM223 142q8 -50 45 -50q25 0 48.5 14.5t46 39t42 56t37.5 64.5q39 76 76 174l105 299q-4 10 -17.5 22.5t-42.5 12.5q-59 0 -114.5 -50t-99.5 -126t-75.5 -165t-45.5 -165q-8 -47 -8 -84q0 -23 3 -42z" />
<glyph unicode="h" d="M-38 200q7 70 40 167l113 319q43 133 100 262t129 229.5t156 162t176 61.5q90 -1 118 -53q17 -31 17 -70q-1 -30 -9 -64q-20 -82 -83.5 -183t-157.5 -202q176 -1 208 -113q9 -31 9 -70q0 -101 -61 -253q-63 -161 -71 -231q-2 -14 -2 -24q0 -46 28 -46q31 0 67.5 20.5 t72.5 56.5t68.5 85t57.5 104q6 16 17.5 21.5t19.5 2.5q8 -2 12 -14q2 -5 2 -10q0 -8 -4 -18q-20 -55 -57 -115.5t-87 -109.5t-110.5 -82t-128.5 -33q-53 0 -95 26q-43 26 -63 78q-16 42 -16 99q0 15 1 29q5 76 48 178q72 172 83 250q2 11 2 20q0 57 -58 57q-39 0 -86 -51 t-100.5 -146.5t-110.5 -231.5t-115 -308l-2 2q-45 0 -76.5 20.5t-45.5 64.5q-9 29 -8 69q0 20 2 44zM319 682q66 53 123.5 124t103.5 144.5t78 143.5q30 72 46 128q13 47 13 78v12q-3 34 -28 34q-33 0 -68.5 -42t-74.5 -121t-82 -189.5t-88 -248.5z" />
<glyph unicode="i" horiz-adv-x="450" d="M-35 196q4 66 35 156l119 346q23 59 73 96t113 37h109q-49 -139 -90 -260q-18 -51 -36 -103t-34 -98t-28.5 -82t-18.5 -55q-21 -58 -21 -90q0 -9 2 -15q8 -32 35 -32q16 0 43 13.5t58.5 44t64.5 80.5t62 124q6 16 16 21.5t19.5 2.5t13.5 -14.5t-2 -27.5 q-57 -154 -155.5 -246t-211.5 -92q-55 0 -94 20.5t-57 63.5q-15 35 -16 87q0 11 1 23zM252 1020q2 55 41 98q41 43 92 47q5 0 11 1q44 0 75 -31q33 -35 33 -87v-6q-2 -56 -41 -98q-41 -43 -93 -47h-10q-45 0 -75 31q-33 35 -33 86v6z" />
<glyph unicode="j" horiz-adv-x="462" d="M-276 -438q84 238 155 448q31 90 62.5 182.5t60.5 177.5t53.5 155.5t40.5 115.5q35 102 93.5 146t170.5 44h50q-41 -113 -82 -233q-35 -104 -79 -229t-85 -248q104 23 182 82t117 155q6 16 17.5 21.5t20.5 2.5t13 -14q2 -5 2 -10q0 -8 -4 -18q-39 -102 -128 -177 t-243 -110l-102 -299q-35 -104 -94.5 -148t-169.5 -44h-51zM248 1020q2 55 41 98t91 47h11q45 0 76 -30q33 -35 33 -87v-6q-2 -55 -41 -98t-91 -47h-11q-45 0 -76 31q-33 35 -33 86v6z" />
<glyph unicode="k" horiz-adv-x="825" d="M-38 200q7 70 40 167l111 319q43 133 101 262t130 229.5t156 162t176 61.5q90 -1 118 -53q16 -30 16 -69q0 -30 -8 -66q-22 -83 -86.5 -186t-160.5 -204q34 6 63.5 6t55.5 -6q51 -12 81.5 -42.5t36.5 -73.5q2 -10 2 -21q0 -34 -16 -72q-20 -45 -55 -79.5t-76 -60t-82 -43 t-73 -25.5q8 -135 33.5 -206t90.5 -71q25 0 52.5 19.5t56.5 51t55.5 72.5t44.5 86q6 16 17.5 21.5t19.5 2.5q8 -2 14 -14q2 -5 2 -11q0 -8 -4 -17q-20 -55 -58 -115.5t-88 -109.5t-110.5 -82t-128.5 -33q-47 0 -87 21.5t-68.5 67.5t-41.5 119q-9 50 -9 113q0 29 2 62 q94 35 162.5 92t107.5 156q10 26 10 46q0 17 -7 31q-15 30 -56 29q-37 0 -85 -51t-101.5 -146.5t-109.5 -231.5t-114 -308l-2 2q-45 0 -76.5 20.5t-45.5 64.5q-9 29 -8 69q0 20 2 44zM319 682q66 55 123.5 126t103.5 144.5t78 143.5q30 70 46 126q13 46 13 78v12 q-3 34 -28 34q-33 0 -68.5 -42t-74.5 -121t-82 -189.5t-88 -248.5z" />
<glyph unicode="l" horiz-adv-x="448" d="M-37 196q4 66 35 156l281 811q35 104 94 148.5t170 44.5h49q-104 -303 -186 -545q-35 -102 -70 -202.5t-62.5 -181.5t-46 -133t-20.5 -61q-21 -58 -21 -90q0 -9 2 -15q8 -32 33 -32q16 0 44 13.5t58.5 44t63.5 81t62 123.5q6 16 16 21.5t19.5 2.5t13.5 -14.5t-2 -27.5 q-57 -154 -155.5 -246t-211.5 -92q-55 0 -94 20.5t-57 63.5q-15 35 -16 87q0 11 1 23z" />
<glyph unicode="m" horiz-adv-x="1327" d="M-43 68q-17 31 -17 73q0 46 21 105l201 585h22q35 0 63.5 -16t46.5 -41q20 -26 26 -59q2 -11 2 -22q0 -22 -9 -44l-4 -12q59 88 124 140t142 52q99 0 143 -48q38 -41 37 -100q0 -11 -1 -22q55 78 117.5 124t134.5 46q57 0 101 -18q45 -18 65 -60q15 -31 15 -79 q0 -16 -2 -34q-7 -71 -52 -175q-79 -183 -93 -277q-4 -26 -4 -45q0 -49 25 -49q31 0 67.5 20.5t72.5 56.5t69 85t57 104q6 16 16.5 21.5t19.5 2.5q9 -2 13 -14q2 -5 2 -10q0 -8 -4 -18q-20 -55 -58 -115.5t-87 -109.5t-109.5 -82t-128.5 -33q-55 0 -97 26t-62 78 q-16 41 -16 94q0 16 1 34q6 76 49 178q35 86 62.5 146t42 98t12.5 57.5t-27 25.5q-5 1 -9 1q-29 0 -67 -30q-44 -34 -101.5 -121t-123 -231.5t-135.5 -355.5q-61 0 -101 16q-39 17 -55 56q-9 23 -10 56q0 22 4 50q10 66 54 168q39 94 71.5 165t51 119t19.5 74.5t-26 32.5 q-5 1 -10 1q-28 0 -66 -30q-46 -34 -102.5 -121t-123 -231.5t-136.5 -355.5l-2 2h-6q-90 0 -125 66z" />
<glyph unicode="n" d="M-42 68q-17 32 -17 75q0 46 20 103l203 585h22q35 0 64 -16t47 -41q19 -26 25 -59q2 -11 2 -22q0 -22 -9 -44l-8 -20q61 92 130 146t147 54q160 -1 190 -111q8 -28 7 -63q0 -102 -64 -262q-63 -161 -71 -231q-2 -14 -2 -24q0 -46 28 -46q31 0 67.5 20.5t72.5 56.5 t68.5 85t57.5 104q6 16 17.5 21.5t19.5 2.5q8 -2 12 -14q2 -5 2 -10q0 -8 -4 -18q-20 -55 -57 -115.5t-87 -109.5t-110.5 -82t-128.5 -33q-55 0 -97 26q-43 26 -63 78q-16 41 -15 94q0 16 1 34q6 76 49 178q73 172 89 244q4 19 4 35q0 41 -33 48q-5 1 -10 1q-28 0 -68 -30 q-47 -34 -104.5 -121t-125 -231.5t-137.5 -355.5l-2 2h-6q-90 0 -126 66z" />
<glyph unicode="o" horiz-adv-x="925" d="M-4 238q-3 24 -3 48q1 76 29 160q38 110 112 200t184 146q93 48 202 47q19 0 39 -1q133 -10 199 -79t78 -166q3 -23 3 -46q0 -77 -29 -161q-38 -110 -113.5 -200t-185.5 -146q-93 -48 -202 -48q-19 0 -39 2q-131 8 -196.5 77t-77.5 167zM240 230q6 -78 34 -128 q25 -47 74 -48q4 0 8 1q55 6 100.5 62.5t75.5 137.5t46 174q12 70 12 133q0 20 -1 39q-5 79 -34 129q-27 46 -76 46h-8q-55 -4 -100 -60.5t-76 -138t-47 -175.5q-11 -66 -11 -124q1 -25 3 -48z" />
<glyph unicode="p" horiz-adv-x="864" d="M-194 -370q-16 32 -16 73q0 46 20 104l352 1024h20q61 0 102 -45q36 -40 36 -90q0 -6 -1 -12q47 70 111 114q51 35 118 35q16 0 34 -2q70 -10 115.5 -45.5t64.5 -91.5q14 -41 14 -91q0 -21 -2 -43q-8 -77 -47 -165q-33 -76 -73 -133t-84 -100t-89 -72t-88 -47h13 q92 0 166.5 28.5t131 73.5t96.5 101.5t64 111.5q6 16 16.5 21.5t19.5 2.5t14 -14q1 -5 1 -10q0 -8 -4 -18q-20 -55 -63 -118.5t-107.5 -118t-148.5 -90.5t-184 -36q-59 0 -102.5 6.5t-78.5 16.5h-18q-57 0 -113 18l-155 -456h-11q-88 0 -124 68zM147 156q10 -12 36 -35 t65 -43q59 29 122.5 115t116.5 219q31 74 47.5 135t17.5 106v5q0 42 -14 65q-16 25 -49 25t-72.5 -41t-82.5 -118t-90 -186.5t-97 -246.5z" />
<glyph unicode="q" horiz-adv-x="966" d="M-10 217q-2 19 -2 38q0 76 26 161q31 108 106 200.5t190.5 153.5t273.5 61q111 0 170 -29.5t100 -90.5l-240 -664q61 10 116.5 40t99.5 73t79 94t58 104q6 16 17 21.5t19.5 2.5t13.5 -14q2 -6 2 -12q0 -7 -3 -16q-20 -55 -56 -112.5t-89.5 -107.5t-123 -88t-157.5 -52 l-150 -418h-8q-45 0 -80 17.5t-54 50t-22 77.5q-1 7 -1 14q0 40 16 86l102 285q-41 -49 -86 -69.5t-119 -20.5q-90 0 -140 61.5t-58 153.5zM225 142q8 -50 45 -50q25 0 48.5 14.5t46 39t42 56t37.5 64.5q39 76 76 174l105 299q-4 10 -18.5 22.5t-43.5 12.5q-59 0 -114.5 -50 t-99.5 -126t-75.5 -165t-43.5 -165q-8 -46 -8 -82q0 -24 3 -44z" />
<glyph unicode="r" horiz-adv-x="624" d="M-5 320q-1 4 -1 9q0 13 6 29q49 135 83 238.5t54 175.5q23 82 37 143q55 -39 107 -75q43 -35 88 -74t71 -78q37 -53 42 -100q1 -9 1 -18q0 -41 -18 -93l-84 -244q-21 -58 -21 -90q0 -9 2 -15q8 -32 35 -32q16 0 43 13.5t57.5 44t64.5 80.5t63 124q6 16 16 21.5t19 2.5 q10 -2 14 -14q2 -5 2 -10q0 -8 -4 -18q-57 -154 -156.5 -246t-210.5 -92q-55 0 -94 20.5t-57 63.5q-15 35 -16 87q0 11 1 23q4 66 35 156l90 258q12 35 14 72v6q0 33 -16 60q-8 14 -17 25l-18 22l-20 20q-10 -37 -28.5 -95t-40 -126t-45 -135.5t-44.5 -118.5 q-10 -25 -22.5 -34t-20.5 -5.5t-11 19.5z" />
<glyph unicode="s" horiz-adv-x="679" d="M-153 123q3 29 18.5 48t39 21.5t50.5 -24.5q20 -20 42.5 -47t68.5 -49q47 14 90 56t65 110q7 22 7 43q0 15 -4 29q-9 34 -28.5 68t-44 67.5t-40.5 70.5q-16 -47 -32 -93t-32 -83q-10 -25 -22.5 -34t-20.5 -5t-10 19.5t6 37.5q61 172 98 295q23 84 112 131t212 47 q55 0 90 -18t53 -49q14 -25 7 -46.5t-24.5 -32.5t-38 -7t-32.5 31q-25 59 -84 59q-33 0 -64.5 -27.5t-31.5 -72.5q0 -47 28.5 -86t60.5 -83q32 -45 56 -103q16 -41 16 -94q0 -23 -3 -48q-10 -78 -46 -125t-83 -76q70 14 126 46t100 74t75.5 90t52.5 95q6 16 17.5 21.5 t19.5 2.5q8 -2 12 -14q2 -5 2 -10q0 -8 -4 -18q-20 -55 -63 -118.5t-106.5 -118t-147.5 -90.5t-187 -36q-57 0 -101 6.5t-77 16.5h-20q-68 0 -108 20q-41 18 -57 46q-14 23 -13 48v9z" />
<glyph unicode="t" horiz-adv-x="446" d="M-38 196q5 66 36 156q12 39 28.5 87t35 101.5t39 110t38.5 109.5h-86l27 57h78l18 51q23 68 50.5 114t66.5 72.5t90 38t121 11.5h2q-12 -39 -29 -84q-14 -39 -32.5 -91t-38.5 -112l133 12l-39 -69h-115l-180 -527q-21 -58 -21 -90q0 -9 2 -15q8 -32 33 -32q16 0 44 13.5 t58.5 44t63 80.5t61.5 124q6 16 16.5 21.5t20 2.5t14.5 -14.5t-1 -27.5q-57 -154 -156.5 -246t-210.5 -92q-55 0 -95 20.5t-58 63.5q-15 34 -15 82q0 14 1 28z" />
<glyph unicode="u" horiz-adv-x="878" d="M2 123q-17 47 -17 109q0 98 42 233q20 68 49.5 134.5t69.5 117.5t91.5 82.5t112.5 31.5h62q-63 -127 -115.5 -262t-83.5 -247.5t-34 -185.5q0 -5 -1 -11q0 -62 35 -62q29 0 57.5 26t56 67t53.5 89t44 95q0 4 4 12l119 346q23 59 73 96t113 37h109q-49 -139 -90 -260 q-18 -51 -36 -103t-34 -98t-28.5 -82t-18.5 -55q-21 -58 -21 -90q0 -9 2 -15q8 -32 35 -32q16 0 43 13.5t58.5 44t64.5 80.5t62 124q6 16 16 21.5t19 2.5q10 -2 14 -14q2 -5 2 -10q0 -8 -4 -18q-57 -154 -155.5 -246t-211.5 -92q-76 0 -120 38t-48 116q-43 -78 -93 -116 t-118 -38q-135 0 -178 121z" />
<glyph unicode="v" horiz-adv-x="821" d="M-14 202v21q0 50 8 105q6 37 16 76.5t22.5 79.5t27 78t26.5 67q41 98 104.5 150t159.5 52h62q-61 -127 -114.5 -262t-84.5 -247.5t-34 -185.5v-11q0 -62 32 -62q33 0 64.5 30t61.5 76t54.5 100.5t42.5 101.5q39 96 65.5 179t49.5 148q20 59 70.5 96t113.5 37h109 q-12 -39 -27 -77q-12 -35 -26.5 -76t-26.5 -78q-47 -135 -111.5 -245.5t-142.5 -189.5t-169 -121t-189 -42q-55 0 -90 26.5t-53.5 70t-20.5 103.5z" />
<glyph unicode="w" horiz-adv-x="1206" d="M2 123q-17 47 -17 109q0 98 42 233q20 68 51 134.5t70.5 117.5t90 82.5t111.5 31.5h62q-61 -127 -114.5 -262t-84.5 -247.5t-34 -185.5q0 -5 -1 -11q0 -62 35 -62q37 0 65.5 38t52 93.5t42 118t37.5 109.5q16 55 36.5 110.5t36.5 96.5q41 98 103.5 150t158.5 52h62 q-61 -127 -114.5 -261t-84.5 -246q-30 -110 -34 -182v-12q0 -60 34 -60q33 0 59.5 28.5t49 73.5t43 98.5t39.5 100.5q37 96 63.5 179t48.5 148q20 59 71.5 96t115.5 37h106q-14 -39 -26 -77q-10 -35 -25 -76t-27 -78q-47 -135 -106 -245.5t-132 -189.5t-158 -121t-185 -42 q-70 0 -107 39t-49 104q-43 -74 -92 -108.5t-117 -34.5q-135 0 -178 121z" />
<glyph unicode="x" horiz-adv-x="909" d="M-172 0q29 86 62.5 147.5t72.5 108.5q14 39 30.5 87l33 96t31 91t22.5 68q4 10 7 22.5t7 24.5q39 100 99.5 143t156.5 43h64q-63 -127 -96 -201.5t-42.5 -115.5t4 -53t44.5 -12q66 0 115.5 57t109.5 192q25 59 74 96t112 37h107q-10 -41 -21 -79q-10 -35 -24.5 -76 t-32.5 -76q-47 -86 -118 -134t-183 -60q72 -16 100.5 -45t33.5 -64q2 -12 1 -25q0 -23 -5 -46q-9 -36 -12 -65.5t7 -49t55 -19.5q31 0 68 20.5t72.5 56.5t68.5 85t57 104q6 16 17.5 21.5t19.5 2.5q8 -2 12 -14q2 -4 2 -10q0 -8 -4 -18q-20 -55 -57 -115.5t-87 -109.5 t-110.5 -82t-128.5 -33q-111 0 -159 28q-46 27 -58 70q-6 24 -7 50q0 20 4 42q9 48 17 91q3 17 2 32q0 23 -6 39q-12 28 -67 27q-31 0 -65.5 -30t-65.5 -81t-52.5 -120.5t-27.5 -147.5h-260zM43 328q35 27 74 43t80 26q-70 23 -101 78q-14 -35 -27.5 -74t-25.5 -73z" />
<glyph unicode="y" horiz-adv-x="907" d="M-161 -250v9q0 71 47 145q51 78 153 121q14 6 27.5 11t27.5 9q-84 33 -102 137q-5 26 -5 57q0 92 40 226q20 68 51 134.5t70.5 117.5t90 82.5t111.5 31.5h62q-61 -127 -113.5 -257t-83.5 -237.5t-34 -174.5v-11q0 -57 32 -57q41 0 79 38t73 93q43 72 62 120t36 95 q8 25 20.5 61t25.5 73.5t24.5 71.5t17.5 52q23 59 73 96t113 37h94q-49 -145 -98 -288q-41 -123 -87 -257t-81 -239q59 12 112.5 43t96.5 73t77 92t56 103q6 16 17.5 21.5t19.5 2.5t12 -14q2 -5 2 -10q0 -8 -4 -18q-20 -55 -55 -111.5t-86 -105.5t-118.5 -87t-153.5 -54 q-14 -45 -23.5 -73t-11.5 -32q-68 -170 -176.5 -242.5t-259.5 -72.5q-113 0 -170.5 56t-60.5 132zM14 -270q-2 -15 -2 -29q0 -28 8 -50q13 -32 50 -32q45 0 82.5 34t71.5 92t62.5 135t57.5 163q-70 0 -128 -31.5t-100 -79t-69 -101.5t-33 -101z" />
<glyph unicode="z" horiz-adv-x="763" d="M-167 -250v9q0 72 47 145q50 78 153 121q61 31 118.5 47t102.5 22t72 6h28q6 33 8 75q1 9 1 17q1 33 -7 64q-10 39 -31.5 67.5t-60.5 34.5q-27 4 -51.5 -3t-54.5 -23v47q86 63 139 123t77 110q19 39 18 70q0 8 -1 16q-6 36 -39 50q-16 7 -33 7q-27 1 -57 -17 q-49 -28 -88 -83q-18 -29 -35.5 -68.5t-34 -82.5t-31 -87t-26.5 -77q-10 -25 -21.5 -34t-20.5 -5t-11 19.5t6 37.5q12 33 26.5 79t33 93.5t38 91.5t41.5 72q51 72 117 104.5t127 32.5t115 -27q54 -28 80 -77q21 -39 20 -87q0 -12 -1 -26q-7 -64 -67 -139q-41 -49 -91 -71.5 t-70 -30.5q82 -18 135 -87q51 -66 51 -176v-8q72 47 125 115t84 141q6 16 17.5 21.5t19.5 2.5q8 -2 12 -14q2 -5 2 -10q0 -8 -4 -18q-14 -39 -37.5 -82t-55.5 -85t-75 -80t-94 -66q-6 -31 -15.5 -66t-23.5 -72q-66 -156 -180.5 -241.5t-266.5 -85.5q-113 0 -170 56t-60 132z M9 -270q-2 -16 -2 -31q0 -27 8 -48q13 -32 48 -32q45 0 83 34t72 92t62.5 135t57.5 163q-70 0 -127 -31.5t-100 -79t-69 -101.5t-33 -101z" />
<glyph unicode="{" horiz-adv-x="720" d="M107 42q8 50 27.5 102.5t43 104.5t37.5 99q12 41 -1 63.5t-36 37.5q-25 14 -61 22l37 88q59 4 103 30.5t79 67.5t60.5 90.5t47 99.5t41 95t39.5 78q41 63 90.5 101t102.5 56.5t108.5 20.5t106.5 -10l2 -35q-80 -49 -128 -104.5t-80 -113.5t-56.5 -116.5t-55.5 -111.5 q-53 -94 -113.5 -140.5t-119.5 -50.5q25 -6 42 -22.5t23.5 -47t1 -77.5t-27.5 -115q-47 -147 -63.5 -241.5t14.5 -143.5l-6 -31q-100 0 -160 25.5t-88 89.5q-18 39 -10 89z" />
<glyph unicode="|" horiz-adv-x="665" d="M2 -438l569 1661h93l-570 -1661h-92z" />
<glyph unicode="}" horiz-adv-x="720" d="M-197 -137q80 49 128.5 104.5t80 113.5t56 116.5t55.5 111.5q53 92 112.5 139.5t118.5 49.5q-25 6 -42 22.5t-23 47t0 77.5t28 117q47 147 63.5 241.5t-13.5 143.5l6 31q100 0 159.5 -26t88.5 -89q18 -41 10 -90t-27.5 -101.5t-43 -105.5t-38.5 -98q-12 -41 1.5 -65.5 t35.5 -37.5q25 -16 62 -20l-37 -88q-59 -4 -103.5 -31t-79 -68t-60.5 -90t-47.5 -99t-41 -95t-39.5 -78q-41 -63 -90 -101t-102.5 -56.5t-108.5 -20.5t-107 10z" />
<glyph unicode="~" horiz-adv-x="778" d="M63 356q61 137 115.5 186.5t101 47.5t87.5 -35t77.5 -57.5t71.5 -22.5t68 72l63 -25q-47 -104 -88 -155.5t-77 -67.5t-68.5 -5t-62 31.5t-57.5 44t-55.5 33t-55 -4t-56.5 -66.5z" />
<glyph unicode="&#xa1;" horiz-adv-x="610" d="M-63 27l473 839h96l-135 -469l-70 -166q-49 -119 -149.5 -173t-214.5 -31zM409.5 1134.5q2.5 55.5 41.5 98.5q41 43 92 47t86 -31q35 -37 32.5 -92t-40.5 -98q-39 -43 -91.5 -47.5t-87.5 30.5q-35 37 -32.5 92.5z" />
<glyph unicode="&#xa2;" horiz-adv-x="712" d="M3 439q1 93 41 193.5t109.5 182.5t166 135.5t212.5 53.5q8 0 15.5 -1.5t15.5 -1.5l60 127l88 11l-76 -162q25 -18 39 -41q14 -25 8 -46.5t-23.5 -32.5t-38 -8t-32.5 28l-295 -639q20 -18 51 -19q82 0 160 55q25 18 40 18.5t21 -9t1 -24.5t-23 -32q-55 -47 -115.5 -66.5 t-120.5 -19.5q-16 0 -29.5 1t-27.5 3l-51 -112l-88 -8l63 137q-90 33 -131 108.5t-40 168.5zM246 442.5q-4 -65.5 4 -114.5l282 606q-10 4 -30 4q-39 0 -74 -32t-66.5 -82t-56 -115.5t-40 -133t-19.5 -133z" />
<glyph unicode="&#xa3;" horiz-adv-x="1447" d="M2 134q4 34 24.5 65.5t51.5 50.5q82 47 182 56t203 -19q4 6 6 11t4 11q10 20 20.5 40t20.5 40q-74 45 -126 113.5t-66 159.5q-10 55 -3 111t35 104q20 35 45 59.5t45.5 35.5t31.5 10t5 -17q-23 -61 -30 -126t-2 -130q4 -66 35.5 -122.5t78.5 -97.5l12 25l50 96h-101 l31 82h115q84 147 169 231.5t171 137.5q57 37 118.5 51t115.5 11t97 -25.5t66 -59.5q29 -49 35 -101t-3 -104.5t-31.5 -101.5t-53.5 -92q-55 -78 -128 -142.5t-157 -107.5t-177 -61.5t-190 -3.5q-35 -47 -73 -93q49 -18 106.5 -48.5t117.5 -56.5t121.5 -36t121.5 12 q14 6 17 -2t0 -22.5t-12 -31.5t-18 -30q-37 -49 -92 -67.5t-114.5 -16.5t-120 18.5t-107.5 33.5q-57 18 -111.5 42.5t-107.5 49.5q-29 -14 -56.5 -25.5t-56.5 -19.5q-53 -14 -122.5 -21.5t-124.5 15.5q-41 16 -56.5 45.5t-11.5 63.5zM100 109q0 -16 18.5 -24.5t43 -11.5 t48.5 -2t34 3q25 4 47 15t45 28q-27 14 -66 26.5t-75.5 13.5t-64.5 -9.5t-30 -38.5zM752 399q104 -18 207.5 13.5t179.5 109.5q66 70 107.5 164t29.5 205q-10 68 -51 106.5t-96.5 24.5t-117 -91t-112.5 -239h186l-32 -82h-191q-25 -53 -52.5 -106t-57.5 -105z" />
<glyph unicode="&#xa4;" horiz-adv-x="833" d="M35 287l158 147q-23 37 -28 84t11 98q31 98 115 162l-62 125h101l39 -78q61 29 123 29q66 0 118 -33l88 82h131l-159 -149q37 -74 8 -168q-14 -47 -43 -87t-68 -73l72 -139h-100l-45 92q-61 -31 -129 -31q-61 0 -107 25l-92 -86h-131zM307 523.5q-8 -41.5 4 -72.5t39 -30 t57.5 23.5t60.5 61.5t51.5 82t29.5 86t-4 76q-12 31 -38 28.5t-56.5 -26t-61.5 -61.5t-52.5 -82t-29.5 -85.5z" />
<glyph unicode="&#xa5;" horiz-adv-x="1247" d="M4 758q-4 115 36 203t110.5 141t167 68.5t206.5 -13.5q53 -14 98.5 -34.5t98.5 -24.5q16 6 39.5 18t48.5 21.5t49.5 13.5t42.5 -2q20 -8 23.5 -20.5t-4 -25.5t-21.5 -25.5t-33 -18.5q-51 -20 -108 -25h-2q-51 -29 -95.5 -65.5t-82.5 -79.5q-37 -45 -68 -96.5t-47 -108.5 q-6 -20 -11.5 -47t-3 -52.5t13.5 -46t38 -28.5q47 -12 88 8.5t74.5 56t61.5 78.5t48 76v2q41 86 88 165t113 144q23 23 54.5 47.5t66 41t71.5 19.5t72 -15q6 -4 7 -9.5t-5 -9.5q-59 -33 -91.5 -96.5t-57.5 -122.5q-51 -121 -91.5 -209t-71 -151.5t-53 -104.5t-38.5 -70h133 l-33 -81h-152l-24 -35h160l-33 -84h-195q-23 -27 -50.5 -49.5t-55.5 -44.5q-55 -39 -121 -60.5t-131 -15.5q-72 8 -128 47t-93 100q-39 68 -43 149t45 146q27 35 68.5 56.5t88.5 0.5q-16 31 -20 67t0 71q-41 -41 -93.5 -49.5t-99.5 36.5q-31 29 -43 66t-12 78zM71 799 q-1 -45 21.5 -82t55 -53.5t68.5 -7t63 54.5q41 115 116.5 190.5t179.5 130.5q-41 0 -79.5 1t-79.5 -3q-53 -4 -106.5 -15t-100.5 -36q-74 -39 -105.5 -87t-32.5 -93zM182 252q-6 -35 2.5 -70t27.5 -61.5t51 -39.5t75 -7q45 6 81 29.5t64 56.5h-125l33 84h152l20 35h-155 l32 81h168q16 35 30.5 67t31.5 67q-29 -20 -72 -43t-90 -37.5t-93 -15.5t-81 22q-63 -8 -103.5 -56.5t-48.5 -111.5z" />
<glyph unicode="&#xa6;" horiz-adv-x="665" d="M2 -438l229 674h93l-230 -674h-92zM336 535l231 675h92l-231 -675h-92z" />
<glyph unicode="&#xa7;" horiz-adv-x="1142" d="M-123 297q4 61 33 112.5t74 88.5t101 56t116 17q59 -2 114.5 -27.5t83.5 -78.5q8 -16 12.5 -34.5t-22.5 -6.5q-25 10 -50.5 15t-51.5 7q-49 2 -97.5 -15t-88.5 -48t-69.5 -73t-39.5 -91q-12 -59 -4 -117.5t35.5 -108.5t71.5 -90t102 -61q63 -23 129.5 -22.5t128.5 30.5 q61 31 102 82.5t63.5 114t25.5 131t-11 133.5q-4 20 -11.5 43t-16.5 51.5t-20.5 69.5t-25.5 98q-8 49 -1 102.5t29.5 99.5t62.5 78t96 40q-4 45 3 95t28.5 94t57 77t87.5 45q66 16 124 -13.5t74 -96.5q8 -41 1 -81t-27.5 -76t-52 -62.5t-70.5 -40.5q23 -49 41 -98.5 t28 -102.5q18 -98 1 -191.5t-64 -179.5q-27 -51 -61.5 -88t-73.5 -65q-18 -74 -56 -142q-68 -125 -176 -181t-225 -56t-223.5 49t-169.5 135q-59 84 -93 181.5t-24 201.5zM717 737q0 -59 25.5 -112.5t39.5 -85.5q20 -49 40 -98.5t30 -102.5q12 -63 8 -133q43 47 42 141 t-77 260q-33 70 -48 129.5t-21 98.5q-23 -16 -31 -43t-8 -54zM907 1032q0 -33 12.5 -68.5t28.5 -70.5q27 4 51.5 25.5t41 51t21.5 62.5t-7 62q-12 31 -42 44t-59 -3q-29 -14 -38 -44t-9 -59z" />
<glyph unicode="&#xa8;" horiz-adv-x="565" d="M2 1072q2 56 43 99q39 43 90 47.5t86 -32.5q35 -35 34 -91.5t-42 -97.5q-39 -43 -91 -48t-87 32q-35 35 -33 91zM308 1072q3 56 42 99t91 47.5t87 -32.5q35 -35 33 -91.5t-41 -97.5q-41 -43 -93 -48t-87 32q-35 35 -32 91z" />
<glyph unicode="&#xa9;" horiz-adv-x="1521" d="M3 206q1 132 49 267t138.5 261t214 222.5t277.5 149.5t328 41q180 -10 291.5 -81t166 -177.5t52.5 -238.5t-50.5 -267t-137.5 -261t-213 -222.5t-277.5 -149.5t-327.5 -43q-180 10 -292.5 81t-166 178.5t-52.5 239.5zM133 218q-2 -120 41 -217t135.5 -160.5t237.5 -71.5 t274 43t232.5 139t178.5 203.5t114.5 239.5t42 244t-40.5 216t-134.5 159.5t-238.5 71.5q-145 8 -274.5 -41t-231.5 -138t-178 -204.5t-116 -239.5t-42 -244zM387.5 215q-18.5 96 13 208t101 208t174 159.5t233.5 63.5q53 0 89 -18.5t53 -49.5q14 -25 7 -46t-24.5 -32.5 t-38 -7.5t-30.5 31q-25 57 -84 57q-51 0 -97.5 -53t-82 -133t-57 -173t-21.5 -173t22.5 -133t77.5 -53q94 0 177 70.5t155 217.5q8 14 18 19.5t19.5 2.5t13.5 -13.5t-2 -26.5q-37 -90 -85 -155.5t-103.5 -108.5t-115 -63.5t-116.5 -20.5q-135 0 -206.5 63.5t-90 159.5z" />
<glyph unicode="&#xaa;" d="M194.5 627q-8.5 92 24.5 199.5t106.5 199.5t189.5 153.5t276 61.5q111 0 173 -29.5t101 -91.5q-41 -123 -76 -221q-14 -43 -28.5 -85t-26.5 -77t-21.5 -60.5t-11.5 -33.5q-27 -74 -19.5 -105.5t33.5 -31.5q16 0 44 13t59 44t63.5 81t61.5 124q6 16 17 21.5t19.5 2 t13.5 -14.5t-1 -27q-57 -154 -156.5 -246t-210.5 -92q-78 0 -120.5 37.5t-47.5 119.5q-47 -59 -112.5 -108t-151.5 -49q-90 0 -140 61.5t-58.5 153.5zM430 552q8 -50 45 -50q25 0 48.5 14t45 39t42 56.5t36.5 64.5q39 76 76 174l106 299q-4 10 -18 22.5t-43 12.5 q-59 0 -113.5 -50.5t-99.5 -126t-77 -164.5t-44 -165t-4 -126z" />
<glyph unicode="&#xab;" horiz-adv-x="870" d="M104 377l414 356l43 -63l-319 -277l102 -229l-55 -43zM309 377l414 356l43 -63l-320 -277l103 -229l-55 -43z" />
<glyph unicode="&#xac;" horiz-adv-x="731" d="M119 559l33 82h528l-98 -246h-86l65 164h-442z" />
<glyph unicode="&#xad;" horiz-adv-x="583" d="M84 401l33 82h332l-33 -82h-332z" />
<glyph unicode="&#xae;" horiz-adv-x="1521" d="M3 206q1 132 49 267t138.5 261t214 222.5t277.5 149.5t328 41q180 -10 291.5 -81t166 -177.5t52.5 -238.5t-50.5 -267t-137.5 -261t-213 -222.5t-277.5 -149.5t-327.5 -43q-180 10 -292.5 81t-166 178.5t-52.5 239.5zM133 218q-2 -120 41 -217t135.5 -160.5t237.5 -71.5 q160 -8 296 51t244 162q-18 12 -34 32q-47 55 -60.5 127t-5.5 142q4 35 5 77.5t-21 73.5q-27 -6 -51 -4q-31 0 -54 8l-12 -32q-23 -49 -44.5 -97.5t-45.5 -95.5q-23 -43 -47.5 -86t-59.5 -78q-35 -37 -76.5 -63.5t-91.5 -36.5q-47 -8 -96 2t-86 41q-39 33 -56.5 80t-19.5 99 t10.5 104.5t32.5 93.5q29 66 86 118q-2 53 16.5 107.5t49.5 97.5q41 63 99.5 112.5t129.5 78.5q63 29 130 35t135 2q47 -4 95 -12.5t91 -33.5q41 -25 79 -55.5t48 -79.5t-3 -92t-42 -77.5t-68 -62.5t-80 -48q25 -25 39 -53q27 -53 39 -108.5t23 -113.5q6 -29 12 -57.5 t16 -56.5q78 94 130.5 203.5t74 220t12 214t-57.5 184.5t-135 133t-218 60q-145 8 -274.5 -41t-231.5 -138t-178 -204.5t-116 -239.5t-42 -244zM279 145q6 -49 34.5 -90t81.5 -49q51 -6 90 20.5t66 67.5q59 90 92 193.5t80 199.5q18 39 45 83t60.5 80t75.5 59.5t91 25.5 q37 0 66 -14q12 -4 2 -14q-59 -29 -95 -79t-65 -108q51 0 94 -26q12 8 22.5 16t20.5 20q31 37 41.5 86.5t-0.5 94.5q-12 53 -43.5 84.5t-79.5 54.5q-74 33 -158.5 28.5t-156.5 -44.5q-78 -43 -127 -119t-59 -166q59 29 127 16q39 -6 71 -30q2 -2 8.5 -7.5t6.5 -9.5 q0 -8 -13.5 -6t-19.5 2q-92 6 -176 -39l-4 -4q10 -88 73 -152q4 -6 11.5 -12t-2.5 -10q-8 -4 -17.5 -3t-15.5 1q-49 6 -82 37q-16 16 -28.5 34.5t-22.5 39.5q-49 -53 -75 -121t-19 -140zM879 467h20q4 0 8 1t8 1q-8 2 -20 2v2h-12z" />
<glyph unicode="&#xaf;" horiz-adv-x="567" d="M2 1042l33 82h530l-35 -82h-528z" />
<glyph unicode="&#xb0;" horiz-adv-x="415" d="M156 995q12 39 36.5 73t57.5 58.5t71.5 39t77.5 14.5q86 0 127 -60q23 -29 28 -68.5t-7 -80.5q-12 -39 -38 -73t-58.5 -58.5t-71.5 -39t-78 -14.5q-84 0 -127 60q-47 66 -18 149zM233.5 975q-22.5 -45 4.5 -82t75.5 -26.5t92 44t65 80.5t-5.5 84q-27 35 -75 23.5t-91 -45 t-65.5 -78.5z" />
<glyph unicode="&#xb1;" horiz-adv-x="731" d="M-59 150l32 81h529l-33 -81h-528zM119 559l33 82h213l88 201h90l-88 -201h225l-33 -82h-227l-88 -201h-90l88 201h-211z" />
<glyph unicode="&#xb2;" horiz-adv-x="854" d="M37 467q0 47 34.5 81t73.5 52q86 43 248 37q86 76 167 164t171 198q25 31 67 83.5t81 112.5t64.5 118.5t17.5 101.5q-6 33 -27 49.5t-48.5 20.5t-56 -1t-51.5 -16q-53 -27 -93 -67.5t-75 -87.5q-41 -55 -70.5 -119t-41.5 -131q-10 -43 -8 -91t30 -89l13.5 -13.5 t1.5 -13.5q-37 -20 -75 -14t-69 26q-41 27 -62.5 64t-29.5 80t-4 88t16 86q27 82 76 150.5t117 121.5q59 45 145 80t171 36t155.5 -39t99.5 -144q25 -90 8.5 -175.5t-58.5 -163t-102.5 -145t-125.5 -119.5q-59 -47 -123 -86.5t-129 -76.5q63 -6 105 -12.5t73 -9.5t56.5 -1 t56.5 14q8 4 26.5 13.5t22.5 5.5q8 -8 3 -30.5l-7 -31.5q-14 -57 -60.5 -99t-105.5 -58q-72 -23 -146.5 -10.5t-142.5 40.5q-29 14 -59.5 25.5t-61.5 20.5q-16 -8 -59 -33t-90 -41.5t-83 -10t-36 59.5z" />
<glyph unicode="&#xb3;" horiz-adv-x="942" d="M164 684q-12 68 4 136.5t68 125.5q41 47 99 76t122 31q35 0 69.5 -9.5t61.5 -31.5q4 -4 12 -11.5t15.5 -15.5t11.5 -16t-2 -13q-12 2 -31 0q-33 -4 -82 -24q-35 -16 -60.5 -43t-48.5 -55q-18 -29 -35.5 -62t-27.5 -67.5t-12 -71.5t8 -70q18 -57 74 -82q53 -23 102 -12.5 t91 38.5t77 67.5t63 80.5q23 31 49.5 75t45 92t22.5 95.5t-18 88.5q-14 -4 -42 -5.5t-44 -1.5q-74 0 -106 24t-28.5 50.5t38 45t94.5 9.5q39 -6 65 -20q29 25 50.5 58.5t37.5 68.5q10 20 25.5 56t23 73t4 69.5t-29.5 49.5q-29 18 -58.5 17t-58.5 -14t-53.5 -34.5 t-40.5 -42.5q-39 -47 -49.5 -106.5t32.5 -112.5q-86 -12 -137 15.5t-70.5 73.5t-8 102.5t49 104.5t101 77.5t151.5 23.5q51 -4 101.5 -15t95.5 -36q59 -31 101.5 -85t54.5 -120q12 -70 -19.5 -135.5t-85.5 -108.5q-47 -37 -106 -59q18 -23 34.5 -45t26.5 -49 q29 -68 27 -138.5t-27.5 -136t-73 -120t-108.5 -90.5q-55 -33 -119.5 -50.5t-130 -17.5t-128 18.5t-118.5 55.5q-59 41 -98 101t-51 128z" />
<glyph unicode="&#xb4;" horiz-adv-x="546" d="M6 1032.5q-4 18.5 2 38.5l498 193q18 6 30.5 -9.5t6.5 -37.5l-29 -89q-16 -43 -46 -70.5t-69 -33.5l-309 -49q-20 -4 -38.5 3t-30 21.5t-15.5 33z" />
<glyph unicode="&#xb5;" horiz-adv-x="878" d="M-279 -438l306 903q20 68 49.5 134.5t69.5 117.5t91.5 82.5t112.5 31.5h62q-63 -127 -115.5 -262t-83.5 -247.5t-34 -185.5t34 -73q31 0 62.5 30t61.5 76t54.5 100.5t42.5 101.5l2 6l12.5 37.5t34 97.5t64.5 186q23 59 73 96t113 37h109q-49 -139 -90 -260 q-18 -51 -36 -103t-34 -98t-28.5 -82t-18.5 -55q-27 -74 -19.5 -105.5t35.5 -31.5q16 0 43 13.5t58.5 44t64.5 81t62 123.5q6 16 16 21.5t19.5 2.5t13.5 -14.5t-2 -27.5q-57 -154 -155.5 -246t-211.5 -92q-76 0 -120 38t-48 116q-43 -78 -93 -116t-118 -38q-135 0 -178 121 l-188 -561h-93z" />
<glyph unicode="&#xb6;" horiz-adv-x="972" d="M125 -213l328 952q-49 33 -70 77t-18.5 91t25 94.5t59 84t86 59t104.5 22.5h403l-32 -82h-142l-446 -1298h-92l446 1298h-112l-447 -1298h-92z" />
<glyph unicode="&#xb7;" horiz-adv-x="552" d="M104 411.5q2 55.5 43 98.5q39 43 91.5 47t87.5 -31q35 -37 32.5 -92t-43.5 -98q-39 -43 -91 -47t-87 30q-35 37 -33 92.5z" />
<glyph unicode="&#xb8;" horiz-adv-x="456" d="M2 -324l47 48q68 -41 125 -38t93 27.5t47.5 57t-11.5 53.5q-23 18 -51.5 21t-54.5 -1q-31 -6 -62 -16v59l154 146l73 -13l-116 -114q20 0 43 -4q18 -4 42.5 -12.5t47.5 -24.5q49 -35 65.5 -78t4 -82t-49.5 -68.5t-95 -39t-135 7t-167 71.5z" />
<glyph unicode="&#xb9;" horiz-adv-x="481" d="M135 410q10 33 39 115.5t65.5 189t77.5 225.5t76 223.5t61.5 180t34.5 98.5q20 59 70.5 96t114.5 37h108q-104 -299 -188 -545q-37 -104 -73 -207.5t-65.5 -188.5t-50 -145.5t-26.5 -78.5h-244z" />
<glyph unicode="&#xba;" horiz-adv-x="968" d="M215 637q-16 92 4.5 211t87.5 254q61 123 133 218t155 155.5t177 85t203 6.5q84 -14 131 -82t59.5 -165t-10 -209t-78.5 -214q-145 -270 -314 -396t-362 -89q-72 14 -121 73.5t-65 151.5zM419 648q1 -77 22.5 -124t68.5 -49t99.5 39t102.5 109.5t96 157.5t80 183.5 t55.5 185.5t23.5 167t-18.5 126t-69.5 60q-59 12 -116.5 -24.5t-109 -105t-94.5 -162t-74.5 -192.5t-49 -196.5t-16.5 -174.5z" />
<glyph unicode="&#xbb;" horiz-adv-x="870" d="M104 184l320 277l-102 229l55 43l184 -256l-414 -356zM309 184l320 277l-103 229l56 43l184 -256l-414 -356z" />
<glyph unicode="&#xbc;" horiz-adv-x="1746" d="M84 -233l1292 1660h111l-1290 -1660h-113zM135 266q10 33 39 116t65.5 189.5t77.5 225t76 223t61.5 180.5t34.5 98q20 59 70.5 96.5t114.5 37.5h108q-104 -299 -188 -545q-37 -104 -73 -208t-65.5 -188.5t-50 -145t-26.5 -79.5h-244zM514 49q0 6 16.5 18.5t53.5 45.5 q92 84 177 174t169 182q86 96 166 193.5t157 199.5q4 4 5.5 1t1.5 -5q-8 -117 -49.5 -225.5t-98.5 -206.5q-47 -80 -104.5 -158t-128.5 -147h225l242 706q20 59 70 96.5t114 37.5h108q-47 -141 -98 -285q-43 -123 -93 -269.5t-95 -275.5l102 10l-31 -96h-100l-88 -250h-244 l86 250h-321q-31 -10 -72 -16t-79 -6t-64.5 7t-26.5 19z" />
<glyph unicode="&#xbd;" horiz-adv-x="1873" d="M84 -233l1292 1660h111l-1290 -1660h-113zM135 266q10 33 39 116t65.5 189.5t77.5 225t76 223t61.5 180.5t34.5 98q20 59 70.5 96.5t114.5 37.5h108q-104 -299 -188 -545q-37 -104 -73 -208t-65.5 -188.5t-50 -145t-26.5 -79.5h-244zM690 -147q0 47 35 80.5t74 52.5 q86 43 248 37q86 76 166.5 163.5t170.5 198.5q25 31 67 83t81 112.5t64.5 119t17.5 101.5q-6 33 -26.5 49t-48.5 20t-56.5 -1t-50.5 -15q-53 -27 -93.5 -68t-74.5 -88q-41 -55 -71 -118.5t-42 -130.5q-10 -43 -8 -91.5t31 -89.5l13 -13t1 -13q-37 -20 -75 -14.5t-69 26.5 q-41 27 -62 63.5t-29.5 79.5t-4.5 88t17 86q27 82 76 151t116 122q59 45 145.5 79.5t171.5 36t155.5 -39t99.5 -144.5q25 -90 8 -175t-59 -163t-102 -145.5t-126 -118.5q-59 -47 -122.5 -87t-129.5 -77q63 -6 105.5 -12t73 -9t56 -1t56.5 14q8 4 26.5 13.5t22.5 4.5 q8 -8 3 -30.5t-7 -30.5q-14 -57 -60.5 -99t-105.5 -59q-72 -23 -146.5 -10.5t-142.5 41.5q-29 14 -59.5 25.5t-61.5 19.5q-16 -8 -59 -32.5t-90 -41t-83 -10.5t-36 60z" />
<glyph unicode="&#xbe;" horiz-adv-x="2185" d="M143.5 540.5q-12.5 67.5 4 136t67.5 126.5q41 47 99.5 75.5t121.5 30.5q35 0 70 -9t61 -32q4 -4 12.5 -11t15.5 -15t11 -16.5t-2 -12.5q-12 2 -31 0q-33 -4 -81 -25q-35 -16 -60.5 -42.5t-48.5 -55.5q-18 -29 -35.5 -61.5t-28 -67.5t-12.5 -71.5t8 -69.5q18 -57 74 -82 q53 -23 102.5 -12.5t91.5 38t76.5 67.5t63.5 81q23 31 49.5 75t45 92t22.5 95t-19 88q-14 -4 -41.5 -5t-44.5 -1q-74 0 -105.5 23.5t-28.5 50t38 45t94 10.5q39 -6 66 -20q29 25 50 58.5t38 68.5q10 20 25.5 56t22.5 72.5t4 69.5t-30 49q-29 18 -58.5 17.5t-58 -14t-53 -35 t-41.5 -41.5q-39 -47 -49 -106.5t33 -112.5q-86 -12 -137 15.5t-70.5 73.5t-8.5 102t49 104.5t101.5 78t151.5 23.5q51 -4 101.5 -15.5t95.5 -35.5q59 -31 101 -85t54 -120q12 -70 -19.5 -135.5t-84.5 -108.5q-47 -37 -107 -59q18 -23 35 -45.5t27 -48.5q29 -68 26.5 -138.5 t-28 -136t-72.5 -120t-109 -91.5q-55 -33 -119.5 -50t-130 -17t-128 18t-117.5 55q-59 41 -98 101.5t-51.5 128zM524 -233l1293 1660h110l-1290 -1660h-113zM965 70q0 6 16 18t53 45q92 84 177 174t169 182q86 96 166 193.5t158 200.5q4 4 5 1t1 -5q-8 -117 -49 -225.5 t-98 -207.5q-47 -80 -104.5 -157.5t-129.5 -147.5h225l242 707q20 59 70.5 96t113.5 37h109q-47 -141 -98 -285q-43 -123 -93.5 -269t-95.5 -275l103 10l-31 -96h-100l-88 -250h-244l86 250h-322q-31 -10 -71.5 -16.5t-78.5 -6.5t-64.5 7t-26.5 20z" />
<glyph unicode="&#xbf;" horiz-adv-x="829" d="M-10 304.5q10 57.5 38.5 107t72.5 90.5t96 65q49 25 97 47.5t91 55.5q23 14 46.5 35.5t43 47t30.5 54.5t9 59h92q2 -104 -28.5 -181t-79.5 -135t-108.5 -98t-115.5 -71q-37 -20 -68.5 -54t-47 -74t-10 -80t37.5 -73q31 -31 71 -40t81 -4t80 23.5t65 47.5q33 33 52.5 79 t15.5 93q-4 41 -30.5 70.5t-61.5 52.5q4 20 23.5 37.5t47 22.5t60 -6t63.5 -46q33 -39 41 -96.5t-6 -104.5q-18 -61 -54 -105t-82 -72.5t-100.5 -44t-109.5 -17.5q-55 -4 -109.5 4t-101.5 31.5t-83 63.5t-52 99t-6 116.5zM502 1134.5q2 55.5 41 98.5q41 43 92 47t86 -31 q35 -37 33 -92t-41 -98t-91 -47.5t-87 30.5q-35 37 -33 92.5z" />
<glyph unicode="&#xc0;" horiz-adv-x="1685" d="M3 301q5 94 28 172q27 90 76 168t120 135q16 10 31.5 21.5t32.5 21.5q-4 29 -4 57.5t2 57.5q4 61 17 122.5t40 119.5q47 102 126 159.5t187 79.5q131 25 258 3.5t254 -50.5q66 -16 130.5 -28.5t130.5 -18.5q59 31 120.5 48t141.5 3q43 -8 49 -28.5t-12.5 -40t-56.5 -33 t-87 -6.5q-29 -29 -55.5 -58.5t-50.5 -60.5q-59 -72 -111.5 -146.5t-105.5 -152.5l-146 -217q33 -29 60.5 -65t54.5 -77q25 129 84 248t131 230q47 72 96 141.5t111 130.5q10 10 18 2t4 -18q-61 -121 -111 -243t-79 -255q-29 -123 -45.5 -254t12.5 -256q16 -72 58 -124 t104 -105q12 -10 6 -17.5t-22.5 -11.5t-36 -5t-33.5 1q-41 4 -81 17.5t-75 37.5q-70 51 -107.5 127t-41.5 160q-6 96 -46 158.5t-102 119.5q-59 -84 -121.5 -163.5t-130.5 -157.5q-57 -68 -122.5 -129.5t-141.5 -108.5q-66 -43 -141.5 -72.5t-155.5 -23.5 q-104 6 -162.5 65.5t-81 142.5t-17.5 177zM75 227q-1 -45 9 -87t37 -77q41 -53 103.5 -59t119.5 21q82 37 143.5 107t114.5 142q76 102 143.5 209t137.5 215q-129 53 -267 54q-53 0 -104 -9.5t-102 -25.5q12 -14 26.5 -25.5t30.5 -19.5q41 -23 87 -27t93 4q8 0 5 -9 t-10 -20.5t-15.5 -21.5t-10.5 -10q-41 -35 -94 -35q-63 0 -114.5 36t-77.5 89q-162 -113 -221 -281q-14 -37 -23.5 -81t-10.5 -89zM354 854q84 41 186.5 39t194.5 -31q106 -35 197 -88q23 35 47 72t51 72q66 92 139.5 176t165.5 161q-98 2 -197.5 7.5t-199.5 3.5 q-104 -2 -207.5 -16.5t-191.5 -73.5q-39 -29 -74 -64t-61.5 -76t-40 -87t-9.5 -95zM1309 1679v90q0 47 20.5 61.5t50.5 -7.5l369 -224q25 -16 34 -42.5t-1 -53.5l-6 -14l-387 82q-37 6 -58.5 34.5t-21.5 73.5z" />
<glyph unicode="&#xc1;" horiz-adv-x="1685" d="M3 301q5 94 28 172q27 90 76 168t120 135q16 10 31.5 21.5t32.5 21.5q-4 29 -4 57.5t2 57.5q4 61 17 122.5t40 119.5q47 102 126 159.5t187 79.5q131 25 258 3.5t254 -50.5q66 -16 130.5 -28.5t130.5 -18.5q59 31 120.5 48t141.5 3q43 -8 49 -28.5t-12.5 -40t-56.5 -33 t-87 -6.5q-29 -29 -55.5 -58.5t-50.5 -60.5q-59 -72 -111.5 -146.5t-105.5 -152.5l-146 -217q33 -29 60.5 -65t54.5 -77q25 129 84 248t131 230q47 72 96 141.5t111 130.5q10 10 18 2t4 -18q-61 -121 -111 -243t-79 -255q-29 -123 -45.5 -254t12.5 -256q16 -72 58 -124 t104 -105q12 -10 6 -17.5t-22.5 -11.5t-36 -5t-33.5 1q-41 4 -81 17.5t-75 37.5q-70 51 -107.5 127t-41.5 160q-6 96 -46 158.5t-102 119.5q-59 -84 -121.5 -163.5t-130.5 -157.5q-57 -68 -122.5 -129.5t-141.5 -108.5q-66 -43 -141.5 -72.5t-155.5 -23.5 q-104 6 -162.5 65.5t-81 142.5t-17.5 177zM75 227q-1 -45 9 -87t37 -77q41 -53 103.5 -59t119.5 21q82 37 143.5 107t114.5 142q76 102 143.5 209t137.5 215q-129 53 -267 54q-53 0 -104 -9.5t-102 -25.5q12 -14 26.5 -25.5t30.5 -19.5q41 -23 87 -27t93 4q8 0 5 -9 t-10 -20.5t-15.5 -21.5t-10.5 -10q-41 -35 -94 -35q-63 0 -114.5 36t-77.5 89q-162 -113 -221 -281q-14 -37 -23.5 -81t-10.5 -89zM354 854q84 41 186.5 39t194.5 -31q106 -35 197 -88q23 35 47 72t51 72q66 92 139.5 176t165.5 161q-98 2 -197.5 7.5t-199.5 3.5 q-104 -2 -207.5 -16.5t-191.5 -73.5q-39 -29 -74 -64t-61.5 -76t-40 -87t-9.5 -95zM1431.5 1572.5q-4.5 18.5 2.5 39.5l497 192q18 6 30.5 -9t6.5 -38l-29 -88q-16 -43 -45.5 -70.5t-68.5 -33.5l-309 -49q-20 -4 -39 3t-30 21t-15.5 32.5z" />
<glyph unicode="&#xc2;" horiz-adv-x="1685" d="M3 301q5 94 28 172q27 90 76 168t120 135q16 10 31.5 21.5t32.5 21.5q-4 29 -4 57.5t2 57.5q4 61 17 122.5t40 119.5q47 102 126 159.5t187 79.5q131 25 258 3.5t254 -50.5q66 -16 130.5 -28.5t130.5 -18.5q59 31 120.5 48t141.5 3q43 -8 49 -28.5t-12.5 -40t-56.5 -33 t-87 -6.5q-29 -29 -55.5 -58.5t-50.5 -60.5q-59 -72 -111.5 -146.5t-105.5 -152.5l-146 -217q33 -29 60.5 -65t54.5 -77q25 129 84 248t131 230q47 72 96 141.5t111 130.5q10 10 18 2t4 -18q-61 -121 -111 -243t-79 -255q-29 -123 -45.5 -254t12.5 -256q16 -72 58 -124 t104 -105q12 -10 6 -17.5t-22.5 -11.5t-36 -5t-33.5 1q-41 4 -81 17.5t-75 37.5q-70 51 -107.5 127t-41.5 160q-6 96 -46 158.5t-102 119.5q-59 -84 -121.5 -163.5t-130.5 -157.5q-57 -68 -122.5 -129.5t-141.5 -108.5q-66 -43 -141.5 -72.5t-155.5 -23.5 q-104 6 -162.5 65.5t-81 142.5t-17.5 177zM75 227q-1 -45 9 -87t37 -77q41 -53 103.5 -59t119.5 21q82 37 143.5 107t114.5 142q76 102 143.5 209t137.5 215q-129 53 -267 54q-53 0 -104 -9.5t-102 -25.5q12 -14 26.5 -25.5t30.5 -19.5q41 -23 87 -27t93 4q8 0 5 -9 t-10 -20.5t-15.5 -21.5t-10.5 -10q-41 -35 -94 -35q-63 0 -114.5 36t-77.5 89q-162 -113 -221 -281q-14 -37 -23.5 -81t-10.5 -89zM354 854q84 41 186.5 39t194.5 -31q106 -35 197 -88q23 35 47 72t51 72q66 92 139.5 176t165.5 161q-98 2 -197.5 7.5t-199.5 3.5 q-104 -2 -207.5 -16.5t-191.5 -73.5q-39 -29 -74 -64t-61.5 -76t-40 -87t-9.5 -95zM1309 1542l323 248h127l92 -248l-61 -45l-141 115l-297 -115z" />
<glyph unicode="&#xc3;" horiz-adv-x="1685" d="M3 301q5 94 28 172q27 90 76 168t120 135q16 10 31.5 21.5t32.5 21.5q-4 29 -4 57.5t2 57.5q4 61 17 122.5t40 119.5q47 102 126 159.5t187 79.5q131 25 258 3.5t254 -50.5q66 -16 130.5 -28.5t130.5 -18.5q59 31 120.5 48t141.5 3q43 -8 49 -28.5t-12.5 -40t-56.5 -33 t-87 -6.5q-29 -29 -55.5 -58.5t-50.5 -60.5q-59 -72 -111.5 -146.5t-105.5 -152.5l-146 -217q33 -29 60.5 -65t54.5 -77q25 129 84 248t131 230q47 72 96 141.5t111 130.5q10 10 18 2t4 -18q-61 -121 -111 -243t-79 -255q-29 -123 -45.5 -254t12.5 -256q16 -72 58 -124 t104 -105q12 -10 6 -17.5t-22.5 -11.5t-36 -5t-33.5 1q-41 4 -81 17.5t-75 37.5q-70 51 -107.5 127t-41.5 160q-6 96 -46 158.5t-102 119.5q-59 -84 -121.5 -163.5t-130.5 -157.5q-57 -68 -122.5 -129.5t-141.5 -108.5q-66 -43 -141.5 -72.5t-155.5 -23.5 q-104 6 -162.5 65.5t-81 142.5t-17.5 177zM75 227q-1 -45 9 -87t37 -77q41 -53 103.5 -59t119.5 21q82 37 143.5 107t114.5 142q76 102 143.5 209t137.5 215q-129 53 -267 54q-53 0 -104 -9.5t-102 -25.5q12 -14 26.5 -25.5t30.5 -19.5q41 -23 87 -27t93 4q8 0 5 -9 t-10 -20.5t-15.5 -21.5t-10.5 -10q-41 -35 -94 -35q-63 0 -114.5 36t-77.5 89q-162 -113 -221 -281q-14 -37 -23.5 -81t-10.5 -89zM354 854q84 41 186.5 39t194.5 -31q106 -35 197 -88q23 35 47 72t51 72q66 92 139.5 176t165.5 161q-98 2 -197.5 7.5t-199.5 3.5 q-104 -2 -207.5 -16.5t-191.5 -73.5q-39 -29 -74 -64t-61.5 -76t-40 -87t-9.5 -95zM1284 1542q63 137 127 186.5t126 47.5t121.5 -35t113 -57.5t98.5 -22.5t78 72l63 -25q-47 -104 -94 -155.5t-93 -68t-91 -5t-89.5 32t-85 44t-77.5 32.5t-71 -4t-62 -66z" />
<glyph unicode="&#xc4;" horiz-adv-x="1685" d="M3 301q5 94 28 172q27 90 76 168t120 135q16 10 31.5 21.5t32.5 21.5q-4 29 -4 57.5t2 57.5q4 61 17 122.5t40 119.5q47 102 126 159.5t187 79.5q131 25 258 3.5t254 -50.5q66 -16 130.5 -28.5t130.5 -18.5q59 31 120.5 48t141.5 3q43 -8 49 -28.5t-12.5 -40t-56.5 -33 t-87 -6.5q-29 -29 -55.5 -58.5t-50.5 -60.5q-59 -72 -111.5 -146.5t-105.5 -152.5l-146 -217q33 -29 60.5 -65t54.5 -77q25 129 84 248t131 230q47 72 96 141.5t111 130.5q10 10 18 2t4 -18q-61 -121 -111 -243t-79 -255q-29 -123 -45.5 -254t12.5 -256q16 -72 58 -124 t104 -105q12 -10 6 -17.5t-22.5 -11.5t-36 -5t-33.5 1q-41 4 -81 17.5t-75 37.5q-70 51 -107.5 127t-41.5 160q-6 96 -46 158.5t-102 119.5q-59 -84 -121.5 -163.5t-130.5 -157.5q-57 -68 -122.5 -129.5t-141.5 -108.5q-66 -43 -141.5 -72.5t-155.5 -23.5 q-104 6 -162.5 65.5t-81 142.5t-17.5 177zM75 227q-1 -45 9 -87t37 -77q41 -53 103.5 -59t119.5 21q82 37 143.5 107t114.5 142q76 102 143.5 209t137.5 215q-129 53 -267 54q-53 0 -104 -9.5t-102 -25.5q12 -14 26.5 -25.5t30.5 -19.5q41 -23 87 -27t93 4q8 0 5 -9 t-10 -20.5t-15.5 -21.5t-10.5 -10q-41 -35 -94 -35q-63 0 -114.5 36t-77.5 89q-162 -113 -221 -281q-14 -37 -23.5 -81t-10.5 -89zM354 854q84 41 186.5 39t194.5 -31q106 -35 197 -88q23 35 47 72t51 72q66 92 139.5 176t165.5 161q-98 2 -197.5 7.5t-199.5 3.5 q-104 -2 -207.5 -16.5t-191.5 -73.5q-39 -29 -74 -64t-61.5 -76t-40 -87t-9.5 -95zM1339 1613q2 56 43 99q39 43 90.5 47t86.5 -33q35 -35 33.5 -91t-42.5 -97q-39 -43 -91 -48t-87 32q-35 35 -33 91zM1645.5 1613q3.5 56 42.5 99t91 47t87 -33q35 -35 32.5 -91t-40.5 -97 q-41 -43 -93.5 -48t-87.5 32q-35 35 -31.5 91z" />
<glyph unicode="&#xc5;" horiz-adv-x="1685" d="M3 301q5 94 28 172q27 90 76 168t120 135q16 10 31.5 21.5t32.5 21.5q-4 29 -4 57.5t2 57.5q4 61 17 122.5t40 119.5q47 102 126 159.5t187 79.5q131 25 258 3.5t254 -50.5q66 -16 130.5 -28.5t130.5 -18.5q59 31 120.5 48t141.5 3q43 -8 49 -28.5t-12.5 -40t-56.5 -33 t-87 -6.5q-29 -29 -55.5 -58.5t-50.5 -60.5q-59 -72 -111.5 -146.5t-105.5 -152.5l-146 -217q33 -29 60.5 -65t54.5 -77q25 129 84 248t131 230q47 72 96 141.5t111 130.5q10 10 18 2t4 -18q-61 -121 -111 -243t-79 -255q-29 -123 -45.5 -254t12.5 -256q16 -72 58 -124 t104 -105q12 -10 6 -17.5t-22.5 -11.5t-36 -5t-33.5 1q-41 4 -81 17.5t-75 37.5q-70 51 -107.5 127t-41.5 160q-6 96 -46 158.5t-102 119.5q-59 -84 -121.5 -163.5t-130.5 -157.5q-57 -68 -122.5 -129.5t-141.5 -108.5q-66 -43 -141.5 -72.5t-155.5 -23.5 q-104 6 -162.5 65.5t-81 142.5t-17.5 177zM75 227q-1 -45 9 -87t37 -77q41 -53 103.5 -59t119.5 21q82 37 143.5 107t114.5 142q76 102 143.5 209t137.5 215q-129 53 -267 54q-53 0 -104 -9.5t-102 -25.5q12 -14 26.5 -25.5t30.5 -19.5q41 -23 87 -27t93 4q8 0 5 -9 t-10 -20.5t-15.5 -21.5t-10.5 -10q-41 -35 -94 -35q-63 0 -114.5 36t-77.5 89q-162 -113 -221 -281q-14 -37 -23.5 -81t-10.5 -89zM354 854q84 41 186.5 39t194.5 -31q106 -35 197 -88q23 35 47 72t51 72q66 92 139.5 176t165.5 161q-98 2 -197.5 7.5t-199.5 3.5 q-104 -2 -207.5 -16.5t-191.5 -73.5q-39 -29 -74 -64t-61.5 -76t-40 -87t-9.5 -95zM1511 1659q12 39 37 72.5t57.5 58.5t71.5 39t78 14q86 0 127 -59q23 -29 28 -69t-7 -81q-12 -39 -38 -72.5t-58.5 -58t-71.5 -39t-78 -14.5q-84 0 -127 59q-47 66 -19 150zM1589 1638 q-23 -45 4 -82t76 -26.5t92 44.5t64.5 81t-4.5 84q-27 35 -75 23.5t-91 -45.5t-66 -79z" />
<glyph unicode="&#xc6;" horiz-adv-x="2281" d="M3 301q5 94 28 172q27 90 76 168t120 135q16 10 31.5 21.5t32.5 21.5q-4 29 -4 57.5t2 57.5q4 61 17 122.5t40 119.5q47 102 126 159.5t187 79.5q131 25 258 3.5t254 -50.5q66 -16 130.5 -28.5t130.5 -18.5q53 29 108 45t125 10q27 29 59.5 52.5t73.5 39.5q61 25 130 24 t130 -30q80 -39 119 -114.5t10 -165.5q-29 -84 -93 -144.5t-142 -95.5q-61 -31 -137 -43q10 -10 25 -20.5t44 -20.5q29 4 68 -2t71 -25q12 -6 21.5 -17t13.5 -23.5t-1 -23.5t-23 -17q-37 -14 -82 2t-78 36q-125 -10 -231.5 -68t-174.5 -167q-35 -53 -54 -116.5t-23.5 -130 t9 -131t48.5 -120.5q35 -55 88 -91t114.5 -50t125 -4t118.5 47q53 35 91 87t55.5 111.5t14.5 123t-30 122.5q-16 33 -32 58q-16 20 6 22q25 4 52.5 -10t47.5 -31q49 -41 70.5 -102.5t17.5 -124.5q-10 -131 -98 -220t-211 -126q-106 -33 -221 -23.5t-213 62.5q-68 37 -119 93 t-82 123.5t-43 142.5t-4 149q-18 47 -49 84t-70 73q-59 -84 -121.5 -163.5t-130.5 -157.5q-57 -68 -122.5 -129.5t-141.5 -108.5q-66 -43 -141.5 -72.5t-155.5 -23.5q-104 6 -162.5 65.5t-81 142.5t-17.5 177zM75 227q-1 -45 9 -87t37 -77q41 -53 103.5 -59t119.5 21 q82 37 143.5 107t114.5 142q76 102 143.5 209t137.5 215q-129 53 -267 54q-53 0 -104 -9.5t-102 -25.5q12 -14 26.5 -25.5t30.5 -19.5q41 -23 87 -27t93 4q8 0 5 -9t-10 -20.5t-15.5 -21.5t-10.5 -10q-41 -35 -94 -35q-63 0 -114.5 36t-77.5 89q-162 -113 -221 -281 q-14 -37 -23.5 -81t-10.5 -89zM354 854q84 41 186.5 39t194.5 -31q106 -35 197 -88q23 35 47 72t51 72q66 92 139.5 176t165.5 161q-98 2 -197.5 7.5t-199.5 3.5q-104 -2 -207.5 -16.5t-191.5 -73.5q-39 -29 -74 -64t-61.5 -76t-40 -87t-9.5 -95zM1118 629 q29 -25 52.5 -54.5t46.5 -64.5q31 100 102 180q84 92 193.5 124t226.5 34q-61 31 -101.5 78t-57.5 102t-14 115.5t25 118.5q-2 0 -2 1t-2 1q-29 -29 -55.5 -58.5t-50.5 -60.5q-59 -72 -111.5 -146.5t-105.5 -152.5zM1767 1092.5q-12 -62.5 5 -119.5q102 -4 199 37t145 129 q16 39 24 82t-12 82q-27 51 -86 57q-37 6 -73 -6.5t-66.5 -34t-55.5 -52t-41 -61.5q-27 -51 -39 -113.5z" />
<glyph unicode="&#xc7;" horiz-adv-x="1112" d="M5 1084.5q11 62.5 65 115.5q2 2 14 11.5t24.5 16.5t22.5 10t8 -7q-6 -49 -8 -98.5t6 -95.5t27.5 -88t54.5 -79q6 14 13.5 27.5t15.5 28.5q70 119 166 221t219 168q55 29 125.5 52.5t145.5 30.5t146.5 -5.5t131.5 -53.5q57 -41 80.5 -97t21.5 -117.5t-24.5 -122 t-59.5 -109.5q-84 -109 -208 -165t-253 -81q-94 -18 -193.5 -20t-193.5 22l-35 -80q-23 -51 -42 -110.5t-29 -119.5t-6 -119.5t28 -113.5q16 -35 42 -59t57 -41q59 -31 126.5 -18.5t122.5 45.5q53 31 96.5 77t69 101t32.5 116.5t-11 123.5q-4 14 8 9t16 -7q82 -51 101 -148 q12 -72 -15.5 -142.5t-78.5 -123.5q-37 -39 -87.5 -66.5t-105.5 -43t-112.5 -18.5t-112.5 9l-82 -82q20 0 43 -4q18 -4 42.5 -12t47.5 -25q49 -35 65.5 -78t4 -81.5t-49 -68.5t-95 -39t-135.5 7.5t-167 71.5l47 47q68 -41 125 -38t93 27.5t47.5 57.5t-11.5 53 q-23 18 -51.5 21.5t-54.5 -0.5q-31 -6 -62 -17v60l127 121l-26 12q-51 27 -90 67.5t-67 90t-45.5 103.5t-25.5 110q-16 106 3.5 212.5t60.5 206.5q-49 39 -89 96.5t-58.5 120t-7.5 125zM410 760q72 -23 145.5 -30t142.5 -3q98 6 197.5 36t179.5 89q45 35 79 77t54 95 q18 51 17.5 110.5t-35.5 104.5q-31 39 -77 49t-95 2t-96 -27.5t-82 -37.5q-139 -78 -240.5 -199t-189.5 -266z" />
<glyph unicode="&#xc8;" horiz-adv-x="1071" d="M14.5 522.5q20.5 110.5 86 206.5t169.5 154q109 57 223.5 51t225.5 -45q-23 29 -37 57q-92 37 -158.5 102.5t-83.5 165.5q-6 47 4.5 95.5t44.5 83.5q12 12 26.5 21t31.5 18q2 0 11 3t18.5 4t15.5 0t4 -7q-16 -61 -25.5 -125t15.5 -123q20 -49 59 -90q0 29 3 57.5t14 56.5 q31 106 121.5 172t201.5 72q66 4 130.5 -20.5t111.5 -71.5q63 -66 73.5 -150t-47.5 -157q-53 -70 -135 -106t-168 -42q-70 -6 -143 6q6 -14 17.5 -27.5t33.5 -33.5q29 -8 63.5 -25.5t59.5 -46.5q18 -20 19.5 -51t-37.5 -31t-76 31t-62 61q-121 33 -240.5 12.5t-219.5 -98.5 q-49 -39 -90.5 -92t-68 -113.5t-34.5 -126t4 -128.5q14 -66 52 -117t91.5 -85t117 -46t126.5 4q63 14 115.5 50t89.5 87t56.5 111.5t13.5 126.5q-2 33 -13 63q-8 25 15 21q25 -6 45 -28.5t35 -45.5q33 -55 32.5 -119.5t-26.5 -124.5q-27 -59 -70 -102t-97 -70.5t-115.5 -40 t-125.5 -8.5q-111 6 -216 52t-179 132q-78 86 -103.5 198t-5 222.5zM793 995q47 -18 98 -26t101 -5t96.5 20t82.5 52q29 29 51.5 68t16.5 82q-10 55 -61 82q-35 18 -72 19t-74 -9t-69.5 -29.5t-59.5 -44.5q-41 -41 -73.5 -95t-36.5 -114zM834 1679v90q0 47 20 61.5t51 -7.5 l369 -224q25 -16 34 -42.5t-1 -53.5l-7 -14l-387 82q-37 6 -58 34.5t-21 73.5z" />
<glyph unicode="&#xc9;" horiz-adv-x="1071" d="M14.5 522.5q20.5 110.5 86 206.5t169.5 154q109 57 223.5 51t225.5 -45q-23 29 -37 57q-92 37 -158.5 102.5t-83.5 165.5q-6 47 4.5 95.5t44.5 83.5q12 12 26.5 21t31.5 18q2 0 11 3t18.5 4t15.5 0t4 -7q-16 -61 -25.5 -125t15.5 -123q20 -49 59 -90q0 29 3 57.5t14 56.5 q31 106 121.5 172t201.5 72q66 4 130.5 -20.5t111.5 -71.5q63 -66 73.5 -150t-47.5 -157q-53 -70 -135 -106t-168 -42q-70 -6 -143 6q6 -14 17.5 -27.5t33.5 -33.5q29 -8 63.5 -25.5t59.5 -46.5q18 -20 19.5 -51t-37.5 -31t-76 31t-62 61q-121 33 -240.5 12.5t-219.5 -98.5 q-49 -39 -90.5 -92t-68 -113.5t-34.5 -126t4 -128.5q14 -66 52 -117t91.5 -85t117 -46t126.5 4q63 14 115.5 50t89.5 87t56.5 111.5t13.5 126.5q-2 33 -13 63q-8 25 15 21q25 -6 45 -28.5t35 -45.5q33 -55 32.5 -119.5t-26.5 -124.5q-27 -59 -70 -102t-97 -70.5t-115.5 -40 t-125.5 -8.5q-111 6 -216 52t-179 132q-78 86 -103.5 198t-5 222.5zM793 995q47 -18 98 -26t101 -5t96.5 20t82.5 52q29 29 51.5 68t16.5 82q-10 55 -61 82q-35 18 -72 19t-74 -9t-69.5 -29.5t-59.5 -44.5q-41 -41 -73.5 -95t-36.5 -114zM950 1572.5q-4 18.5 2 39.5l498 192 q18 6 30.5 -9t6.5 -38l-29 -88q-16 -43 -46 -70.5t-69 -33.5l-309 -49q-20 -4 -38.5 3t-30 21t-15.5 32.5z" />
<glyph unicode="&#xca;" horiz-adv-x="1071" d="M14.5 522.5q20.5 110.5 86 206.5t169.5 154q109 57 223.5 51t225.5 -45q-23 29 -37 57q-92 37 -158.5 102.5t-83.5 165.5q-6 47 4.5 95.5t44.5 83.5q12 12 26.5 21t31.5 18q2 0 11 3t18.5 4t15.5 0t4 -7q-16 -61 -25.5 -125t15.5 -123q20 -49 59 -90q0 29 3 57.5t14 56.5 q31 106 121.5 172t201.5 72q66 4 130.5 -20.5t111.5 -71.5q63 -66 73.5 -150t-47.5 -157q-53 -70 -135 -106t-168 -42q-70 -6 -143 6q6 -14 17.5 -27.5t33.5 -33.5q29 -8 63.5 -25.5t59.5 -46.5q18 -20 19.5 -51t-37.5 -31t-76 31t-62 61q-121 33 -240.5 12.5t-219.5 -98.5 q-49 -39 -90.5 -92t-68 -113.5t-34.5 -126t4 -128.5q14 -66 52 -117t91.5 -85t117 -46t126.5 4q63 14 115.5 50t89.5 87t56.5 111.5t13.5 126.5q-2 33 -13 63q-8 25 15 21q25 -6 45 -28.5t35 -45.5q33 -55 32.5 -119.5t-26.5 -124.5q-27 -59 -70 -102t-97 -70.5t-115.5 -40 t-125.5 -8.5q-111 6 -216 52t-179 132q-78 86 -103.5 198t-5 222.5zM793 995q47 -18 98 -26t101 -5t96.5 20t82.5 52q29 29 51.5 68t16.5 82q-10 55 -61 82q-35 18 -72 19t-74 -9t-69.5 -29.5t-59.5 -44.5q-41 -41 -73.5 -95t-36.5 -114zM793 1542l323 248h127l92 -248 l-61 -45l-141 115l-297 -115z" />
<glyph unicode="&#xcb;" horiz-adv-x="1071" d="M14.5 522.5q20.5 110.5 86 206.5t169.5 154q109 57 223.5 51t225.5 -45q-23 29 -37 57q-92 37 -158.5 102.5t-83.5 165.5q-6 47 4.5 95.5t44.5 83.5q12 12 26.5 21t31.5 18q2 0 11 3t18.5 4t15.5 0t4 -7q-16 -61 -25.5 -125t15.5 -123q20 -49 59 -90q0 29 3 57.5t14 56.5 q31 106 121.5 172t201.5 72q66 4 130.5 -20.5t111.5 -71.5q63 -66 73.5 -150t-47.5 -157q-53 -70 -135 -106t-168 -42q-70 -6 -143 6q6 -14 17.5 -27.5t33.5 -33.5q29 -8 63.5 -25.5t59.5 -46.5q18 -20 19.5 -51t-37.5 -31t-76 31t-62 61q-121 33 -240.5 12.5t-219.5 -98.5 q-49 -39 -90.5 -92t-68 -113.5t-34.5 -126t4 -128.5q14 -66 52 -117t91.5 -85t117 -46t126.5 4q63 14 115.5 50t89.5 87t56.5 111.5t13.5 126.5q-2 33 -13 63q-8 25 15 21q25 -6 45 -28.5t35 -45.5q33 -55 32.5 -119.5t-26.5 -124.5q-27 -59 -70 -102t-97 -70.5t-115.5 -40 t-125.5 -8.5q-111 6 -216 52t-179 132q-78 86 -103.5 198t-5 222.5zM793 995q47 -18 98 -26t101 -5t96.5 20t82.5 52q29 29 51.5 68t16.5 82q-10 55 -61 82q-35 18 -72 19t-74 -9t-69.5 -29.5t-59.5 -44.5q-41 -41 -73.5 -95t-36.5 -114zM858 1613q2 56 43 99q39 43 90 47 t86 -33q35 -35 34 -91t-42 -97q-39 -43 -91 -48t-87 32q-35 35 -33 91zM1164 1613q3 56 42 99t91 47t87 -33q35 -35 33 -91t-41 -97q-41 -43 -93 -48t-87 32q-35 35 -32 91z" />
<glyph unicode="&#xcc;" horiz-adv-x="1101" d="M5 342q5 78 26.5 153.5t56.5 135.5q31 53 78 102t104 84q-6 55 -2 110.5t15 102.5q18 96 66 185.5t134 142.5q98 59 207 62t213 -29q57 -16 117.5 -40t124.5 -28q16 8 24 14q35 20 80 33.5t86 3.5q33 -8 35 -29.5t-18 -37.5q-18 -14 -38 -22.5t-42 -14.5q-20 -27 -37 -60 q-29 -51 -51.5 -102t-44.5 -104q-47 -115 -91 -230t-98 -227q-51 -113 -109.5 -224.5t-140.5 -205.5q-37 -43 -79.5 -81t-92 -65.5t-103.5 -43t-114 -11.5q-88 4 -149.5 42t-97 97.5t-50 134t-9.5 152.5zM80 285q-4 -63 11 -130t69 -110q33 -27 70.5 -36t75.5 -5t74 20.5 t64 43.5q72 66 119 156.5t86 178.5q43 98 80 200t77 202t88 196.5t114 182.5q14 18 30.5 38.5t32.5 37.5q-88 0 -179 6t-185 -13q-84 -16 -158 -59t-127 -109q-41 -49 -65.5 -109.5t-20.5 -123.5q55 20 115 25q53 2 101 -15.5t85 -52.5q6 -4 21.5 -19.5t5.5 -25.5 q-4 -4 -16.5 -2t-16.5 2q-59 8 -120.5 -5.5t-123.5 -39.5q43 -49 109.5 -64.5t132.5 -5.5q8 0 7 -6t-5 -14t-11 -17l-6 -8q-25 -31 -58.5 -42t-69 -7t-70.5 20.5t-62 40.5q-25 23 -45 60q-86 -61 -141 -144q-35 -57 -58.5 -119.5t-29.5 -127.5zM895 1679v90q0 47 20.5 61.5 t51.5 -7.5l368 -224q25 -16 34 -42.5t-1 -53.5l-6 -14l-387 82q-37 6 -58.5 34.5t-21.5 73.5z" />
<glyph unicode="&#xcd;" horiz-adv-x="1101" d="M5 342q5 78 26.5 153.5t56.5 135.5q31 53 78 102t104 84q-6 55 -2 110.5t15 102.5q18 96 66 185.5t134 142.5q98 59 207 62t213 -29q57 -16 117.5 -40t124.5 -28q16 8 24 14q35 20 80 33.5t86 3.5q33 -8 35 -29.5t-18 -37.5q-18 -14 -38 -22.5t-42 -14.5q-20 -27 -37 -60 q-29 -51 -51.5 -102t-44.5 -104q-47 -115 -91 -230t-98 -227q-51 -113 -109.5 -224.5t-140.5 -205.5q-37 -43 -79.5 -81t-92 -65.5t-103.5 -43t-114 -11.5q-88 4 -149.5 42t-97 97.5t-50 134t-9.5 152.5zM80 285q-4 -63 11 -130t69 -110q33 -27 70.5 -36t75.5 -5t74 20.5 t64 43.5q72 66 119 156.5t86 178.5q43 98 80 200t77 202t88 196.5t114 182.5q14 18 30.5 38.5t32.5 37.5q-88 0 -179 6t-185 -13q-84 -16 -158 -59t-127 -109q-41 -49 -65.5 -109.5t-20.5 -123.5q55 20 115 25q53 2 101 -15.5t85 -52.5q6 -4 21.5 -19.5t5.5 -25.5 q-4 -4 -16.5 -2t-16.5 2q-59 8 -120.5 -5.5t-123.5 -39.5q43 -49 109.5 -64.5t132.5 -5.5q8 0 7 -6t-5 -14t-11 -17l-6 -8q-25 -31 -58.5 -42t-69 -7t-70.5 20.5t-62 40.5q-25 23 -45 60q-86 -61 -141 -144q-35 -57 -58.5 -119.5t-29.5 -127.5zM1048.5 1572.5 q-4.5 18.5 2.5 39.5l497 192q18 6 30.5 -9t6.5 -38l-29 -88q-16 -43 -45.5 -70.5t-68.5 -33.5l-309 -49q-20 -4 -39 3t-30 21t-15.5 32.5z" />
<glyph unicode="&#xce;" horiz-adv-x="1101" d="M5 342q5 78 26.5 153.5t56.5 135.5q31 53 78 102t104 84q-6 55 -2 110.5t15 102.5q18 96 66 185.5t134 142.5q98 59 207 62t213 -29q57 -16 117.5 -40t124.5 -28q16 8 24 14q35 20 80 33.5t86 3.5q33 -8 35 -29.5t-18 -37.5q-18 -14 -38 -22.5t-42 -14.5q-20 -27 -37 -60 q-29 -51 -51.5 -102t-44.5 -104q-47 -115 -91 -230t-98 -227q-51 -113 -109.5 -224.5t-140.5 -205.5q-37 -43 -79.5 -81t-92 -65.5t-103.5 -43t-114 -11.5q-88 4 -149.5 42t-97 97.5t-50 134t-9.5 152.5zM80 285q-4 -63 11 -130t69 -110q33 -27 70.5 -36t75.5 -5t74 20.5 t64 43.5q72 66 119 156.5t86 178.5q43 98 80 200t77 202t88 196.5t114 182.5q14 18 30.5 38.5t32.5 37.5q-88 0 -179 6t-185 -13q-84 -16 -158 -59t-127 -109q-41 -49 -65.5 -109.5t-20.5 -123.5q55 20 115 25q53 2 101 -15.5t85 -52.5q6 -4 21.5 -19.5t5.5 -25.5 q-4 -4 -16.5 -2t-16.5 2q-59 8 -120.5 -5.5t-123.5 -39.5q43 -49 109.5 -64.5t132.5 -5.5q8 0 7 -6t-5 -14t-11 -17l-6 -8q-25 -31 -58.5 -42t-69 -7t-70.5 20.5t-62 40.5q-25 23 -45 60q-86 -61 -141 -144q-35 -57 -58.5 -119.5t-29.5 -127.5zM901 1542l324 248h127 l92 -248l-62 -45l-141 115l-297 -115z" />
<glyph unicode="&#xcf;" horiz-adv-x="1101" d="M5 342q5 78 26.5 153.5t56.5 135.5q31 53 78 102t104 84q-6 55 -2 110.5t15 102.5q18 96 66 185.5t134 142.5q98 59 207 62t213 -29q57 -16 117.5 -40t124.5 -28q16 8 24 14q35 20 80 33.5t86 3.5q33 -8 35 -29.5t-18 -37.5q-18 -14 -38 -22.5t-42 -14.5q-20 -27 -37 -60 q-29 -51 -51.5 -102t-44.5 -104q-47 -115 -91 -230t-98 -227q-51 -113 -109.5 -224.5t-140.5 -205.5q-37 -43 -79.5 -81t-92 -65.5t-103.5 -43t-114 -11.5q-88 4 -149.5 42t-97 97.5t-50 134t-9.5 152.5zM80 285q-4 -63 11 -130t69 -110q33 -27 70.5 -36t75.5 -5t74 20.5 t64 43.5q72 66 119 156.5t86 178.5q43 98 80 200t77 202t88 196.5t114 182.5q14 18 30.5 38.5t32.5 37.5q-88 0 -179 6t-185 -13q-84 -16 -158 -59t-127 -109q-41 -49 -65.5 -109.5t-20.5 -123.5q55 20 115 25q53 2 101 -15.5t85 -52.5q6 -4 21.5 -19.5t5.5 -25.5 q-4 -4 -16.5 -2t-16.5 2q-59 8 -120.5 -5.5t-123.5 -39.5q43 -49 109.5 -64.5t132.5 -5.5q8 0 7 -6t-5 -14t-11 -17l-6 -8q-25 -31 -58.5 -42t-69 -7t-70.5 20.5t-62 40.5q-25 23 -45 60q-86 -61 -141 -144q-35 -57 -58.5 -119.5t-29.5 -127.5zM901 1613q2 56 43 99 q39 43 90 47t86 -33q35 -35 34 -91t-42 -97q-39 -43 -91 -48t-87 32q-35 35 -33 91zM1207 1613q3 56 42 99t91 47t87 -33q35 -35 33 -91t-41 -97q-41 -43 -93 -48t-87 32q-35 35 -32 91z" />
<glyph unicode="&#xd0;" horiz-adv-x="1673" d="M2 252q-2 78 16.5 156t47.5 139q35 72 92 138.5t131 109.5q16 82 58 155.5t99 136.5q80 88 173.5 157t207.5 104q86 27 178.5 30.5t180.5 -12.5q111 -23 202 -86t148 -162q59 -104 78.5 -221t3.5 -235q-14 -115 -59.5 -224.5t-114 -204t-160.5 -167t-203 -115.5 q-49 -20 -108.5 -32.5t-119.5 -10.5t-115.5 21.5t-96.5 62.5q-16 16 -33 43q-47 -43 -100 -75t-119 -42q-72 -12 -145.5 3.5t-128.5 62.5q-59 49 -85 119.5t-28 148.5zM74 213q8 -76 51 -137.5t123 -71.5q78 -10 136 29t99 102q61 94 100.5 199.5t80.5 212.5h-109l33 82h108 q18 49 43 98q29 59 69 123.5t90 118t112.5 89.5t138.5 40q27 2 52.5 -2t49.5 -19q10 -6 8 -11t-8 -9q-61 -31 -106 -79t-81 -105.5t-63.5 -120t-52.5 -123.5h191l-33 -82h-195q-27 -59 -53.5 -116.5t-54.5 -115.5q-31 -63 -66 -122.5t-82 -110.5q18 -47 53 -69.5t77 -29 t87.5 1t83.5 23.5q80 33 142.5 95.5t108.5 139t80 160.5t56 162q23 78 38.5 171t10 184.5t-39 172.5t-107.5 136t-169 73.5t-185 2.5q-86 -16 -163 -62.5t-136 -112.5q-51 -55 -92 -128.5t-64 -155.5q51 6 105.5 -4.5t97.5 -44.5q27 -20 23 -33q-2 -6 -13.5 -3t-34.5 5 q-98 6 -196 -29q-6 -78 14.5 -150.5t75.5 -131.5q6 -6 0 -9.5t-17.5 -4.5t-21.5 0t-12 1q-49 10 -86 43q-41 33 -62.5 80t-25.5 99q-51 -39 -92 -90.5t-69 -111t-41 -123t-7 -126.5z" />
<glyph unicode="&#xd1;" horiz-adv-x="1728" d="M6 244q-18 178 57 342q27 53 70 107.5t98 97.5q-12 72 -5 147.5t26 138.5q23 82 70 155t118 120q100 66 216 70.5t229 -29.5q59 -18 117.5 -38t119.5 -30q16 12 49 28.5t71 28t73 14.5t57 -14q23 -16 14.5 -42.5t-38.5 -39.5q-43 -94 -60.5 -204.5t-27.5 -223.5 q-10 -137 -2 -273t36 -271q6 -29 12.5 -54.5t16.5 -52.5q-2 27 -1 53.5t1 53.5q4 102 19.5 203.5t39.5 199.5q23 94 59 183.5t89 170.5q59 88 137 162t178 111q49 18 104.5 23t108.5 1q27 -2 52.5 -8t41 -15t17.5 -20.5t-19 -21.5q-78 -41 -143 -88t-127 -109 q-70 -72 -128 -151.5t-110 -165.5q-49 -82 -91 -170t-72.5 -181.5t-48 -188.5t-15.5 -191q0 -43 10.5 -76t26.5 -68q4 -10 2 -16t-7 -8t-12.5 0t-11.5 6q-68 55 -119 135t-87.5 170t-59 183.5t-29.5 176.5q-10 129 2.5 256t49.5 250q14 47 31.5 94.5t41.5 90.5q-2 -2 -8 -2 q-23 -29 -43 -58.5t-37 -60.5q-41 -76 -73.5 -156t-65.5 -158q-72 -168 -147.5 -334.5t-182.5 -318.5q-47 -70 -109.5 -132t-142.5 -97q-66 -29 -142.5 -28t-141.5 38q-76 43 -111 122t-43 163zM83 280.5q-3 -42.5 2 -83.5t22.5 -79t48.5 -67q49 -43 114.5 -47t120.5 25 q74 39 120 111.5t77 144.5q72 162 125 328.5t123 328.5q35 78 81.5 154.5t122.5 160.5q-104 6 -201.5 9.5t-191.5 -19.5q-66 -16 -134.5 -55t-121.5 -94.5t-81.5 -123t-14.5 -140.5q72 41 150.5 48t152.5 -38q14 -10 41 -33t31 -39q2 -12 -15.5 -9t-27.5 3 q-66 4 -128.5 -10.5t-133.5 -48.5q47 -41 110.5 -53.5t124.5 -4.5q8 0 7 -7t-6 -16.5t-12 -17.5l-7 -8q-16 -16 -37 -28.5t-43 -16.5q-61 -10 -123 18.5t-92 81.5q-76 -53 -123 -132t-68 -163q-10 -37 -13 -79.5zM1223 1542q61 137 125.5 186.5t127 47.5t122 -35 t112.5 -57.5t98 -22.5t78 72l64 -25q-47 -104 -94.5 -155.5t-93.5 -68t-91 -5t-89 32t-85 44t-78 32.5t-70.5 -4t-62.5 -66z" />
<glyph unicode="&#xd2;" horiz-adv-x="1527" d="M4 995q8 127 85 224.5t200 132.5q133 35 257 -2t238 -103q57 41 134 81t160 61.5t165 14.5t152 -61q51 -39 82.5 -94t47 -116.5t14.5 -126t-13 -123.5q-23 -102 -72 -213t-119.5 -217.5t-161 -202.5t-193.5 -170t-218 -120t-236 -50q-88 -4 -163.5 33t-126.5 110 q-37 53 -52.5 114.5t-15.5 126t12.5 129t32.5 124.5q-51 37 -92 88t-67.5 110.5t-40 124t-9.5 125.5zM102 892q-4 -58 14.5 -114.5t59.5 -101.5q29 -31 66 -51q66 156 174 286.5t239 239.5q-55 18 -114.5 29.5t-120 9.5t-116.5 -22.5t-105 -67.5q-43 -41 -68 -95.5 t-29 -112.5zM399 278q0 -45 7.5 -90t23.5 -83.5t47 -63.5q47 -39 102.5 -42t110.5 14.5t106.5 49t90.5 66.5q86 72 152.5 164t123.5 190q78 133 120 265.5t56 267.5q-63 -41 -142 -34t-159 32q-70 20 -137 46.5t-135 53.5q-29 -29 -54.5 -59.5t-49.5 -61.5 q-66 -90 -120.5 -191.5t-88.5 -211.5q84 12 165 51q12 6 10.5 -6t-3.5 -17q-16 -63 -76 -97t-125 -40q-8 -31 -12 -60.5t-9 -58.5q-4 -39 -4 -84zM862 1202q31 -20 74 -47t90 -51.5t96 -43t92 -20.5t78 14.5t56 61.5q-2 47 -14.5 93t-47.5 75q-39 33 -89 39t-106.5 -7 t-115 -44t-113.5 -70zM975 1679v90q0 47 20.5 61.5t51.5 -7.5l368 -224q25 -16 34 -42.5t-1 -53.5l-6 -14l-387 82q-37 6 -58.5 34.5t-21.5 73.5z" />
<glyph unicode="&#xd3;" horiz-adv-x="1527" d="M4 995q8 127 85 224.5t200 132.5q133 35 257 -2t238 -103q57 41 134 81t160 61.5t165 14.5t152 -61q51 -39 82.5 -94t47 -116.5t14.5 -126t-13 -123.5q-23 -102 -72 -213t-119.5 -217.5t-161 -202.5t-193.5 -170t-218 -120t-236 -50q-88 -4 -163.5 33t-126.5 110 q-37 53 -52.5 114.5t-15.5 126t12.5 129t32.5 124.5q-51 37 -92 88t-67.5 110.5t-40 124t-9.5 125.5zM102 892q-4 -58 14.5 -114.5t59.5 -101.5q29 -31 66 -51q66 156 174 286.5t239 239.5q-55 18 -114.5 29.5t-120 9.5t-116.5 -22.5t-105 -67.5q-43 -41 -68 -95.5 t-29 -112.5zM399 278q0 -45 7.5 -90t23.5 -83.5t47 -63.5q47 -39 102.5 -42t110.5 14.5t106.5 49t90.5 66.5q86 72 152.5 164t123.5 190q78 133 120 265.5t56 267.5q-63 -41 -142 -34t-159 32q-70 20 -137 46.5t-135 53.5q-29 -29 -54.5 -59.5t-49.5 -61.5 q-66 -90 -120.5 -191.5t-88.5 -211.5q84 12 165 51q12 6 10.5 -6t-3.5 -17q-16 -63 -76 -97t-125 -40q-8 -31 -12 -60.5t-9 -58.5q-4 -39 -4 -84zM862 1202q31 -20 74 -47t90 -51.5t96 -43t92 -20.5t78 14.5t56 61.5q-2 47 -14.5 93t-47.5 75q-39 33 -89 39t-106.5 -7 t-115 -44t-113.5 -70zM1057 1572.5q-4 18.5 2 39.5l497 192q18 6 30.5 -9t6.5 -38l-28 -88q-16 -43 -46 -70.5t-69 -33.5l-309 -49q-20 -4 -39 3t-30 21t-15 32.5z" />
<glyph unicode="&#xd4;" horiz-adv-x="1527" d="M4 995q8 127 85 224.5t200 132.5q133 35 257 -2t238 -103q57 41 134 81t160 61.5t165 14.5t152 -61q51 -39 82.5 -94t47 -116.5t14.5 -126t-13 -123.5q-23 -102 -72 -213t-119.5 -217.5t-161 -202.5t-193.5 -170t-218 -120t-236 -50q-88 -4 -163.5 33t-126.5 110 q-37 53 -52.5 114.5t-15.5 126t12.5 129t32.5 124.5q-51 37 -92 88t-67.5 110.5t-40 124t-9.5 125.5zM102 892q-4 -58 14.5 -114.5t59.5 -101.5q29 -31 66 -51q66 156 174 286.5t239 239.5q-55 18 -114.5 29.5t-120 9.5t-116.5 -22.5t-105 -67.5q-43 -41 -68 -95.5 t-29 -112.5zM399 278q0 -45 7.5 -90t23.5 -83.5t47 -63.5q47 -39 102.5 -42t110.5 14.5t106.5 49t90.5 66.5q86 72 152.5 164t123.5 190q78 133 120 265.5t56 267.5q-63 -41 -142 -34t-159 32q-70 20 -137 46.5t-135 53.5q-29 -29 -54.5 -59.5t-49.5 -61.5 q-66 -90 -120.5 -191.5t-88.5 -211.5q84 12 165 51q12 6 10.5 -6t-3.5 -17q-16 -63 -76 -97t-125 -40q-8 -31 -12 -60.5t-9 -58.5q-4 -39 -4 -84zM862 1202q31 -20 74 -47t90 -51.5t96 -43t92 -20.5t78 14.5t56 61.5q-2 47 -14.5 93t-47.5 75q-39 33 -89 39t-106.5 -7 t-115 -44t-113.5 -70zM967 1542l323 248h127l92 -248l-61 -45l-141 115l-297 -115z" />
</font>
</defs>
</svg>
